G04 #@! TF.GenerationSoftware,KiCad,Pcbnew,7.0.1*
G04 #@! TF.CreationDate,2023-05-03T21:59:58+05:00*
G04 #@! TF.ProjectId,Breakout_TPIC6B595N_v1.0,42726561-6b6f-4757-945f-545049433642,rev?*
G04 #@! TF.SameCoordinates,Original*
G04 #@! TF.FileFunction,Copper,L2,Bot*
G04 #@! TF.FilePolarity,Positive*
%FSLAX46Y46*%
G04 Gerber Fmt 4.6, Leading zero omitted, Abs format (unit mm)*
G04 Created by KiCad (PCBNEW 7.0.1) date 2023-05-03 21:59:58*
%MOMM*%
%LPD*%
G01*
G04 APERTURE LIST*
G04 Aperture macros list*
%AMRoundRect*
0 Rectangle with rounded corners*
0 $1 Rounding radius*
0 $2 $3 $4 $5 $6 $7 $8 $9 X,Y pos of 4 corners*
0 Add a 4 corners polygon primitive as box body*
4,1,4,$2,$3,$4,$5,$6,$7,$8,$9,$2,$3,0*
0 Add four circle primitives for the rounded corners*
1,1,$1+$1,$2,$3*
1,1,$1+$1,$4,$5*
1,1,$1+$1,$6,$7*
1,1,$1+$1,$8,$9*
0 Add four rect primitives between the rounded corners*
20,1,$1+$1,$2,$3,$4,$5,0*
20,1,$1+$1,$4,$5,$6,$7,0*
20,1,$1+$1,$6,$7,$8,$9,0*
20,1,$1+$1,$8,$9,$2,$3,0*%
G04 Aperture macros list end*
G04 #@! TA.AperFunction,ComponentPad*
%ADD10C,5.600000*%
G04 #@! TD*
G04 #@! TA.AperFunction,ComponentPad*
%ADD11C,1.600000*%
G04 #@! TD*
G04 #@! TA.AperFunction,ComponentPad*
%ADD12R,1.700000X1.700000*%
G04 #@! TD*
G04 #@! TA.AperFunction,ComponentPad*
%ADD13O,1.700000X1.700000*%
G04 #@! TD*
G04 #@! TA.AperFunction,ComponentPad*
%ADD14RoundRect,0.250000X0.600000X-0.600000X0.600000X0.600000X-0.600000X0.600000X-0.600000X-0.600000X0*%
G04 #@! TD*
G04 #@! TA.AperFunction,ComponentPad*
%ADD15C,1.700000*%
G04 #@! TD*
G04 #@! TA.AperFunction,ComponentPad*
%ADD16R,1.600000X1.600000*%
G04 #@! TD*
G04 #@! TA.AperFunction,ComponentPad*
%ADD17O,1.600000X1.600000*%
G04 #@! TD*
G04 #@! TA.AperFunction,ComponentPad*
%ADD18R,2.600000X2.600000*%
G04 #@! TD*
G04 #@! TA.AperFunction,ComponentPad*
%ADD19C,2.600000*%
G04 #@! TD*
G04 #@! TA.AperFunction,ViaPad*
%ADD20C,0.600000*%
G04 #@! TD*
G04 #@! TA.AperFunction,Conductor*
%ADD21C,0.400000*%
G04 #@! TD*
G04 #@! TA.AperFunction,Conductor*
%ADD22C,0.500000*%
G04 #@! TD*
G04 #@! TA.AperFunction,Conductor*
%ADD23C,1.270000*%
G04 #@! TD*
G04 APERTURE END LIST*
D10*
X125730000Y-55000000D03*
D11*
X137180000Y-81788000D03*
X139680000Y-81788000D03*
D10*
X151130000Y-111125000D03*
D12*
X153035000Y-88138000D03*
D13*
X153035000Y-90678000D03*
X153035000Y-93218000D03*
X153035000Y-95758000D03*
X153035000Y-98298000D03*
X153035000Y-100838000D03*
X153035000Y-103378000D03*
D10*
X125730000Y-111125000D03*
D11*
X137160000Y-73914000D03*
X139660000Y-73914000D03*
D14*
X129540000Y-65522500D03*
D15*
X129540000Y-62982500D03*
X132080000Y-65522500D03*
X132080000Y-62982500D03*
X134620000Y-65522500D03*
X134620000Y-62982500D03*
X137160000Y-65522500D03*
X137160000Y-62982500D03*
X139700000Y-65522500D03*
X139700000Y-62982500D03*
X142240000Y-65522500D03*
X142240000Y-62982500D03*
X144780000Y-65522500D03*
X144780000Y-62982500D03*
X147320000Y-65522500D03*
X147320000Y-62982500D03*
D16*
X134615000Y-88138000D03*
D17*
X134615000Y-90678000D03*
X134615000Y-93218000D03*
X134615000Y-95758000D03*
X134615000Y-98298000D03*
X134615000Y-100838000D03*
X134615000Y-103378000D03*
X134615000Y-105918000D03*
X134615000Y-108458000D03*
X134615000Y-110998000D03*
X142235000Y-110998000D03*
X142235000Y-108458000D03*
X142235000Y-105918000D03*
X142235000Y-103378000D03*
X142235000Y-100838000D03*
X142235000Y-98298000D03*
X142235000Y-95758000D03*
X142235000Y-93218000D03*
X142235000Y-90678000D03*
X142235000Y-88138000D03*
D18*
X125984000Y-75184000D03*
D19*
X125984000Y-80264000D03*
D10*
X151130000Y-55000000D03*
D18*
X151130000Y-80264000D03*
D19*
X151130000Y-75184000D03*
D12*
X123825000Y-88138000D03*
D13*
X123825000Y-90678000D03*
X123825000Y-93218000D03*
X123825000Y-95758000D03*
X123825000Y-98298000D03*
X123825000Y-100838000D03*
X123825000Y-103378000D03*
D20*
X147066000Y-114300000D03*
X123952000Y-106172000D03*
X127508000Y-105664000D03*
X150622000Y-106934000D03*
X153162000Y-106426000D03*
X150622000Y-84328000D03*
X124968000Y-84582000D03*
X131318000Y-87884000D03*
X146304000Y-86360000D03*
X154178000Y-69596000D03*
X122936000Y-69850000D03*
X130048000Y-70612000D03*
X122682000Y-61214000D03*
X122936000Y-66802000D03*
X130302000Y-58674000D03*
X153670000Y-63500000D03*
X146812000Y-70866000D03*
X145288000Y-58928000D03*
X138684000Y-58420000D03*
X138176000Y-69596000D03*
X139446000Y-109728000D03*
X146812000Y-105918000D03*
D21*
X134615000Y-95758000D02*
X136398000Y-93975000D01*
X132820000Y-83295584D02*
X132820000Y-69406528D01*
X132820000Y-69406528D02*
X131485472Y-68072000D01*
X136398000Y-93975000D02*
X136398000Y-86873584D01*
X131485472Y-68072000D02*
X130556000Y-68072000D01*
X129540000Y-67056000D02*
X129540000Y-65522500D01*
X136398000Y-86873584D02*
X132820000Y-83295584D01*
X130556000Y-68072000D02*
X129540000Y-67056000D01*
X133420000Y-83047056D02*
X133420000Y-69158000D01*
X134615000Y-98298000D02*
X136306000Y-98298000D01*
X132080000Y-67818000D02*
X132080000Y-65522500D01*
X136998000Y-97606000D02*
X136998000Y-86625056D01*
X136306000Y-98298000D02*
X136998000Y-97606000D01*
X133420000Y-69158000D02*
X132080000Y-67818000D01*
X136998000Y-86625056D02*
X133420000Y-83047056D01*
X136398000Y-100838000D02*
X137598000Y-99638000D01*
X134620000Y-68834000D02*
X134620000Y-65522500D01*
X134020000Y-69434000D02*
X134620000Y-68834000D01*
X137598000Y-99638000D02*
X137598000Y-86376528D01*
X137598000Y-86376528D02*
X134020000Y-82798528D01*
X134615000Y-100838000D02*
X136398000Y-100838000D01*
X134020000Y-82798528D02*
X134020000Y-69434000D01*
X134620000Y-82550000D02*
X134620000Y-69682528D01*
X138198000Y-102340000D02*
X138198000Y-86128000D01*
X137160000Y-103378000D02*
X138198000Y-102340000D01*
X137160000Y-67142528D02*
X137160000Y-65522500D01*
X134615000Y-103378000D02*
X137160000Y-103378000D01*
X134620000Y-69682528D02*
X137160000Y-67142528D01*
X138198000Y-86128000D02*
X134620000Y-82550000D01*
X141732000Y-83312000D02*
X141732000Y-69088000D01*
X142235000Y-103378000D02*
X140716000Y-103378000D01*
X140716000Y-103378000D02*
X138798000Y-101460000D01*
X138798000Y-101460000D02*
X138798000Y-86246000D01*
X139700000Y-67056000D02*
X139700000Y-65522500D01*
X138798000Y-86246000D02*
X141732000Y-83312000D01*
X141732000Y-69088000D02*
X139700000Y-67056000D01*
X140716000Y-100838000D02*
X139398000Y-99520000D01*
X139398000Y-86494528D02*
X142332000Y-83560528D01*
X142332000Y-83560528D02*
X142332000Y-65614500D01*
X142235000Y-100838000D02*
X140716000Y-100838000D01*
X139398000Y-99520000D02*
X139398000Y-86494528D01*
X142332000Y-65614500D02*
X142240000Y-65522500D01*
X144780000Y-67564000D02*
X144780000Y-65522500D01*
X139998000Y-97192370D02*
X139998000Y-86743056D01*
X141103630Y-98298000D02*
X139998000Y-97192370D01*
X139998000Y-86743056D02*
X142932000Y-83809056D01*
X142932000Y-83809056D02*
X142932000Y-69412000D01*
X142235000Y-98298000D02*
X141103630Y-98298000D01*
X142932000Y-69412000D02*
X144780000Y-67564000D01*
X147320000Y-67564000D02*
X147320000Y-65522500D01*
X146431000Y-68453000D02*
X147320000Y-67564000D01*
X143532000Y-84057584D02*
X143532000Y-69660528D01*
X140598000Y-94121000D02*
X140598000Y-86991584D01*
X144739528Y-68453000D02*
X146431000Y-68453000D01*
X142235000Y-95758000D02*
X140598000Y-94121000D01*
X140598000Y-86991584D02*
X143532000Y-84057584D01*
X143532000Y-69660528D02*
X144739528Y-68453000D01*
D22*
X127508000Y-90678000D02*
X123825000Y-90678000D01*
X134615000Y-93218000D02*
X130048000Y-93218000D01*
X130048000Y-93218000D02*
X127508000Y-90678000D01*
D21*
X123825000Y-95758000D02*
X129540000Y-95758000D01*
X148844000Y-95758000D02*
X153035000Y-95758000D01*
X132588000Y-113284000D02*
X136144000Y-113284000D01*
X139192000Y-108458000D02*
X142235000Y-108458000D01*
X129540000Y-95758000D02*
X131572000Y-97790000D01*
X136144000Y-113284000D02*
X137922000Y-111506000D01*
X145034000Y-108458000D02*
X146050000Y-107442000D01*
X137922000Y-111506000D02*
X137922000Y-109728000D01*
X131572000Y-97790000D02*
X131572000Y-112268000D01*
X137922000Y-109728000D02*
X139192000Y-108458000D01*
X146050000Y-98552000D02*
X148844000Y-95758000D01*
X131572000Y-112268000D02*
X132588000Y-113284000D01*
X146050000Y-107442000D02*
X146050000Y-98552000D01*
X142235000Y-108458000D02*
X145034000Y-108458000D01*
X136398000Y-114046000D02*
X137414000Y-113030000D01*
X130048000Y-98298000D02*
X130810000Y-99060000D01*
X131826000Y-113538000D02*
X132334000Y-114046000D01*
X137414000Y-113030000D02*
X138684000Y-111760000D01*
X123825000Y-98298000D02*
X130048000Y-98298000D01*
X132334000Y-114046000D02*
X134874000Y-114046000D01*
X138684000Y-110490000D02*
X139446000Y-109728000D01*
X149352000Y-98298000D02*
X153035000Y-98298000D01*
X147574000Y-100076000D02*
X149352000Y-98298000D01*
X147574000Y-105156000D02*
X147574000Y-100076000D01*
X134874000Y-114046000D02*
X136398000Y-114046000D01*
X146812000Y-105918000D02*
X147574000Y-105156000D01*
X130810000Y-104648000D02*
X130810000Y-112522000D01*
X138684000Y-111760000D02*
X138684000Y-110490000D01*
X130810000Y-99060000D02*
X130810000Y-104648000D01*
X130810000Y-112522000D02*
X131826000Y-113538000D01*
D23*
X142240000Y-62982500D02*
X144780000Y-62982500D01*
X144780000Y-62982500D02*
X147320000Y-62982500D01*
X127263500Y-62982500D02*
X129540000Y-62982500D01*
X125984000Y-75184000D02*
X125984000Y-64262000D01*
X129540000Y-62982500D02*
X132080000Y-62982500D01*
X132080000Y-62982500D02*
X134620000Y-62982500D01*
X125984000Y-64262000D02*
X127263500Y-62982500D01*
X151130000Y-64008000D02*
X151130000Y-75184000D01*
X150104500Y-62982500D02*
X151130000Y-64008000D01*
X139700000Y-62982500D02*
X142240000Y-62982500D01*
X134620000Y-62982500D02*
X137160000Y-62982500D01*
X137160000Y-62982500D02*
X139700000Y-62982500D01*
X147320000Y-62982500D02*
X150104500Y-62982500D01*
D21*
X149098000Y-90678000D02*
X146558000Y-93218000D01*
X153035000Y-90678000D02*
X149098000Y-90678000D01*
X146558000Y-93218000D02*
X142235000Y-93218000D01*
G04 #@! TA.AperFunction,Conductor*
G36*
X127193223Y-91437939D02*
G01*
X127233451Y-91464819D01*
X129472267Y-93703634D01*
X129484048Y-93717266D01*
X129498390Y-93736530D01*
X129536355Y-93768386D01*
X129544317Y-93775684D01*
X129548224Y-93779591D01*
X129572537Y-93798815D01*
X129575337Y-93801096D01*
X129633754Y-93850115D01*
X129650165Y-93860569D01*
X129651319Y-93861107D01*
X129651323Y-93861110D01*
X129719328Y-93892821D01*
X129722451Y-93894333D01*
X129789567Y-93928040D01*
X129790704Y-93928611D01*
X129809084Y-93934998D01*
X129810321Y-93935253D01*
X129810327Y-93935256D01*
X129883862Y-93950439D01*
X129887209Y-93951181D01*
X129960279Y-93968500D01*
X129960281Y-93968500D01*
X129961505Y-93968790D01*
X129980876Y-93970769D01*
X129982140Y-93970732D01*
X129982144Y-93970733D01*
X130057110Y-93968552D01*
X130060716Y-93968500D01*
X133488337Y-93968500D01*
X133545594Y-93982511D01*
X133589912Y-94021377D01*
X133614953Y-94057140D01*
X133775859Y-94218046D01*
X133962263Y-94348566D01*
X133962266Y-94348568D01*
X134020275Y-94375618D01*
X134072450Y-94421375D01*
X134091869Y-94488000D01*
X134072450Y-94554625D01*
X134020275Y-94600382D01*
X133962263Y-94627433D01*
X133775859Y-94757953D01*
X133614953Y-94918859D01*
X133484432Y-95105264D01*
X133388261Y-95311502D01*
X133329364Y-95531310D01*
X133309531Y-95758000D01*
X133329364Y-95984689D01*
X133388261Y-96204497D01*
X133484432Y-96410735D01*
X133614953Y-96597140D01*
X133775859Y-96758046D01*
X133830765Y-96796491D01*
X133962266Y-96888568D01*
X134020273Y-96915617D01*
X134072449Y-96961373D01*
X134091869Y-97027997D01*
X134072451Y-97094622D01*
X134020276Y-97140380D01*
X133962266Y-97167431D01*
X133775859Y-97297953D01*
X133614953Y-97458859D01*
X133484432Y-97645264D01*
X133388261Y-97851502D01*
X133329364Y-98071310D01*
X133309531Y-98298000D01*
X133329364Y-98524689D01*
X133388261Y-98744497D01*
X133484432Y-98950735D01*
X133614953Y-99137140D01*
X133775859Y-99298046D01*
X133962263Y-99428566D01*
X133962266Y-99428568D01*
X134020275Y-99455618D01*
X134072450Y-99501375D01*
X134091869Y-99568000D01*
X134072450Y-99634625D01*
X134020275Y-99680382D01*
X133962263Y-99707433D01*
X133775859Y-99837953D01*
X133614953Y-99998859D01*
X133484432Y-100185264D01*
X133388261Y-100391502D01*
X133329364Y-100611310D01*
X133309531Y-100838000D01*
X133329364Y-101064689D01*
X133388261Y-101284497D01*
X133484432Y-101490735D01*
X133614953Y-101677140D01*
X133775859Y-101838046D01*
X133962263Y-101968566D01*
X133962266Y-101968568D01*
X134020275Y-101995618D01*
X134072450Y-102041375D01*
X134091869Y-102108000D01*
X134072450Y-102174625D01*
X134020275Y-102220382D01*
X133962263Y-102247433D01*
X133775859Y-102377953D01*
X133614953Y-102538859D01*
X133484432Y-102725264D01*
X133388261Y-102931502D01*
X133329364Y-103151310D01*
X133309531Y-103378000D01*
X133329364Y-103604689D01*
X133388261Y-103824497D01*
X133484432Y-104030735D01*
X133614953Y-104217140D01*
X133775859Y-104378046D01*
X133830215Y-104416106D01*
X133962266Y-104508568D01*
X134020275Y-104535618D01*
X134072450Y-104581375D01*
X134091869Y-104648000D01*
X134072450Y-104714625D01*
X134020275Y-104760382D01*
X133962263Y-104787433D01*
X133775859Y-104917953D01*
X133614953Y-105078859D01*
X133484432Y-105265264D01*
X133388261Y-105471502D01*
X133329364Y-105691310D01*
X133309531Y-105918000D01*
X133329364Y-106144689D01*
X133388261Y-106364497D01*
X133484432Y-106570735D01*
X133614953Y-106757140D01*
X133775859Y-106918046D01*
X133962263Y-107048566D01*
X133962266Y-107048568D01*
X134020275Y-107075618D01*
X134072450Y-107121375D01*
X134091869Y-107188000D01*
X134072450Y-107254625D01*
X134020275Y-107300382D01*
X133962263Y-107327433D01*
X133775859Y-107457953D01*
X133614953Y-107618859D01*
X133484432Y-107805264D01*
X133388261Y-108011502D01*
X133329364Y-108231310D01*
X133309531Y-108458000D01*
X133329364Y-108684689D01*
X133388261Y-108904497D01*
X133484432Y-109110735D01*
X133614953Y-109297140D01*
X133775859Y-109458046D01*
X133962264Y-109588567D01*
X133962265Y-109588567D01*
X133962266Y-109588568D01*
X134020865Y-109615893D01*
X134073040Y-109661650D01*
X134092460Y-109728274D01*
X134073041Y-109794899D01*
X134020866Y-109840656D01*
X133962522Y-109867863D01*
X133776180Y-109998341D01*
X133615341Y-110159180D01*
X133484865Y-110345519D01*
X133388733Y-110551673D01*
X133336128Y-110747999D01*
X133336128Y-110748000D01*
X135893872Y-110748000D01*
X135893871Y-110747999D01*
X135841266Y-110551673D01*
X135745134Y-110345519D01*
X135614658Y-110159180D01*
X135453819Y-109998341D01*
X135267482Y-109867866D01*
X135209133Y-109840657D01*
X135156958Y-109794899D01*
X135137539Y-109728274D01*
X135156959Y-109661649D01*
X135209134Y-109615893D01*
X135267734Y-109588568D01*
X135454139Y-109458047D01*
X135615047Y-109297139D01*
X135745568Y-109110734D01*
X135841739Y-108904496D01*
X135900635Y-108684692D01*
X135920468Y-108458000D01*
X135900635Y-108231308D01*
X135841739Y-108011504D01*
X135745568Y-107805266D01*
X135740356Y-107797823D01*
X135615046Y-107618859D01*
X135454140Y-107457953D01*
X135267733Y-107327431D01*
X135209725Y-107300382D01*
X135157549Y-107254625D01*
X135138129Y-107188000D01*
X135157549Y-107121375D01*
X135209725Y-107075618D01*
X135267734Y-107048568D01*
X135454139Y-106918047D01*
X135615047Y-106757139D01*
X135745568Y-106570734D01*
X135841739Y-106364496D01*
X135900635Y-106144692D01*
X135920468Y-105918000D01*
X135900635Y-105691308D01*
X135841739Y-105471504D01*
X135745568Y-105265266D01*
X135740324Y-105257777D01*
X135615046Y-105078859D01*
X135454140Y-104917953D01*
X135267733Y-104787431D01*
X135209725Y-104760382D01*
X135157549Y-104714625D01*
X135138129Y-104648000D01*
X135157549Y-104581375D01*
X135209725Y-104535618D01*
X135267734Y-104508568D01*
X135454139Y-104378047D01*
X135615047Y-104217139D01*
X135675098Y-104131377D01*
X135719416Y-104092511D01*
X135776673Y-104078500D01*
X137135079Y-104078500D01*
X137142566Y-104078726D01*
X137145706Y-104078915D01*
X137202606Y-104082358D01*
X137261782Y-104071513D01*
X137269181Y-104070387D01*
X137328872Y-104063140D01*
X137338335Y-104059550D01*
X137359958Y-104053522D01*
X137369932Y-104051695D01*
X137424808Y-104026996D01*
X137431673Y-104024152D01*
X137487930Y-104002818D01*
X137496270Y-103997060D01*
X137515819Y-103986035D01*
X137525057Y-103981878D01*
X137572413Y-103944775D01*
X137578426Y-103940352D01*
X137627929Y-103906183D01*
X137667823Y-103861150D01*
X137672924Y-103855731D01*
X138675731Y-102852924D01*
X138681150Y-102847823D01*
X138726183Y-102807929D01*
X138760377Y-102758389D01*
X138764770Y-102752419D01*
X138801878Y-102705056D01*
X138805904Y-102696108D01*
X138842504Y-102649391D01*
X138896626Y-102625031D01*
X138955869Y-102628613D01*
X139006661Y-102659318D01*
X140203051Y-103855707D01*
X140208171Y-103861145D01*
X140248071Y-103906183D01*
X140297565Y-103940346D01*
X140297574Y-103940352D01*
X140303603Y-103944788D01*
X140350944Y-103981878D01*
X140360183Y-103986036D01*
X140379719Y-103997053D01*
X140388070Y-104002818D01*
X140444326Y-104024152D01*
X140451220Y-104027009D01*
X140506069Y-104051695D01*
X140516044Y-104053522D01*
X140537656Y-104059547D01*
X140547128Y-104063140D01*
X140606841Y-104070390D01*
X140614185Y-104071507D01*
X140673394Y-104082358D01*
X140730102Y-104078927D01*
X140733434Y-104078726D01*
X140740921Y-104078500D01*
X141073327Y-104078500D01*
X141130584Y-104092511D01*
X141174902Y-104131377D01*
X141234953Y-104217140D01*
X141395859Y-104378046D01*
X141450215Y-104416106D01*
X141582266Y-104508568D01*
X141640275Y-104535618D01*
X141692450Y-104581375D01*
X141711869Y-104648000D01*
X141692450Y-104714625D01*
X141640275Y-104760382D01*
X141582263Y-104787433D01*
X141395859Y-104917953D01*
X141234953Y-105078859D01*
X141104432Y-105265264D01*
X141008261Y-105471502D01*
X140949364Y-105691310D01*
X140929531Y-105918000D01*
X140949364Y-106144689D01*
X141008261Y-106364497D01*
X141104432Y-106570735D01*
X141234953Y-106757140D01*
X141395859Y-106918046D01*
X141582263Y-107048566D01*
X141582266Y-107048568D01*
X141640275Y-107075618D01*
X141692450Y-107121375D01*
X141711869Y-107188000D01*
X141692450Y-107254625D01*
X141640275Y-107300382D01*
X141582263Y-107327433D01*
X141395859Y-107457953D01*
X141234953Y-107618859D01*
X141174902Y-107704623D01*
X141130584Y-107743489D01*
X141073327Y-107757500D01*
X139216910Y-107757500D01*
X139209423Y-107757274D01*
X139149391Y-107753642D01*
X139090242Y-107764481D01*
X139082843Y-107765608D01*
X139023122Y-107772860D01*
X139013641Y-107776456D01*
X138992036Y-107782479D01*
X138982067Y-107784306D01*
X138927228Y-107808986D01*
X138920313Y-107811850D01*
X138864067Y-107833182D01*
X138855720Y-107838943D01*
X138836192Y-107849957D01*
X138826948Y-107854118D01*
X138779597Y-107891214D01*
X138773568Y-107895649D01*
X138724070Y-107929816D01*
X138684183Y-107974838D01*
X138679051Y-107980290D01*
X137444290Y-109215051D01*
X137438838Y-109220183D01*
X137393816Y-109260070D01*
X137359649Y-109309568D01*
X137355213Y-109315597D01*
X137318121Y-109362942D01*
X137313961Y-109372186D01*
X137302941Y-109391725D01*
X137297182Y-109400069D01*
X137275853Y-109456305D01*
X137272989Y-109463219D01*
X137248303Y-109518070D01*
X137246475Y-109528047D01*
X137240454Y-109549648D01*
X137236859Y-109559128D01*
X137229609Y-109618827D01*
X137228483Y-109626226D01*
X137217641Y-109685391D01*
X137221274Y-109745434D01*
X137221500Y-109752921D01*
X137221500Y-111164481D01*
X137212061Y-111211934D01*
X137185181Y-111252162D01*
X135890162Y-112547181D01*
X135849934Y-112574061D01*
X135802481Y-112583500D01*
X132929519Y-112583500D01*
X132882066Y-112574061D01*
X132841838Y-112547181D01*
X132308819Y-112014162D01*
X132281939Y-111973934D01*
X132272500Y-111926481D01*
X132272500Y-111248000D01*
X133336128Y-111248000D01*
X133388733Y-111444326D01*
X133484865Y-111650480D01*
X133615341Y-111836819D01*
X133776180Y-111997658D01*
X133962519Y-112128134D01*
X134168673Y-112224266D01*
X134364999Y-112276871D01*
X134365000Y-112276872D01*
X134365000Y-111248000D01*
X134865000Y-111248000D01*
X134865000Y-112276871D01*
X135061326Y-112224266D01*
X135267480Y-112128134D01*
X135453819Y-111997658D01*
X135614658Y-111836819D01*
X135745134Y-111650480D01*
X135841266Y-111444326D01*
X135893872Y-111248000D01*
X134865000Y-111248000D01*
X134365000Y-111248000D01*
X133336128Y-111248000D01*
X132272500Y-111248000D01*
X132272500Y-97814921D01*
X132272726Y-97807434D01*
X132272927Y-97804102D01*
X132276358Y-97747394D01*
X132265507Y-97688185D01*
X132264390Y-97680841D01*
X132257140Y-97621128D01*
X132253547Y-97611656D01*
X132247522Y-97590044D01*
X132245695Y-97580069D01*
X132221007Y-97525217D01*
X132218147Y-97518313D01*
X132196818Y-97462070D01*
X132191061Y-97453730D01*
X132180035Y-97434181D01*
X132175877Y-97424941D01*
X132138785Y-97377597D01*
X132134355Y-97371577D01*
X132100183Y-97322071D01*
X132055153Y-97282178D01*
X132049715Y-97277058D01*
X130052940Y-95280283D01*
X130047822Y-95274847D01*
X130007929Y-95229817D01*
X129958432Y-95195651D01*
X129952405Y-95191216D01*
X129905054Y-95154120D01*
X129895813Y-95149961D01*
X129876273Y-95138941D01*
X129867930Y-95133182D01*
X129867927Y-95133181D01*
X129867926Y-95133180D01*
X129811701Y-95111856D01*
X129804783Y-95108991D01*
X129749929Y-95084303D01*
X129739952Y-95082475D01*
X129718339Y-95076450D01*
X129708873Y-95072860D01*
X129649172Y-95065610D01*
X129641771Y-95064483D01*
X129582607Y-95053641D01*
X129522566Y-95057274D01*
X129515079Y-95057500D01*
X125047711Y-95057500D01*
X124990454Y-95043489D01*
X124946136Y-95004623D01*
X124886085Y-94918861D01*
X124863495Y-94886599D01*
X124696401Y-94719505D01*
X124510839Y-94589573D01*
X124471975Y-94545257D01*
X124457964Y-94488000D01*
X124471975Y-94430743D01*
X124510839Y-94386426D01*
X124696401Y-94256495D01*
X124863495Y-94089401D01*
X124999035Y-93895830D01*
X125098903Y-93681663D01*
X125160063Y-93453408D01*
X125180659Y-93218000D01*
X125160063Y-92982592D01*
X125098903Y-92754337D01*
X124999035Y-92540171D01*
X124863495Y-92346599D01*
X124696401Y-92179505D01*
X124510839Y-92049573D01*
X124471975Y-92005257D01*
X124457964Y-91948000D01*
X124471975Y-91890743D01*
X124510839Y-91846426D01*
X124696401Y-91716495D01*
X124863495Y-91549401D01*
X124911127Y-91481374D01*
X124955444Y-91442511D01*
X125012701Y-91428500D01*
X127145770Y-91428500D01*
X127193223Y-91437939D01*
G37*
G04 #@! TD.AperFunction*
G04 #@! TA.AperFunction,Conductor*
G36*
X138487257Y-66169475D02*
G01*
X138531573Y-66208339D01*
X138661505Y-66393901D01*
X138828599Y-66560995D01*
X138871675Y-66591157D01*
X138946623Y-66643636D01*
X138985489Y-66687954D01*
X138999500Y-66745211D01*
X138999500Y-67031079D01*
X138999274Y-67038566D01*
X138995641Y-67098607D01*
X139006483Y-67157771D01*
X139007610Y-67165172D01*
X139014860Y-67224873D01*
X139018450Y-67234339D01*
X139024475Y-67255952D01*
X139026303Y-67265929D01*
X139050991Y-67320783D01*
X139053856Y-67327701D01*
X139075180Y-67383926D01*
X139075182Y-67383930D01*
X139080941Y-67392273D01*
X139091961Y-67411813D01*
X139096120Y-67421054D01*
X139133216Y-67468405D01*
X139137651Y-67474432D01*
X139171817Y-67523929D01*
X139216847Y-67563822D01*
X139222283Y-67568940D01*
X140995181Y-69341838D01*
X141022061Y-69382066D01*
X141031500Y-69429519D01*
X141031500Y-73218619D01*
X141013789Y-73282484D01*
X140965715Y-73328104D01*
X140901010Y-73342449D01*
X140838160Y-73321420D01*
X140795118Y-73271024D01*
X140790567Y-73261264D01*
X140660046Y-73074859D01*
X140499140Y-72913953D01*
X140312735Y-72783432D01*
X140106497Y-72687261D01*
X139886689Y-72628364D01*
X139660000Y-72608531D01*
X139433310Y-72628364D01*
X139213502Y-72687261D01*
X139007264Y-72783432D01*
X138820859Y-72913953D01*
X138659953Y-73074859D01*
X138529432Y-73261264D01*
X138522382Y-73276385D01*
X138476625Y-73328561D01*
X138410000Y-73347980D01*
X138343375Y-73328561D01*
X138297618Y-73276385D01*
X138290567Y-73261264D01*
X138160046Y-73074859D01*
X137999140Y-72913953D01*
X137812735Y-72783432D01*
X137606497Y-72687261D01*
X137386689Y-72628364D01*
X137160000Y-72608531D01*
X136933310Y-72628364D01*
X136713502Y-72687261D01*
X136507264Y-72783432D01*
X136320859Y-72913953D01*
X136159953Y-73074859D01*
X136029432Y-73261264D01*
X135933261Y-73467502D01*
X135874364Y-73687310D01*
X135854531Y-73913999D01*
X135874364Y-74140689D01*
X135933261Y-74360497D01*
X136029432Y-74566735D01*
X136159953Y-74753140D01*
X136320859Y-74914046D01*
X136507264Y-75044567D01*
X136507265Y-75044567D01*
X136507266Y-75044568D01*
X136713504Y-75140739D01*
X136933308Y-75199635D01*
X137160000Y-75219468D01*
X137386692Y-75199635D01*
X137606496Y-75140739D01*
X137812734Y-75044568D01*
X137999139Y-74914047D01*
X138160047Y-74753139D01*
X138290568Y-74566734D01*
X138297619Y-74551612D01*
X138343374Y-74499439D01*
X138410000Y-74480019D01*
X138476626Y-74499439D01*
X138522380Y-74551612D01*
X138529432Y-74566734D01*
X138529434Y-74566738D01*
X138659953Y-74753140D01*
X138820859Y-74914046D01*
X139007264Y-75044567D01*
X139007265Y-75044567D01*
X139007266Y-75044568D01*
X139213504Y-75140739D01*
X139433308Y-75199635D01*
X139660000Y-75219468D01*
X139886692Y-75199635D01*
X140106496Y-75140739D01*
X140312734Y-75044568D01*
X140499139Y-74914047D01*
X140660047Y-74753139D01*
X140790568Y-74566734D01*
X140795118Y-74556975D01*
X140838160Y-74506580D01*
X140901010Y-74485551D01*
X140965715Y-74499896D01*
X141013789Y-74545516D01*
X141031500Y-74609381D01*
X141031500Y-81058383D01*
X141015953Y-81118500D01*
X140973210Y-81163541D01*
X140913989Y-81182213D01*
X140853141Y-81169833D01*
X140805925Y-81129506D01*
X140759025Y-81062526D01*
X140033553Y-81788000D01*
X140033553Y-81788001D01*
X140759025Y-82513472D01*
X140805925Y-82446493D01*
X140853142Y-82406166D01*
X140913990Y-82393787D01*
X140973210Y-82412459D01*
X141015953Y-82457501D01*
X141031500Y-82517617D01*
X141031500Y-82970482D01*
X141022061Y-83017935D01*
X140995181Y-83058163D01*
X138644681Y-85408662D01*
X138589094Y-85440756D01*
X138524906Y-85440756D01*
X138469319Y-85408662D01*
X135356819Y-82296162D01*
X135329939Y-82255934D01*
X135320500Y-82208481D01*
X135320500Y-81787999D01*
X135874531Y-81787999D01*
X135894364Y-82014689D01*
X135953261Y-82234497D01*
X136049432Y-82440735D01*
X136179953Y-82627140D01*
X136340859Y-82788046D01*
X136527264Y-82918567D01*
X136527265Y-82918567D01*
X136527266Y-82918568D01*
X136733504Y-83014739D01*
X136953308Y-83073635D01*
X137180000Y-83093468D01*
X137406692Y-83073635D01*
X137626496Y-83014739D01*
X137832734Y-82918568D01*
X137906344Y-82867026D01*
X138954526Y-82867026D01*
X139027515Y-82918133D01*
X139233673Y-83014266D01*
X139453397Y-83073141D01*
X139680000Y-83092966D01*
X139906602Y-83073141D01*
X140126326Y-83014266D01*
X140332480Y-82918134D01*
X140405472Y-82867025D01*
X139680001Y-82141553D01*
X139680000Y-82141553D01*
X138954526Y-82867025D01*
X138954526Y-82867026D01*
X137906344Y-82867026D01*
X138019139Y-82788047D01*
X138180047Y-82627139D01*
X138310568Y-82440734D01*
X138317893Y-82425023D01*
X138363647Y-82372849D01*
X138430273Y-82353428D01*
X138496899Y-82372847D01*
X138542657Y-82425023D01*
X138549866Y-82440483D01*
X138600972Y-82513471D01*
X138600974Y-82513472D01*
X139326446Y-81788001D01*
X139326446Y-81788000D01*
X138600973Y-81062526D01*
X138600973Y-81062527D01*
X138549865Y-81135517D01*
X138542656Y-81150977D01*
X138496899Y-81203151D01*
X138430274Y-81222570D01*
X138363649Y-81203150D01*
X138317893Y-81150975D01*
X138310567Y-81135264D01*
X138180046Y-80948859D01*
X138019140Y-80787953D01*
X137906344Y-80708973D01*
X138954526Y-80708973D01*
X139680000Y-81434446D01*
X139680001Y-81434446D01*
X140405472Y-80708974D01*
X140405471Y-80708972D01*
X140332484Y-80657866D01*
X140126326Y-80561733D01*
X139906602Y-80502858D01*
X139680000Y-80483033D01*
X139453397Y-80502858D01*
X139233672Y-80561733D01*
X139027516Y-80657865D01*
X138954527Y-80708973D01*
X138954526Y-80708973D01*
X137906344Y-80708973D01*
X137832735Y-80657432D01*
X137626497Y-80561261D01*
X137406689Y-80502364D01*
X137180000Y-80482531D01*
X136953310Y-80502364D01*
X136733502Y-80561261D01*
X136527264Y-80657432D01*
X136340859Y-80787953D01*
X136179953Y-80948859D01*
X136049432Y-81135264D01*
X135953261Y-81341502D01*
X135894364Y-81561310D01*
X135874531Y-81787999D01*
X135320500Y-81787999D01*
X135320500Y-70024047D01*
X135329939Y-69976594D01*
X135356819Y-69936366D01*
X135915028Y-69378157D01*
X137637731Y-67655452D01*
X137643151Y-67650350D01*
X137688183Y-67610457D01*
X137722358Y-67560944D01*
X137726779Y-67554935D01*
X137763877Y-67507585D01*
X137768033Y-67498348D01*
X137779058Y-67478801D01*
X137784818Y-67470458D01*
X137806154Y-67414196D01*
X137809014Y-67407294D01*
X137833694Y-67352460D01*
X137835519Y-67342499D01*
X137841545Y-67320876D01*
X137845140Y-67311400D01*
X137852389Y-67251693D01*
X137853516Y-67244290D01*
X137864357Y-67185134D01*
X137860726Y-67125106D01*
X137860500Y-67117619D01*
X137860500Y-66745211D01*
X137874511Y-66687954D01*
X137913377Y-66643636D01*
X138031401Y-66560995D01*
X138198495Y-66393901D01*
X138328426Y-66208339D01*
X138372743Y-66169475D01*
X138430000Y-66155464D01*
X138487257Y-66169475D01*
G37*
G04 #@! TD.AperFunction*
G04 #@! TA.AperFunction,Conductor*
G36*
X155937500Y-51017113D02*
G01*
X155982887Y-51062500D01*
X155999500Y-51124500D01*
X155999500Y-115875500D01*
X155982887Y-115937500D01*
X155937500Y-115982887D01*
X155875500Y-115999500D01*
X121124500Y-115999500D01*
X121062500Y-115982887D01*
X121017113Y-115937500D01*
X121000500Y-115875500D01*
X121000500Y-111125000D01*
X122424651Y-111125000D01*
X122444027Y-111482364D01*
X122501930Y-111835559D01*
X122597674Y-112180401D01*
X122730146Y-112512881D01*
X122897786Y-112829080D01*
X122897789Y-112829085D01*
X122937093Y-112887054D01*
X123098636Y-113125313D01*
X123330332Y-113398086D01*
X123590161Y-113644210D01*
X123875080Y-113860799D01*
X123875081Y-113860800D01*
X124181747Y-114045315D01*
X124506565Y-114195591D01*
X124845726Y-114309868D01*
X125195254Y-114386805D01*
X125516151Y-114421704D01*
X125551051Y-114425500D01*
X125551052Y-114425500D01*
X125908948Y-114425500D01*
X125908949Y-114425500D01*
X125940730Y-114422043D01*
X126264746Y-114386805D01*
X126614274Y-114309868D01*
X126953435Y-114195591D01*
X127278253Y-114045315D01*
X127584919Y-113860800D01*
X127869837Y-113644211D01*
X128129668Y-113398086D01*
X128361365Y-113125311D01*
X128562211Y-112829085D01*
X128671062Y-112623771D01*
X128729853Y-112512881D01*
X128862325Y-112180401D01*
X128958069Y-111835559D01*
X128958068Y-111835559D01*
X128958071Y-111835552D01*
X129015972Y-111482371D01*
X129035348Y-111125000D01*
X129015972Y-110767629D01*
X128958071Y-110414448D01*
X128958069Y-110414440D01*
X128862325Y-110069598D01*
X128729853Y-109737118D01*
X128562213Y-109420919D01*
X128562211Y-109420915D01*
X128361365Y-109124689D01*
X128361363Y-109124686D01*
X128129667Y-108851913D01*
X127869838Y-108605789D01*
X127584918Y-108389199D01*
X127278250Y-108204683D01*
X126953439Y-108054411D01*
X126953440Y-108054411D01*
X126953435Y-108054409D01*
X126614274Y-107940132D01*
X126614273Y-107940131D01*
X126614271Y-107940131D01*
X126392037Y-107891214D01*
X126264746Y-107863195D01*
X126086847Y-107843847D01*
X125908949Y-107824500D01*
X125908948Y-107824500D01*
X125551052Y-107824500D01*
X125551051Y-107824500D01*
X125195254Y-107863195D01*
X124845728Y-107940131D01*
X124673283Y-107998234D01*
X124506565Y-108054409D01*
X124506562Y-108054410D01*
X124506560Y-108054411D01*
X124181749Y-108204683D01*
X123875081Y-108389199D01*
X123590161Y-108605789D01*
X123330332Y-108851913D01*
X123098636Y-109124686D01*
X122897786Y-109420919D01*
X122730146Y-109737118D01*
X122597674Y-110069598D01*
X122501930Y-110414440D01*
X122444027Y-110767635D01*
X122424651Y-111125000D01*
X121000500Y-111125000D01*
X121000500Y-103628000D01*
X122494364Y-103628000D01*
X122551569Y-103841492D01*
X122651399Y-104055576D01*
X122786893Y-104249081D01*
X122953918Y-104416106D01*
X123147423Y-104551600D01*
X123361507Y-104651430D01*
X123574999Y-104708635D01*
X123575000Y-104708636D01*
X123575000Y-103628000D01*
X124075000Y-103628000D01*
X124075000Y-104708635D01*
X124288492Y-104651430D01*
X124502576Y-104551600D01*
X124696081Y-104416106D01*
X124863106Y-104249081D01*
X124998600Y-104055576D01*
X125098430Y-103841492D01*
X125155636Y-103628000D01*
X124075000Y-103628000D01*
X123575000Y-103628000D01*
X122494364Y-103628000D01*
X121000500Y-103628000D01*
X121000500Y-100838000D01*
X122469340Y-100838000D01*
X122489936Y-101073407D01*
X122502014Y-101118481D01*
X122551097Y-101301663D01*
X122650965Y-101515830D01*
X122786505Y-101709401D01*
X122953599Y-101876495D01*
X123139597Y-102006732D01*
X123178460Y-102051048D01*
X123192471Y-102108305D01*
X123178461Y-102165561D01*
X123139595Y-102209880D01*
X122953919Y-102339892D01*
X122786890Y-102506921D01*
X122651400Y-102700421D01*
X122551569Y-102914507D01*
X122494364Y-103127999D01*
X122494364Y-103128000D01*
X125155636Y-103128000D01*
X125155635Y-103127999D01*
X125098430Y-102914507D01*
X124998599Y-102700421D01*
X124863109Y-102506921D01*
X124696081Y-102339893D01*
X124510404Y-102209880D01*
X124471539Y-102165562D01*
X124457528Y-102108305D01*
X124471539Y-102051048D01*
X124510402Y-102006732D01*
X124696401Y-101876495D01*
X124863495Y-101709401D01*
X124999035Y-101515830D01*
X125098903Y-101301663D01*
X125160063Y-101073408D01*
X125180659Y-100838000D01*
X125160063Y-100602592D01*
X125098903Y-100374337D01*
X124999035Y-100160171D01*
X124863495Y-99966599D01*
X124696401Y-99799505D01*
X124510839Y-99669573D01*
X124471975Y-99625257D01*
X124457964Y-99568000D01*
X124471975Y-99510743D01*
X124510839Y-99466426D01*
X124696401Y-99336495D01*
X124863495Y-99169401D01*
X124946136Y-99051376D01*
X124990454Y-99012511D01*
X125047711Y-98998500D01*
X129706481Y-98998500D01*
X129753934Y-99007939D01*
X129794162Y-99034819D01*
X130073181Y-99313838D01*
X130100061Y-99354066D01*
X130109500Y-99401519D01*
X130109500Y-112497079D01*
X130109274Y-112504566D01*
X130105641Y-112564607D01*
X130116483Y-112623771D01*
X130117610Y-112631172D01*
X130124860Y-112690873D01*
X130128450Y-112700339D01*
X130134475Y-112721952D01*
X130136303Y-112731929D01*
X130160991Y-112786783D01*
X130163856Y-112793701D01*
X130177274Y-112829080D01*
X130185182Y-112849930D01*
X130190941Y-112858273D01*
X130201961Y-112877813D01*
X130206120Y-112887054D01*
X130243216Y-112934405D01*
X130247651Y-112940432D01*
X130281817Y-112989929D01*
X130326847Y-113029822D01*
X130332283Y-113034940D01*
X131300710Y-114003367D01*
X131821051Y-114523707D01*
X131826171Y-114529145D01*
X131866071Y-114574183D01*
X131915565Y-114608346D01*
X131915577Y-114608354D01*
X131921603Y-114612788D01*
X131968943Y-114649877D01*
X131978178Y-114654033D01*
X131997726Y-114665058D01*
X132006070Y-114670818D01*
X132062322Y-114692151D01*
X132069228Y-114695012D01*
X132124068Y-114719694D01*
X132134030Y-114721519D01*
X132155650Y-114727546D01*
X132165125Y-114731139D01*
X132165128Y-114731140D01*
X132224856Y-114738392D01*
X132232201Y-114739509D01*
X132291394Y-114750357D01*
X132351421Y-114746726D01*
X132358909Y-114746500D01*
X134831628Y-114746500D01*
X134916372Y-114746500D01*
X136373079Y-114746500D01*
X136380566Y-114746726D01*
X136383706Y-114746915D01*
X136440606Y-114750358D01*
X136499782Y-114739513D01*
X136507181Y-114738387D01*
X136566872Y-114731140D01*
X136576335Y-114727550D01*
X136597958Y-114721522D01*
X136607932Y-114719695D01*
X136662808Y-114694996D01*
X136669673Y-114692152D01*
X136725930Y-114670818D01*
X136734270Y-114665060D01*
X136753819Y-114654035D01*
X136763057Y-114649878D01*
X136810413Y-114612775D01*
X136816423Y-114608354D01*
X136865929Y-114574183D01*
X136905823Y-114529150D01*
X136910924Y-114523731D01*
X137939290Y-113495367D01*
X137939290Y-113495366D01*
X139161731Y-112272924D01*
X139167150Y-112267823D01*
X139212183Y-112227929D01*
X139246351Y-112178426D01*
X139250763Y-112172428D01*
X139287878Y-112125057D01*
X139292034Y-112115820D01*
X139303062Y-112096267D01*
X139308818Y-112087930D01*
X139330153Y-112031671D01*
X139332997Y-112024803D01*
X139357694Y-111969932D01*
X139359519Y-111959970D01*
X139365545Y-111938348D01*
X139369140Y-111928872D01*
X139376389Y-111869165D01*
X139377516Y-111861762D01*
X139382087Y-111836819D01*
X139388357Y-111802606D01*
X139384726Y-111742577D01*
X139384500Y-111735090D01*
X139384500Y-111248000D01*
X140956128Y-111248000D01*
X141008733Y-111444326D01*
X141104865Y-111650480D01*
X141235341Y-111836819D01*
X141396180Y-111997658D01*
X141582519Y-112128134D01*
X141788673Y-112224266D01*
X141984999Y-112276871D01*
X141985000Y-112276872D01*
X141985000Y-111248000D01*
X142485000Y-111248000D01*
X142485000Y-112276871D01*
X142681326Y-112224266D01*
X142887480Y-112128134D01*
X143073819Y-111997658D01*
X143234658Y-111836819D01*
X143365134Y-111650480D01*
X143461266Y-111444326D01*
X143513872Y-111248000D01*
X142485000Y-111248000D01*
X141985000Y-111248000D01*
X140956128Y-111248000D01*
X139384500Y-111248000D01*
X139384500Y-111125000D01*
X147824651Y-111125000D01*
X147844027Y-111482364D01*
X147901930Y-111835559D01*
X147997674Y-112180401D01*
X148130146Y-112512881D01*
X148297786Y-112829080D01*
X148297789Y-112829085D01*
X148337093Y-112887054D01*
X148498636Y-113125313D01*
X148730332Y-113398086D01*
X148990161Y-113644210D01*
X149275080Y-113860799D01*
X149275081Y-113860800D01*
X149581747Y-114045315D01*
X149906565Y-114195591D01*
X150245726Y-114309868D01*
X150595254Y-114386805D01*
X150916151Y-114421704D01*
X150951051Y-114425500D01*
X150951052Y-114425500D01*
X151308948Y-114425500D01*
X151308949Y-114425500D01*
X151340730Y-114422043D01*
X151664746Y-114386805D01*
X152014274Y-114309868D01*
X152353435Y-114195591D01*
X152678253Y-114045315D01*
X152984919Y-113860800D01*
X153269837Y-113644211D01*
X153529668Y-113398086D01*
X153761365Y-113125311D01*
X153962211Y-112829085D01*
X154071062Y-112623771D01*
X154129853Y-112512881D01*
X154262325Y-112180401D01*
X154358069Y-111835559D01*
X154358068Y-111835559D01*
X154358071Y-111835552D01*
X154415972Y-111482371D01*
X154435348Y-111125000D01*
X154415972Y-110767629D01*
X154358071Y-110414448D01*
X154358069Y-110414440D01*
X154262325Y-110069598D01*
X154129853Y-109737118D01*
X153962213Y-109420919D01*
X153962211Y-109420915D01*
X153761365Y-109124689D01*
X153761363Y-109124686D01*
X153529667Y-108851913D01*
X153269838Y-108605789D01*
X152984918Y-108389199D01*
X152678250Y-108204683D01*
X152353439Y-108054411D01*
X152353440Y-108054411D01*
X152353435Y-108054409D01*
X152014274Y-107940132D01*
X152014273Y-107940131D01*
X152014271Y-107940131D01*
X151792037Y-107891214D01*
X151664746Y-107863195D01*
X151486847Y-107843847D01*
X151308949Y-107824500D01*
X151308948Y-107824500D01*
X150951052Y-107824500D01*
X150951051Y-107824500D01*
X150595254Y-107863195D01*
X150245728Y-107940131D01*
X150073283Y-107998234D01*
X149906565Y-108054409D01*
X149906562Y-108054410D01*
X149906560Y-108054411D01*
X149581749Y-108204683D01*
X149275081Y-108389199D01*
X148990161Y-108605789D01*
X148730332Y-108851913D01*
X148498636Y-109124686D01*
X148297786Y-109420919D01*
X148130146Y-109737118D01*
X147997674Y-110069598D01*
X147901930Y-110414440D01*
X147844027Y-110767635D01*
X147824651Y-111125000D01*
X139384500Y-111125000D01*
X139384500Y-110831519D01*
X139393939Y-110784067D01*
X139420816Y-110743840D01*
X139645292Y-110519363D01*
X139692013Y-110490007D01*
X139795522Y-110453789D01*
X139948262Y-110357816D01*
X140075816Y-110230262D01*
X140171789Y-110077522D01*
X140231368Y-109907255D01*
X140251565Y-109728000D01*
X140231368Y-109548745D01*
X140171789Y-109378478D01*
X140162027Y-109362942D01*
X140152935Y-109348471D01*
X140133978Y-109285977D01*
X140149401Y-109222519D01*
X140194928Y-109175697D01*
X140257929Y-109158500D01*
X141073327Y-109158500D01*
X141130584Y-109172511D01*
X141174902Y-109211377D01*
X141234953Y-109297140D01*
X141395859Y-109458046D01*
X141582264Y-109588567D01*
X141582265Y-109588567D01*
X141582266Y-109588568D01*
X141640865Y-109615893D01*
X141693040Y-109661650D01*
X141712460Y-109728274D01*
X141693041Y-109794899D01*
X141640866Y-109840656D01*
X141582522Y-109867863D01*
X141396180Y-109998341D01*
X141235341Y-110159180D01*
X141104865Y-110345519D01*
X141008733Y-110551673D01*
X140956128Y-110747999D01*
X140956128Y-110748000D01*
X143513872Y-110748000D01*
X143513871Y-110747999D01*
X143461266Y-110551673D01*
X143365134Y-110345519D01*
X143234658Y-110159180D01*
X143073819Y-109998341D01*
X142887482Y-109867866D01*
X142829133Y-109840657D01*
X142776958Y-109794899D01*
X142757539Y-109728274D01*
X142776959Y-109661649D01*
X142829134Y-109615893D01*
X142887734Y-109588568D01*
X143074139Y-109458047D01*
X143235047Y-109297139D01*
X143295098Y-109211377D01*
X143339416Y-109172511D01*
X143396673Y-109158500D01*
X145009079Y-109158500D01*
X145016566Y-109158726D01*
X145019706Y-109158915D01*
X145076606Y-109162358D01*
X145135782Y-109151513D01*
X145143181Y-109150387D01*
X145202872Y-109143140D01*
X145212335Y-109139550D01*
X145233958Y-109133522D01*
X145243932Y-109131695D01*
X145298808Y-109106996D01*
X145305673Y-109104152D01*
X145361930Y-109082818D01*
X145370270Y-109077060D01*
X145389819Y-109066035D01*
X145399057Y-109061878D01*
X145446413Y-109024775D01*
X145452420Y-109020355D01*
X145501929Y-108986183D01*
X145541823Y-108941150D01*
X145546924Y-108935731D01*
X146527731Y-107954924D01*
X146533150Y-107949823D01*
X146578183Y-107909929D01*
X146612355Y-107860420D01*
X146616775Y-107854413D01*
X146653878Y-107807057D01*
X146658035Y-107797819D01*
X146669060Y-107778270D01*
X146674818Y-107769930D01*
X146696152Y-107713673D01*
X146698996Y-107706808D01*
X146723695Y-107651932D01*
X146725522Y-107641958D01*
X146731552Y-107620331D01*
X146732111Y-107618859D01*
X146735140Y-107610872D01*
X146742387Y-107551181D01*
X146743514Y-107543778D01*
X146754358Y-107484606D01*
X146750726Y-107424566D01*
X146750500Y-107417079D01*
X146750500Y-106841308D01*
X146764870Y-106783367D01*
X146804648Y-106738854D01*
X146860616Y-106718088D01*
X146938084Y-106709358D01*
X146991255Y-106703368D01*
X147161522Y-106643789D01*
X147314262Y-106547816D01*
X147441816Y-106420262D01*
X147537789Y-106267522D01*
X147574007Y-106164013D01*
X147603365Y-106117290D01*
X148051731Y-105668924D01*
X148057150Y-105663823D01*
X148102183Y-105623929D01*
X148136377Y-105574389D01*
X148140770Y-105568419D01*
X148177878Y-105521056D01*
X148182035Y-105511818D01*
X148193061Y-105492268D01*
X148198818Y-105483930D01*
X148220152Y-105427674D01*
X148222994Y-105420811D01*
X148247695Y-105365931D01*
X148249522Y-105355956D01*
X148255549Y-105334339D01*
X148259140Y-105324872D01*
X148266387Y-105265179D01*
X148267514Y-105257777D01*
X148278358Y-105198606D01*
X148274726Y-105138566D01*
X148274500Y-105131079D01*
X148274500Y-103628000D01*
X151704364Y-103628000D01*
X151761569Y-103841492D01*
X151861399Y-104055576D01*
X151996893Y-104249081D01*
X152163918Y-104416106D01*
X152357423Y-104551600D01*
X152571507Y-104651430D01*
X152784999Y-104708635D01*
X152785000Y-104708636D01*
X152785000Y-103628000D01*
X153285000Y-103628000D01*
X153285000Y-104708635D01*
X153498492Y-104651430D01*
X153712576Y-104551600D01*
X153906081Y-104416106D01*
X154073106Y-104249081D01*
X154208600Y-104055576D01*
X154308430Y-103841492D01*
X154365636Y-103628000D01*
X153285000Y-103628000D01*
X152785000Y-103628000D01*
X151704364Y-103628000D01*
X148274500Y-103628000D01*
X148274500Y-100417519D01*
X148283939Y-100370066D01*
X148310819Y-100329838D01*
X149605838Y-99034819D01*
X149646066Y-99007939D01*
X149693519Y-98998500D01*
X151812289Y-98998500D01*
X151869546Y-99012511D01*
X151913863Y-99051376D01*
X151996505Y-99169401D01*
X152163599Y-99336495D01*
X152349160Y-99466426D01*
X152388024Y-99510743D01*
X152402035Y-99568000D01*
X152388024Y-99625257D01*
X152349159Y-99669575D01*
X152163595Y-99799508D01*
X151996505Y-99966598D01*
X151860965Y-100160170D01*
X151761097Y-100374336D01*
X151699936Y-100602592D01*
X151679340Y-100838000D01*
X151699936Y-101073407D01*
X151712014Y-101118481D01*
X151761097Y-101301663D01*
X151860965Y-101515830D01*
X151996505Y-101709401D01*
X152163599Y-101876495D01*
X152349597Y-102006732D01*
X152388460Y-102051048D01*
X152402471Y-102108305D01*
X152388461Y-102165561D01*
X152349595Y-102209880D01*
X152163919Y-102339892D01*
X151996890Y-102506921D01*
X151861400Y-102700421D01*
X151761569Y-102914507D01*
X151704364Y-103127999D01*
X151704364Y-103128000D01*
X154365636Y-103128000D01*
X154365635Y-103127999D01*
X154308430Y-102914507D01*
X154208599Y-102700421D01*
X154073109Y-102506921D01*
X153906081Y-102339893D01*
X153720404Y-102209880D01*
X153681539Y-102165562D01*
X153667528Y-102108305D01*
X153681539Y-102051048D01*
X153720402Y-102006732D01*
X153906401Y-101876495D01*
X154073495Y-101709401D01*
X154209035Y-101515830D01*
X154308903Y-101301663D01*
X154370063Y-101073408D01*
X154390659Y-100838000D01*
X154370063Y-100602592D01*
X154308903Y-100374337D01*
X154209035Y-100160171D01*
X154073495Y-99966599D01*
X153906401Y-99799505D01*
X153720839Y-99669573D01*
X153681975Y-99625257D01*
X153667964Y-99568000D01*
X153681975Y-99510743D01*
X153720839Y-99466426D01*
X153906401Y-99336495D01*
X154073495Y-99169401D01*
X154209035Y-98975830D01*
X154308903Y-98761663D01*
X154370063Y-98533408D01*
X154390659Y-98298000D01*
X154380942Y-98186942D01*
X154370063Y-98062592D01*
X154363755Y-98039051D01*
X154308903Y-97834337D01*
X154209035Y-97620171D01*
X154073495Y-97426599D01*
X153906401Y-97259505D01*
X153720839Y-97129573D01*
X153681974Y-97085255D01*
X153667964Y-97027999D01*
X153681975Y-96970742D01*
X153720837Y-96926428D01*
X153906401Y-96796495D01*
X154073495Y-96629401D01*
X154209035Y-96435830D01*
X154308903Y-96221663D01*
X154370063Y-95993408D01*
X154390659Y-95758000D01*
X154370063Y-95522592D01*
X154308903Y-95294337D01*
X154209035Y-95080171D01*
X154073495Y-94886599D01*
X153906401Y-94719505D01*
X153720839Y-94589573D01*
X153681975Y-94545257D01*
X153667964Y-94488000D01*
X153681975Y-94430743D01*
X153720839Y-94386426D01*
X153906401Y-94256495D01*
X154073495Y-94089401D01*
X154209035Y-93895830D01*
X154308903Y-93681663D01*
X154370063Y-93453408D01*
X154390659Y-93218000D01*
X154370063Y-92982592D01*
X154308903Y-92754337D01*
X154209035Y-92540171D01*
X154073495Y-92346599D01*
X153906401Y-92179505D01*
X153720839Y-92049573D01*
X153681975Y-92005257D01*
X153667964Y-91948000D01*
X153681975Y-91890743D01*
X153720839Y-91846426D01*
X153906401Y-91716495D01*
X154073495Y-91549401D01*
X154209035Y-91355830D01*
X154308903Y-91141663D01*
X154370063Y-90913408D01*
X154390659Y-90678000D01*
X154370063Y-90442592D01*
X154308903Y-90214337D01*
X154209035Y-90000171D01*
X154073495Y-89806599D01*
X153951569Y-89684673D01*
X153920273Y-89631927D01*
X153918084Y-89570634D01*
X153945537Y-89515789D01*
X153995916Y-89480810D01*
X154127331Y-89431796D01*
X154242546Y-89345546D01*
X154328796Y-89230331D01*
X154379091Y-89095483D01*
X154385500Y-89035873D01*
X154385499Y-87240128D01*
X154379091Y-87180517D01*
X154328796Y-87045669D01*
X154242546Y-86930454D01*
X154127331Y-86844204D01*
X153992483Y-86793909D01*
X153932873Y-86787500D01*
X153932869Y-86787500D01*
X152137130Y-86787500D01*
X152077515Y-86793909D01*
X151942669Y-86844204D01*
X151827454Y-86930454D01*
X151741204Y-87045668D01*
X151690909Y-87180515D01*
X151690909Y-87180517D01*
X151685534Y-87230516D01*
X151684500Y-87240130D01*
X151684500Y-89035869D01*
X151685018Y-89040686D01*
X151690909Y-89095483D01*
X151741204Y-89230331D01*
X151827454Y-89345546D01*
X151942669Y-89431796D01*
X152054907Y-89473658D01*
X152074082Y-89480810D01*
X152124462Y-89515789D01*
X152151915Y-89570634D01*
X152149726Y-89631926D01*
X152118431Y-89684673D01*
X151996503Y-89806601D01*
X151913864Y-89924623D01*
X151869546Y-89963489D01*
X151812289Y-89977500D01*
X149122909Y-89977500D01*
X149115422Y-89977274D01*
X149055391Y-89973642D01*
X148996242Y-89984481D01*
X148988843Y-89985608D01*
X148929122Y-89992860D01*
X148919641Y-89996456D01*
X148898036Y-90002479D01*
X148888069Y-90004305D01*
X148833234Y-90028984D01*
X148826318Y-90031848D01*
X148770069Y-90053181D01*
X148761725Y-90058941D01*
X148742183Y-90069963D01*
X148732944Y-90074121D01*
X148685594Y-90111216D01*
X148679566Y-90115652D01*
X148630067Y-90149819D01*
X148590183Y-90194838D01*
X148585051Y-90200290D01*
X146304162Y-92481181D01*
X146263934Y-92508061D01*
X146216481Y-92517500D01*
X143396673Y-92517500D01*
X143339416Y-92503489D01*
X143295098Y-92464623D01*
X143235046Y-92378859D01*
X143074140Y-92217953D01*
X142887736Y-92087433D01*
X142829725Y-92060382D01*
X142829132Y-92060105D01*
X142776958Y-92014348D01*
X142757539Y-91947723D01*
X142776959Y-91881098D01*
X142829135Y-91835342D01*
X142887479Y-91808135D01*
X143073819Y-91677658D01*
X143234658Y-91516819D01*
X143365134Y-91330480D01*
X143461266Y-91124326D01*
X143513872Y-90928000D01*
X142109000Y-90928000D01*
X142047000Y-90911387D01*
X142001613Y-90866000D01*
X141985000Y-90804000D01*
X141985000Y-90552000D01*
X142001613Y-90490000D01*
X142047000Y-90444613D01*
X142109000Y-90428000D01*
X143513872Y-90428000D01*
X143513871Y-90427999D01*
X143461266Y-90231673D01*
X143365134Y-90025519D01*
X143234658Y-89839180D01*
X143073819Y-89678341D01*
X142887482Y-89547866D01*
X142829133Y-89520657D01*
X142776958Y-89474899D01*
X142757539Y-89408274D01*
X142776959Y-89341649D01*
X142829134Y-89295893D01*
X142887734Y-89268568D01*
X143074139Y-89138047D01*
X143235047Y-88977139D01*
X143365568Y-88790734D01*
X143461739Y-88584496D01*
X143520635Y-88364692D01*
X143540468Y-88138000D01*
X143520635Y-87911308D01*
X143461739Y-87691504D01*
X143365568Y-87485266D01*
X143235047Y-87298861D01*
X143235046Y-87298859D01*
X143074140Y-87137953D01*
X142887735Y-87007432D01*
X142681497Y-86911261D01*
X142461689Y-86852364D01*
X142234999Y-86832531D01*
X142040377Y-86849558D01*
X141981119Y-86840172D01*
X141933204Y-86804066D01*
X141907848Y-86749690D01*
X141910988Y-86689776D01*
X141941887Y-86638351D01*
X144009723Y-84570515D01*
X144015142Y-84565413D01*
X144060183Y-84525513D01*
X144094361Y-84475994D01*
X144098790Y-84469978D01*
X144135875Y-84422644D01*
X144135875Y-84422643D01*
X144135878Y-84422640D01*
X144140037Y-84413398D01*
X144151061Y-84393852D01*
X144156818Y-84385514D01*
X144178152Y-84329258D01*
X144180994Y-84322395D01*
X144205695Y-84267515D01*
X144207522Y-84257540D01*
X144213549Y-84235923D01*
X144217140Y-84226456D01*
X144224387Y-84166763D01*
X144225514Y-84159361D01*
X144236358Y-84100190D01*
X144232726Y-84040150D01*
X144232500Y-84032663D01*
X144232500Y-80514000D01*
X149330000Y-80514000D01*
X149330000Y-81611824D01*
X149336402Y-81671375D01*
X149386647Y-81806089D01*
X149472811Y-81921188D01*
X149587910Y-82007352D01*
X149722624Y-82057597D01*
X149782176Y-82064000D01*
X150880000Y-82064000D01*
X150880000Y-80514000D01*
X151380000Y-80514000D01*
X151380000Y-82064000D01*
X152477824Y-82064000D01*
X152537375Y-82057597D01*
X152672089Y-82007352D01*
X152787188Y-81921188D01*
X152873352Y-81806089D01*
X152923597Y-81671375D01*
X152930000Y-81611824D01*
X152930000Y-80514000D01*
X151380000Y-80514000D01*
X150880000Y-80514000D01*
X149330000Y-80514000D01*
X144232500Y-80514000D01*
X144232500Y-80014000D01*
X149330000Y-80014000D01*
X150880000Y-80014000D01*
X150880000Y-78464000D01*
X151380000Y-78464000D01*
X151380000Y-80014000D01*
X152930000Y-80014000D01*
X152930000Y-78916176D01*
X152923597Y-78856624D01*
X152873352Y-78721910D01*
X152787188Y-78606811D01*
X152672089Y-78520647D01*
X152537375Y-78470402D01*
X152477824Y-78464000D01*
X151380000Y-78464000D01*
X150880000Y-78464000D01*
X149782176Y-78464000D01*
X149722624Y-78470402D01*
X149587910Y-78520647D01*
X149472811Y-78606811D01*
X149386647Y-78721910D01*
X149336402Y-78856624D01*
X149330000Y-78916176D01*
X149330000Y-80014000D01*
X144232500Y-80014000D01*
X144232500Y-70002047D01*
X144241939Y-69954594D01*
X144268819Y-69914366D01*
X144993365Y-69189819D01*
X145033593Y-69162939D01*
X145081046Y-69153500D01*
X146406079Y-69153500D01*
X146413566Y-69153726D01*
X146416706Y-69153915D01*
X146473606Y-69157358D01*
X146532782Y-69146513D01*
X146540181Y-69145387D01*
X146599872Y-69138140D01*
X146609335Y-69134550D01*
X146630958Y-69128522D01*
X146640932Y-69126695D01*
X146695808Y-69101996D01*
X146702673Y-69099152D01*
X146758930Y-69077818D01*
X146767270Y-69072060D01*
X146786819Y-69061035D01*
X146796057Y-69056878D01*
X146843413Y-69019775D01*
X146849420Y-69015355D01*
X146898929Y-68981183D01*
X146938823Y-68936150D01*
X146943924Y-68930731D01*
X147797731Y-68076924D01*
X147803150Y-68071823D01*
X147848183Y-68031929D01*
X147882355Y-67982420D01*
X147886775Y-67976413D01*
X147923878Y-67929057D01*
X147928035Y-67919819D01*
X147939060Y-67900270D01*
X147944818Y-67891930D01*
X147966150Y-67835678D01*
X147968999Y-67828800D01*
X147993695Y-67773931D01*
X147995522Y-67763956D01*
X148001549Y-67742339D01*
X148005140Y-67732872D01*
X148012387Y-67673179D01*
X148013514Y-67665777D01*
X148024358Y-67606606D01*
X148020726Y-67546566D01*
X148020500Y-67539079D01*
X148020500Y-66745211D01*
X148034511Y-66687954D01*
X148073377Y-66643636D01*
X148191401Y-66560995D01*
X148358495Y-66393901D01*
X148494035Y-66200330D01*
X148593903Y-65986163D01*
X148655063Y-65757908D01*
X148675659Y-65522500D01*
X148655063Y-65287092D01*
X148593903Y-65058837D01*
X148494035Y-64844671D01*
X148358495Y-64651099D01*
X148191401Y-64484005D01*
X148005839Y-64354073D01*
X147966974Y-64309756D01*
X147952964Y-64252497D01*
X147966977Y-64195239D01*
X148005843Y-64150924D01*
X148020841Y-64140422D01*
X148054676Y-64123738D01*
X148091961Y-64118000D01*
X149582799Y-64118000D01*
X149630252Y-64127439D01*
X149670480Y-64154319D01*
X149958181Y-64442021D01*
X149985061Y-64482249D01*
X149994500Y-64529702D01*
X149994500Y-73727320D01*
X149984154Y-73776907D01*
X149954842Y-73818216D01*
X149935537Y-73836130D01*
X149806439Y-73955915D01*
X149638184Y-74166899D01*
X149503257Y-74400601D01*
X149404666Y-74651804D01*
X149344616Y-74914899D01*
X149324450Y-75183999D01*
X149344616Y-75453100D01*
X149344617Y-75453103D01*
X149404666Y-75716195D01*
X149503257Y-75967398D01*
X149638185Y-76201102D01*
X149806439Y-76412085D01*
X150004259Y-76595635D01*
X150227226Y-76747651D01*
X150470359Y-76864738D01*
X150728228Y-76944280D01*
X150995071Y-76984500D01*
X151264929Y-76984500D01*
X151531772Y-76944280D01*
X151789641Y-76864738D01*
X152032775Y-76747651D01*
X152255741Y-76595635D01*
X152453561Y-76412085D01*
X152621815Y-76201102D01*
X152756743Y-75967398D01*
X152855334Y-75716195D01*
X152915383Y-75453103D01*
X152935549Y-75184000D01*
X152915383Y-74914897D01*
X152855334Y-74651805D01*
X152756743Y-74400602D01*
X152621815Y-74166898D01*
X152453561Y-73955915D01*
X152305157Y-73818216D01*
X152275846Y-73776907D01*
X152265500Y-73727320D01*
X152265500Y-64113161D01*
X152267217Y-64092596D01*
X152267759Y-64089372D01*
X152265535Y-63995952D01*
X152265500Y-63993001D01*
X152265500Y-63953916D01*
X152265500Y-63953909D01*
X152264632Y-63944821D01*
X152264108Y-63936026D01*
X152262598Y-63872581D01*
X152255498Y-63839946D01*
X152253228Y-63825382D01*
X152250052Y-63792130D01*
X152250052Y-63792128D01*
X152232174Y-63731243D01*
X152229986Y-63722668D01*
X152216502Y-63660684D01*
X152203355Y-63629983D01*
X152198370Y-63616117D01*
X152188957Y-63584058D01*
X152159886Y-63527669D01*
X152156113Y-63519661D01*
X152131137Y-63461336D01*
X152112418Y-63433681D01*
X152104897Y-63421006D01*
X152089588Y-63391310D01*
X152050368Y-63341439D01*
X152045149Y-63334291D01*
X152009588Y-63281749D01*
X151985974Y-63258135D01*
X151976184Y-63247105D01*
X151955538Y-63220851D01*
X151907581Y-63179296D01*
X151901103Y-63173264D01*
X150981777Y-62253937D01*
X150968453Y-62238186D01*
X150966557Y-62235523D01*
X150898931Y-62171042D01*
X150896820Y-62168980D01*
X150869172Y-62141332D01*
X150862146Y-62135531D01*
X150855525Y-62129655D01*
X150809611Y-62085875D01*
X150781519Y-62067821D01*
X150769614Y-62059128D01*
X150743852Y-62037859D01*
X150688163Y-62007450D01*
X150680551Y-62002934D01*
X150627183Y-61968637D01*
X150596174Y-61956222D01*
X150582838Y-61949938D01*
X150553526Y-61933933D01*
X150521021Y-61923542D01*
X150493077Y-61914609D01*
X150484756Y-61911617D01*
X150425863Y-61888040D01*
X150397176Y-61882511D01*
X150393058Y-61881717D01*
X150378779Y-61878072D01*
X150361521Y-61872555D01*
X150346967Y-61867903D01*
X150283966Y-61860370D01*
X150275222Y-61859006D01*
X150212928Y-61847000D01*
X150212927Y-61847000D01*
X150179528Y-61847000D01*
X150164808Y-61846123D01*
X150157782Y-61845283D01*
X150131643Y-61842157D01*
X150068362Y-61846684D01*
X150059516Y-61847000D01*
X148091961Y-61847000D01*
X148054674Y-61841261D01*
X148020838Y-61824575D01*
X147997831Y-61808465D01*
X147890746Y-61758530D01*
X147783663Y-61708597D01*
X147722502Y-61692209D01*
X147555407Y-61647436D01*
X147320000Y-61626840D01*
X147084592Y-61647436D01*
X146856336Y-61708597D01*
X146642169Y-61808465D01*
X146619163Y-61824575D01*
X146585327Y-61841261D01*
X146548040Y-61847000D01*
X145551961Y-61847000D01*
X145514674Y-61841261D01*
X145480838Y-61824575D01*
X145457831Y-61808465D01*
X145350746Y-61758530D01*
X145243663Y-61708597D01*
X145182502Y-61692209D01*
X145015407Y-61647436D01*
X144780000Y-61626840D01*
X144544592Y-61647436D01*
X144316336Y-61708597D01*
X144102169Y-61808465D01*
X144079163Y-61824575D01*
X144045327Y-61841261D01*
X144008040Y-61847000D01*
X143011961Y-61847000D01*
X142974674Y-61841261D01*
X142940838Y-61824575D01*
X142917831Y-61808465D01*
X142810746Y-61758530D01*
X142703663Y-61708597D01*
X142642502Y-61692209D01*
X142475407Y-61647436D01*
X142240000Y-61626840D01*
X142004592Y-61647436D01*
X141776336Y-61708597D01*
X141562169Y-61808465D01*
X141539163Y-61824575D01*
X141505327Y-61841261D01*
X141468040Y-61847000D01*
X140471961Y-61847000D01*
X140434674Y-61841261D01*
X140400838Y-61824575D01*
X140377831Y-61808465D01*
X140270746Y-61758530D01*
X140163663Y-61708597D01*
X140102502Y-61692209D01*
X139935407Y-61647436D01*
X139700000Y-61626840D01*
X139464592Y-61647436D01*
X139236336Y-61708597D01*
X139022169Y-61808465D01*
X138999163Y-61824575D01*
X138965327Y-61841261D01*
X138928040Y-61847000D01*
X137931961Y-61847000D01*
X137894674Y-61841261D01*
X137860838Y-61824575D01*
X137837831Y-61808465D01*
X137730746Y-61758530D01*
X137623663Y-61708597D01*
X137562502Y-61692209D01*
X137395407Y-61647436D01*
X137160000Y-61626840D01*
X136924592Y-61647436D01*
X136696336Y-61708597D01*
X136482169Y-61808465D01*
X136459163Y-61824575D01*
X136425327Y-61841261D01*
X136388040Y-61847000D01*
X135391961Y-61847000D01*
X135354674Y-61841261D01*
X135320838Y-61824575D01*
X135297831Y-61808465D01*
X135190746Y-61758530D01*
X135083663Y-61708597D01*
X135022502Y-61692209D01*
X134855407Y-61647436D01*
X134620000Y-61626840D01*
X134384592Y-61647436D01*
X134156336Y-61708597D01*
X133942169Y-61808465D01*
X133919163Y-61824575D01*
X133885327Y-61841261D01*
X133848040Y-61847000D01*
X132851961Y-61847000D01*
X132814674Y-61841261D01*
X132780838Y-61824575D01*
X132757831Y-61808465D01*
X132650746Y-61758530D01*
X132543663Y-61708597D01*
X132482502Y-61692209D01*
X132315407Y-61647436D01*
X132080000Y-61626840D01*
X131844592Y-61647436D01*
X131616336Y-61708597D01*
X131402169Y-61808465D01*
X131379163Y-61824575D01*
X131345327Y-61841261D01*
X131308040Y-61847000D01*
X130311961Y-61847000D01*
X130274674Y-61841261D01*
X130240838Y-61824575D01*
X130217831Y-61808465D01*
X130110746Y-61758530D01*
X130003663Y-61708597D01*
X129942502Y-61692209D01*
X129775407Y-61647436D01*
X129540000Y-61626840D01*
X129304592Y-61647436D01*
X129076336Y-61708597D01*
X128862169Y-61808465D01*
X128839163Y-61824575D01*
X128805327Y-61841261D01*
X128768040Y-61847000D01*
X127368662Y-61847000D01*
X127348097Y-61845283D01*
X127344873Y-61844740D01*
X127251452Y-61846965D01*
X127248501Y-61847000D01*
X127209404Y-61847000D01*
X127200338Y-61847865D01*
X127191513Y-61848391D01*
X127128079Y-61849902D01*
X127095441Y-61857001D01*
X127080876Y-61859272D01*
X127047630Y-61862447D01*
X126986743Y-61880324D01*
X126978171Y-61882511D01*
X126916186Y-61895996D01*
X126885484Y-61909143D01*
X126871614Y-61914129D01*
X126839559Y-61923542D01*
X126783154Y-61952620D01*
X126775151Y-61956390D01*
X126716838Y-61981362D01*
X126689176Y-62000084D01*
X126676497Y-62007607D01*
X126646809Y-62022912D01*
X126596934Y-62062134D01*
X126589788Y-62067352D01*
X126537246Y-62102913D01*
X126513625Y-62126533D01*
X126502602Y-62136317D01*
X126476350Y-62156962D01*
X126434795Y-62204918D01*
X126428765Y-62211394D01*
X125255436Y-63384722D01*
X125239693Y-63398041D01*
X125237024Y-63399941D01*
X125172561Y-63467547D01*
X125170504Y-63469653D01*
X125142832Y-63497327D01*
X125137019Y-63504366D01*
X125131157Y-63510970D01*
X125087374Y-63556890D01*
X125069319Y-63584983D01*
X125060629Y-63596885D01*
X125039358Y-63622648D01*
X125008948Y-63678339D01*
X125004434Y-63685947D01*
X124970137Y-63739317D01*
X124957725Y-63770318D01*
X124951444Y-63783651D01*
X124935430Y-63812979D01*
X124916108Y-63873420D01*
X124913116Y-63881743D01*
X124889538Y-63940640D01*
X124883217Y-63973436D01*
X124879573Y-63987716D01*
X124869403Y-64019533D01*
X124861870Y-64082532D01*
X124860506Y-64091275D01*
X124848500Y-64153571D01*
X124848500Y-64186972D01*
X124847623Y-64201694D01*
X124843657Y-64234856D01*
X124848184Y-64298138D01*
X124848500Y-64306984D01*
X124848500Y-73259501D01*
X124831887Y-73321501D01*
X124786500Y-73366888D01*
X124724500Y-73383501D01*
X124636128Y-73383501D01*
X124606322Y-73386704D01*
X124576515Y-73389909D01*
X124441669Y-73440204D01*
X124326454Y-73526454D01*
X124240204Y-73641668D01*
X124189909Y-73776515D01*
X124189909Y-73776517D01*
X124185426Y-73818219D01*
X124183500Y-73836130D01*
X124183500Y-76531869D01*
X124189909Y-76591484D01*
X124215056Y-76658907D01*
X124240204Y-76726331D01*
X124326454Y-76841546D01*
X124441669Y-76927796D01*
X124576517Y-76978091D01*
X124636127Y-76984500D01*
X127331872Y-76984499D01*
X127391483Y-76978091D01*
X127526331Y-76927796D01*
X127641546Y-76841546D01*
X127727796Y-76726331D01*
X127778091Y-76591483D01*
X127784500Y-76531873D01*
X127784499Y-73836128D01*
X127778091Y-73776517D01*
X127727796Y-73641669D01*
X127641546Y-73526454D01*
X127526331Y-73440204D01*
X127391483Y-73389909D01*
X127331873Y-73383500D01*
X127331869Y-73383500D01*
X127243500Y-73383500D01*
X127181500Y-73366887D01*
X127136113Y-73321500D01*
X127119500Y-73259500D01*
X127119500Y-64783701D01*
X127128939Y-64736248D01*
X127155819Y-64696020D01*
X127697521Y-64154319D01*
X127737749Y-64127439D01*
X127785202Y-64118000D01*
X128383769Y-64118000D01*
X128440064Y-64131515D01*
X128484087Y-64169115D01*
X128506242Y-64222602D01*
X128501700Y-64280318D01*
X128471450Y-64329681D01*
X128347288Y-64453842D01*
X128255186Y-64603165D01*
X128200000Y-64769702D01*
X128189500Y-64872490D01*
X128189500Y-66172508D01*
X128200000Y-66275296D01*
X128255186Y-66441834D01*
X128347288Y-66591157D01*
X128471342Y-66715211D01*
X128506223Y-66736726D01*
X128620666Y-66807314D01*
X128744842Y-66848462D01*
X128754505Y-66851664D01*
X128798829Y-66877543D01*
X128828877Y-66919155D01*
X128839500Y-66969370D01*
X128839500Y-67031079D01*
X128839274Y-67038566D01*
X128835641Y-67098607D01*
X128846483Y-67157771D01*
X128847610Y-67165172D01*
X128854860Y-67224873D01*
X128858450Y-67234339D01*
X128864475Y-67255952D01*
X128866303Y-67265929D01*
X128890991Y-67320783D01*
X128893856Y-67327701D01*
X128915180Y-67383926D01*
X128915182Y-67383930D01*
X128920941Y-67392273D01*
X128931961Y-67411813D01*
X128936120Y-67421054D01*
X128973216Y-67468405D01*
X128977651Y-67474432D01*
X129011817Y-67523929D01*
X129056847Y-67563822D01*
X129062283Y-67568940D01*
X130043058Y-68549715D01*
X130048178Y-68555153D01*
X130088071Y-68600183D01*
X130137577Y-68634355D01*
X130143597Y-68638785D01*
X130190941Y-68675877D01*
X130190942Y-68675877D01*
X130190943Y-68675878D01*
X130200184Y-68680037D01*
X130219730Y-68691061D01*
X130228070Y-68696818D01*
X130284322Y-68718151D01*
X130291218Y-68721009D01*
X130346068Y-68745695D01*
X130356035Y-68747521D01*
X130377651Y-68753546D01*
X130387128Y-68757140D01*
X130446840Y-68764390D01*
X130454185Y-68765507D01*
X130513394Y-68776358D01*
X130570102Y-68772927D01*
X130573434Y-68772726D01*
X130580921Y-68772500D01*
X131143953Y-68772500D01*
X131191406Y-68781939D01*
X131231634Y-68808819D01*
X132083181Y-69660365D01*
X132110061Y-69700593D01*
X132119500Y-69748046D01*
X132119500Y-83270663D01*
X132119274Y-83278150D01*
X132115641Y-83338191D01*
X132126483Y-83397355D01*
X132127610Y-83404756D01*
X132134860Y-83464457D01*
X132138450Y-83473923D01*
X132144475Y-83495536D01*
X132146303Y-83505513D01*
X132170991Y-83560367D01*
X132173856Y-83567285D01*
X132195180Y-83623510D01*
X132195182Y-83623514D01*
X132200941Y-83631857D01*
X132211961Y-83651397D01*
X132216120Y-83660638D01*
X132253216Y-83707989D01*
X132257651Y-83714016D01*
X132291817Y-83763513D01*
X132336847Y-83803406D01*
X132342283Y-83808524D01*
X135159578Y-86625819D01*
X135189828Y-86675182D01*
X135194370Y-86732898D01*
X135172215Y-86786385D01*
X135128192Y-86823985D01*
X135071897Y-86837500D01*
X133767130Y-86837500D01*
X133707515Y-86843909D01*
X133572669Y-86894204D01*
X133457454Y-86980454D01*
X133371204Y-87095668D01*
X133320909Y-87230516D01*
X133314500Y-87290130D01*
X133314500Y-88985869D01*
X133319876Y-89035872D01*
X133320909Y-89045483D01*
X133371204Y-89180331D01*
X133457454Y-89295546D01*
X133572669Y-89381796D01*
X133707517Y-89432091D01*
X133742594Y-89435862D01*
X133798513Y-89456239D01*
X133838497Y-89500327D01*
X133853332Y-89557968D01*
X133839600Y-89615881D01*
X133800464Y-89660724D01*
X133775860Y-89677952D01*
X133614953Y-89838859D01*
X133484432Y-90025264D01*
X133388261Y-90231502D01*
X133329364Y-90451310D01*
X133309531Y-90678000D01*
X133329364Y-90904689D01*
X133388261Y-91124497D01*
X133484432Y-91330735D01*
X133614953Y-91517140D01*
X133775859Y-91678046D01*
X133962263Y-91808566D01*
X133962266Y-91808568D01*
X134019683Y-91835342D01*
X134020275Y-91835618D01*
X134072450Y-91881375D01*
X134091869Y-91948000D01*
X134072450Y-92014625D01*
X134020275Y-92060382D01*
X133962263Y-92087433D01*
X133775859Y-92217953D01*
X133614953Y-92378859D01*
X133589912Y-92414623D01*
X133545594Y-92453489D01*
X133488337Y-92467500D01*
X130410229Y-92467500D01*
X130362776Y-92458061D01*
X130322548Y-92431181D01*
X128083728Y-90192360D01*
X128071946Y-90178727D01*
X128057609Y-90159469D01*
X128019666Y-90127631D01*
X128011691Y-90120323D01*
X128007782Y-90116414D01*
X128007777Y-90116409D01*
X127983423Y-90097152D01*
X127980647Y-90094890D01*
X127922251Y-90045890D01*
X127905821Y-90035422D01*
X127836691Y-90003186D01*
X127833447Y-90001615D01*
X127765306Y-89967394D01*
X127746903Y-89960997D01*
X127672211Y-89945574D01*
X127668692Y-89944794D01*
X127594490Y-89927208D01*
X127575121Y-89925229D01*
X127498869Y-89927448D01*
X127495263Y-89927500D01*
X125012701Y-89927500D01*
X124955444Y-89913489D01*
X124911126Y-89874623D01*
X124863497Y-89806601D01*
X124863494Y-89806598D01*
X124741567Y-89684671D01*
X124710273Y-89631927D01*
X124708084Y-89570634D01*
X124735537Y-89515789D01*
X124785916Y-89480810D01*
X124917331Y-89431796D01*
X125032546Y-89345546D01*
X125118796Y-89230331D01*
X125169091Y-89095483D01*
X125175500Y-89035873D01*
X125175499Y-87240128D01*
X125169091Y-87180517D01*
X125118796Y-87045669D01*
X125032546Y-86930454D01*
X124917331Y-86844204D01*
X124782483Y-86793909D01*
X124722873Y-86787500D01*
X124722869Y-86787500D01*
X122927130Y-86787500D01*
X122867515Y-86793909D01*
X122732669Y-86844204D01*
X122617454Y-86930454D01*
X122531204Y-87045668D01*
X122480909Y-87180515D01*
X122480909Y-87180517D01*
X122475534Y-87230516D01*
X122474500Y-87240130D01*
X122474500Y-89035869D01*
X122475018Y-89040686D01*
X122480909Y-89095483D01*
X122531204Y-89230331D01*
X122617454Y-89345546D01*
X122732669Y-89431796D01*
X122844907Y-89473658D01*
X122864082Y-89480810D01*
X122914462Y-89515789D01*
X122941915Y-89570634D01*
X122939726Y-89631926D01*
X122908431Y-89684673D01*
X122786503Y-89806601D01*
X122650965Y-90000170D01*
X122551097Y-90214336D01*
X122489936Y-90442592D01*
X122469340Y-90677999D01*
X122489936Y-90913407D01*
X122534709Y-91080501D01*
X122551097Y-91141663D01*
X122650965Y-91355830D01*
X122786505Y-91549401D01*
X122953599Y-91716495D01*
X123139160Y-91846426D01*
X123178024Y-91890743D01*
X123192035Y-91948000D01*
X123178024Y-92005257D01*
X123139158Y-92049575D01*
X122984435Y-92157914D01*
X122953595Y-92179508D01*
X122786505Y-92346598D01*
X122650965Y-92540170D01*
X122551097Y-92754336D01*
X122489936Y-92982592D01*
X122469340Y-93218000D01*
X122489936Y-93453407D01*
X122534709Y-93620501D01*
X122551097Y-93681663D01*
X122650965Y-93895830D01*
X122786505Y-94089401D01*
X122953599Y-94256495D01*
X123139160Y-94386426D01*
X123178024Y-94430743D01*
X123192035Y-94488000D01*
X123178024Y-94545257D01*
X123139159Y-94589575D01*
X122953595Y-94719508D01*
X122786505Y-94886598D01*
X122650965Y-95080170D01*
X122551097Y-95294336D01*
X122489936Y-95522592D01*
X122469340Y-95758000D01*
X122489936Y-95993407D01*
X122534709Y-96160502D01*
X122551097Y-96221663D01*
X122650965Y-96435830D01*
X122786505Y-96629401D01*
X122953599Y-96796495D01*
X123139160Y-96926426D01*
X123178024Y-96970743D01*
X123192035Y-97028000D01*
X123178024Y-97085257D01*
X123139159Y-97129575D01*
X122953595Y-97259508D01*
X122786505Y-97426598D01*
X122650965Y-97620170D01*
X122551097Y-97834336D01*
X122489936Y-98062592D01*
X122469340Y-98298000D01*
X122489936Y-98533407D01*
X122501596Y-98576921D01*
X122551097Y-98761663D01*
X122650965Y-98975830D01*
X122786505Y-99169401D01*
X122953599Y-99336495D01*
X123139160Y-99466426D01*
X123178024Y-99510743D01*
X123192035Y-99568000D01*
X123178024Y-99625257D01*
X123139159Y-99669575D01*
X122953595Y-99799508D01*
X122786505Y-99966598D01*
X122650965Y-100160170D01*
X122551097Y-100374336D01*
X122489936Y-100602592D01*
X122469340Y-100838000D01*
X121000500Y-100838000D01*
X121000500Y-81702702D01*
X124898848Y-81702702D01*
X125081479Y-81827217D01*
X125324542Y-81944270D01*
X125582339Y-82023791D01*
X125849109Y-82064000D01*
X126118891Y-82064000D01*
X126385660Y-82023791D01*
X126643460Y-81944270D01*
X126886523Y-81827217D01*
X127069150Y-81702702D01*
X125984000Y-80617553D01*
X124898848Y-81702702D01*
X121000500Y-81702702D01*
X121000500Y-80264000D01*
X124178952Y-80264000D01*
X124199113Y-80533026D01*
X124259146Y-80796049D01*
X124357708Y-81047178D01*
X124492598Y-81280816D01*
X124546295Y-81348150D01*
X125630447Y-80264000D01*
X126337553Y-80264000D01*
X127421703Y-81348151D01*
X127421704Y-81348150D01*
X127475400Y-81280818D01*
X127610291Y-81047178D01*
X127708853Y-80796049D01*
X127768886Y-80533026D01*
X127789047Y-80264000D01*
X127768886Y-79994973D01*
X127708853Y-79731950D01*
X127610291Y-79480821D01*
X127475398Y-79247178D01*
X127421704Y-79179847D01*
X126337553Y-80264000D01*
X125630447Y-80264000D01*
X124546295Y-79179848D01*
X124492598Y-79247182D01*
X124357708Y-79480821D01*
X124259146Y-79731950D01*
X124199113Y-79994973D01*
X124178952Y-80264000D01*
X121000500Y-80264000D01*
X121000500Y-78825296D01*
X124898848Y-78825296D01*
X125984000Y-79910447D01*
X125984001Y-79910447D01*
X127069150Y-78825296D01*
X126886519Y-78700780D01*
X126643460Y-78583729D01*
X126385660Y-78504208D01*
X126118891Y-78464000D01*
X125849109Y-78464000D01*
X125582339Y-78504208D01*
X125324542Y-78583729D01*
X125081476Y-78700783D01*
X124898848Y-78825296D01*
X121000500Y-78825296D01*
X121000500Y-54999999D01*
X122424651Y-54999999D01*
X122444027Y-55357364D01*
X122501930Y-55710559D01*
X122597674Y-56055401D01*
X122730146Y-56387881D01*
X122897786Y-56704080D01*
X123098636Y-57000313D01*
X123330332Y-57273086D01*
X123590161Y-57519210D01*
X123875081Y-57735800D01*
X124181747Y-57920315D01*
X124506565Y-58070591D01*
X124845726Y-58184868D01*
X125195254Y-58261805D01*
X125516151Y-58296704D01*
X125551051Y-58300500D01*
X125551052Y-58300500D01*
X125908948Y-58300500D01*
X125908949Y-58300500D01*
X125940730Y-58297043D01*
X126264746Y-58261805D01*
X126614274Y-58184868D01*
X126953435Y-58070591D01*
X127278253Y-57920315D01*
X127584919Y-57735800D01*
X127869837Y-57519211D01*
X128129668Y-57273086D01*
X128361365Y-57000311D01*
X128562211Y-56704085D01*
X128654597Y-56529826D01*
X128729853Y-56387881D01*
X128862325Y-56055401D01*
X128958069Y-55710559D01*
X128958068Y-55710559D01*
X128958071Y-55710552D01*
X129015972Y-55357371D01*
X129035348Y-55000000D01*
X129035348Y-54999999D01*
X147824651Y-54999999D01*
X147844027Y-55357364D01*
X147901930Y-55710559D01*
X147997674Y-56055401D01*
X148130146Y-56387881D01*
X148297786Y-56704080D01*
X148498636Y-57000313D01*
X148730332Y-57273086D01*
X148990161Y-57519210D01*
X149275081Y-57735800D01*
X149581747Y-57920315D01*
X149906565Y-58070591D01*
X150245726Y-58184868D01*
X150595254Y-58261805D01*
X150916151Y-58296704D01*
X150951051Y-58300500D01*
X150951052Y-58300500D01*
X151308948Y-58300500D01*
X151308949Y-58300500D01*
X151340730Y-58297043D01*
X151664746Y-58261805D01*
X152014274Y-58184868D01*
X152353435Y-58070591D01*
X152678253Y-57920315D01*
X152984919Y-57735800D01*
X153269837Y-57519211D01*
X153529668Y-57273086D01*
X153761365Y-57000311D01*
X153962211Y-56704085D01*
X154054597Y-56529826D01*
X154129853Y-56387881D01*
X154262325Y-56055401D01*
X154358069Y-55710559D01*
X154358068Y-55710559D01*
X154358071Y-55710552D01*
X154415972Y-55357371D01*
X154435348Y-55000000D01*
X154415972Y-54642629D01*
X154358071Y-54289448D01*
X154358069Y-54289440D01*
X154262325Y-53944598D01*
X154129853Y-53612118D01*
X153962213Y-53295919D01*
X153962211Y-53295915D01*
X153761365Y-52999689D01*
X153761363Y-52999686D01*
X153529667Y-52726913D01*
X153269838Y-52480789D01*
X152984918Y-52264199D01*
X152678250Y-52079683D01*
X152353439Y-51929411D01*
X152353440Y-51929411D01*
X152353435Y-51929409D01*
X152014274Y-51815132D01*
X152014273Y-51815131D01*
X152014271Y-51815131D01*
X151802189Y-51768448D01*
X151664746Y-51738195D01*
X151486847Y-51718847D01*
X151308949Y-51699500D01*
X151308948Y-51699500D01*
X150951052Y-51699500D01*
X150951051Y-51699500D01*
X150595254Y-51738195D01*
X150245728Y-51815131D01*
X150073283Y-51873234D01*
X149906565Y-51929409D01*
X149906562Y-51929410D01*
X149906560Y-51929411D01*
X149581749Y-52079683D01*
X149275081Y-52264199D01*
X148990161Y-52480789D01*
X148730332Y-52726913D01*
X148498636Y-52999686D01*
X148297786Y-53295919D01*
X148130146Y-53612118D01*
X147997674Y-53944598D01*
X147901930Y-54289440D01*
X147844027Y-54642635D01*
X147824651Y-54999999D01*
X129035348Y-54999999D01*
X129015972Y-54642629D01*
X128958071Y-54289448D01*
X128958069Y-54289440D01*
X128862325Y-53944598D01*
X128729853Y-53612118D01*
X128562213Y-53295919D01*
X128562211Y-53295915D01*
X128361365Y-52999689D01*
X128361363Y-52999686D01*
X128129667Y-52726913D01*
X127869838Y-52480789D01*
X127584918Y-52264199D01*
X127278250Y-52079683D01*
X126953439Y-51929411D01*
X126953440Y-51929411D01*
X126953435Y-51929409D01*
X126614274Y-51815132D01*
X126614273Y-51815131D01*
X126614271Y-51815131D01*
X126402189Y-51768448D01*
X126264746Y-51738195D01*
X126086847Y-51718847D01*
X125908949Y-51699500D01*
X125908948Y-51699500D01*
X125551052Y-51699500D01*
X125551051Y-51699500D01*
X125195254Y-51738195D01*
X124845728Y-51815131D01*
X124673283Y-51873234D01*
X124506565Y-51929409D01*
X124506562Y-51929410D01*
X124506560Y-51929411D01*
X124181749Y-52079683D01*
X123875081Y-52264199D01*
X123590161Y-52480789D01*
X123330332Y-52726913D01*
X123098636Y-52999686D01*
X122897786Y-53295919D01*
X122730146Y-53612118D01*
X122597674Y-53944598D01*
X122501930Y-54289440D01*
X122444027Y-54642635D01*
X122424651Y-54999999D01*
X121000500Y-54999999D01*
X121000500Y-51124500D01*
X121017113Y-51062500D01*
X121062500Y-51017113D01*
X121124500Y-51000500D01*
X155875500Y-51000500D01*
X155937500Y-51017113D01*
G37*
G04 #@! TD.AperFunction*
M02*
