G04 #@! TF.GenerationSoftware,KiCad,Pcbnew,7.0.1*
G04 #@! TF.CreationDate,2023-05-03T21:59:58+05:00*
G04 #@! TF.ProjectId,Breakout_TPIC6B595N_v1.0,42726561-6b6f-4757-945f-545049433642,rev?*
G04 #@! TF.SameCoordinates,Original*
G04 #@! TF.FileFunction,Copper,L1,Top*
G04 #@! TF.FilePolarity,Positive*
%FSLAX46Y46*%
G04 Gerber Fmt 4.6, Leading zero omitted, Abs format (unit mm)*
G04 Created by KiCad (PCBNEW 7.0.1) date 2023-05-03 21:59:58*
%MOMM*%
%LPD*%
G01*
G04 APERTURE LIST*
G04 Aperture macros list*
%AMRoundRect*
0 Rectangle with rounded corners*
0 $1 Rounding radius*
0 $2 $3 $4 $5 $6 $7 $8 $9 X,Y pos of 4 corners*
0 Add a 4 corners polygon primitive as box body*
4,1,4,$2,$3,$4,$5,$6,$7,$8,$9,$2,$3,0*
0 Add four circle primitives for the rounded corners*
1,1,$1+$1,$2,$3*
1,1,$1+$1,$4,$5*
1,1,$1+$1,$6,$7*
1,1,$1+$1,$8,$9*
0 Add four rect primitives between the rounded corners*
20,1,$1+$1,$2,$3,$4,$5,0*
20,1,$1+$1,$4,$5,$6,$7,0*
20,1,$1+$1,$6,$7,$8,$9,0*
20,1,$1+$1,$8,$9,$2,$3,0*%
G04 Aperture macros list end*
G04 #@! TA.AperFunction,ComponentPad*
%ADD10C,5.600000*%
G04 #@! TD*
G04 #@! TA.AperFunction,ComponentPad*
%ADD11C,1.600000*%
G04 #@! TD*
G04 #@! TA.AperFunction,ComponentPad*
%ADD12R,1.700000X1.700000*%
G04 #@! TD*
G04 #@! TA.AperFunction,ComponentPad*
%ADD13O,1.700000X1.700000*%
G04 #@! TD*
G04 #@! TA.AperFunction,ComponentPad*
%ADD14RoundRect,0.250000X0.600000X-0.600000X0.600000X0.600000X-0.600000X0.600000X-0.600000X-0.600000X0*%
G04 #@! TD*
G04 #@! TA.AperFunction,ComponentPad*
%ADD15C,1.700000*%
G04 #@! TD*
G04 #@! TA.AperFunction,ComponentPad*
%ADD16R,1.600000X1.600000*%
G04 #@! TD*
G04 #@! TA.AperFunction,ComponentPad*
%ADD17O,1.600000X1.600000*%
G04 #@! TD*
G04 #@! TA.AperFunction,ComponentPad*
%ADD18R,2.600000X2.600000*%
G04 #@! TD*
G04 #@! TA.AperFunction,ComponentPad*
%ADD19C,2.600000*%
G04 #@! TD*
G04 #@! TA.AperFunction,ViaPad*
%ADD20C,0.600000*%
G04 #@! TD*
G04 #@! TA.AperFunction,Conductor*
%ADD21C,0.500000*%
G04 #@! TD*
G04 #@! TA.AperFunction,Conductor*
%ADD22C,0.600000*%
G04 #@! TD*
G04 #@! TA.AperFunction,Conductor*
%ADD23C,0.400000*%
G04 #@! TD*
G04 APERTURE END LIST*
D10*
X125730000Y-55000000D03*
D11*
X137180000Y-81788000D03*
X139680000Y-81788000D03*
D10*
X151130000Y-111125000D03*
D12*
X153035000Y-88138000D03*
D13*
X153035000Y-90678000D03*
X153035000Y-93218000D03*
X153035000Y-95758000D03*
X153035000Y-98298000D03*
X153035000Y-100838000D03*
X153035000Y-103378000D03*
D10*
X125730000Y-111125000D03*
D11*
X137160000Y-73914000D03*
X139660000Y-73914000D03*
D14*
X129540000Y-65522500D03*
D15*
X129540000Y-62982500D03*
X132080000Y-65522500D03*
X132080000Y-62982500D03*
X134620000Y-65522500D03*
X134620000Y-62982500D03*
X137160000Y-65522500D03*
X137160000Y-62982500D03*
X139700000Y-65522500D03*
X139700000Y-62982500D03*
X142240000Y-65522500D03*
X142240000Y-62982500D03*
X144780000Y-65522500D03*
X144780000Y-62982500D03*
X147320000Y-65522500D03*
X147320000Y-62982500D03*
D16*
X134615000Y-88138000D03*
D17*
X134615000Y-90678000D03*
X134615000Y-93218000D03*
X134615000Y-95758000D03*
X134615000Y-98298000D03*
X134615000Y-100838000D03*
X134615000Y-103378000D03*
X134615000Y-105918000D03*
X134615000Y-108458000D03*
X134615000Y-110998000D03*
X142235000Y-110998000D03*
X142235000Y-108458000D03*
X142235000Y-105918000D03*
X142235000Y-103378000D03*
X142235000Y-100838000D03*
X142235000Y-98298000D03*
X142235000Y-95758000D03*
X142235000Y-93218000D03*
X142235000Y-90678000D03*
X142235000Y-88138000D03*
D18*
X125984000Y-75184000D03*
D19*
X125984000Y-80264000D03*
D10*
X151130000Y-55000000D03*
D18*
X151130000Y-80264000D03*
D19*
X151130000Y-75184000D03*
D12*
X123825000Y-88138000D03*
D13*
X123825000Y-90678000D03*
X123825000Y-93218000D03*
X123825000Y-95758000D03*
X123825000Y-98298000D03*
X123825000Y-100838000D03*
X123825000Y-103378000D03*
D20*
X147066000Y-114300000D03*
X123952000Y-106172000D03*
X127508000Y-105664000D03*
X150622000Y-106934000D03*
X153162000Y-106426000D03*
X150622000Y-84328000D03*
X124968000Y-84582000D03*
X131318000Y-87884000D03*
X146304000Y-86360000D03*
X154178000Y-69596000D03*
X122936000Y-69850000D03*
X130048000Y-70612000D03*
X122682000Y-61214000D03*
X122936000Y-66802000D03*
X130302000Y-58674000D03*
X153670000Y-63500000D03*
X146812000Y-70866000D03*
X145288000Y-58928000D03*
X138684000Y-58420000D03*
X138176000Y-69596000D03*
X139446000Y-109728000D03*
X146812000Y-105918000D03*
D21*
X153035000Y-93218000D02*
X149860000Y-93218000D01*
X149860000Y-93218000D02*
X149860000Y-89154000D01*
X149860000Y-98806000D02*
X149860000Y-93218000D01*
D22*
X127762000Y-94234000D02*
X127762000Y-93218000D01*
X132842000Y-105918000D02*
X131826000Y-104902000D01*
X137160000Y-81768000D02*
X137180000Y-81788000D01*
X127635000Y-88138000D02*
X127762000Y-88265000D01*
X127762000Y-93218000D02*
X123825000Y-93218000D01*
D21*
X136906000Y-105918000D02*
X138176000Y-107188000D01*
X138176000Y-112014000D02*
X139192000Y-113030000D01*
D22*
X127762000Y-89154000D02*
X127762000Y-86233000D01*
X131826000Y-104902000D02*
X131826000Y-101346000D01*
X132207000Y-81788000D02*
X137180000Y-81788000D01*
D21*
X145034000Y-109220000D02*
X148082000Y-106172000D01*
D22*
X127762000Y-88265000D02*
X127762000Y-89154000D01*
X127762000Y-86233000D02*
X132207000Y-81788000D01*
D21*
X149860000Y-89154000D02*
X150876000Y-88138000D01*
X139192000Y-113030000D02*
X143510000Y-113030000D01*
D22*
X123825000Y-88138000D02*
X127635000Y-88138000D01*
X131826000Y-101346000D02*
X127762000Y-97282000D01*
X127762000Y-89154000D02*
X127762000Y-94234000D01*
D21*
X134615000Y-105918000D02*
X136906000Y-105918000D01*
X148082000Y-100584000D02*
X149860000Y-98806000D01*
X145034000Y-111506000D02*
X145034000Y-109220000D01*
X138176000Y-107188000D02*
X138176000Y-112014000D01*
X148082000Y-106172000D02*
X148082000Y-100584000D01*
D22*
X127762000Y-97282000D02*
X127762000Y-94234000D01*
D21*
X143510000Y-113030000D02*
X145034000Y-111506000D01*
D22*
X134615000Y-105918000D02*
X132842000Y-105918000D01*
D21*
X150876000Y-88138000D02*
X153035000Y-88138000D01*
D22*
X137160000Y-73914000D02*
X137160000Y-81768000D01*
D23*
X139446000Y-106680000D02*
X140208000Y-105918000D01*
X140208000Y-105918000D02*
X142235000Y-105918000D01*
X146812000Y-105918000D02*
X142235000Y-105918000D01*
X139446000Y-109728000D02*
X139446000Y-106680000D01*
X137414000Y-109474000D02*
X136398000Y-108458000D01*
X133096000Y-108458000D02*
X134615000Y-108458000D01*
X138938000Y-113792000D02*
X137414000Y-112268000D01*
X137414000Y-112268000D02*
X137414000Y-109474000D01*
X130810000Y-106172000D02*
X133096000Y-108458000D01*
X129032000Y-100838000D02*
X130810000Y-102616000D01*
X123825000Y-100838000D02*
X129032000Y-100838000D01*
X149606000Y-100838000D02*
X148844000Y-101600000D01*
X148844000Y-106680000D02*
X145796000Y-109728000D01*
X145796000Y-112014000D02*
X144018000Y-113792000D01*
X145796000Y-109728000D02*
X145796000Y-112014000D01*
X130810000Y-102616000D02*
X130810000Y-106172000D01*
X148844000Y-101600000D02*
X148844000Y-106680000D01*
X144018000Y-113792000D02*
X138938000Y-113792000D01*
X153035000Y-100838000D02*
X149606000Y-100838000D01*
X136398000Y-108458000D02*
X134615000Y-108458000D01*
D22*
X134615000Y-90678000D02*
X137668000Y-90678000D01*
X142240000Y-79248000D02*
X139660000Y-76668000D01*
X138938000Y-89408000D02*
X138938000Y-86614000D01*
X142240000Y-83312000D02*
X142240000Y-79248000D01*
X139660000Y-76668000D02*
X139660000Y-73914000D01*
X138938000Y-86614000D02*
X142240000Y-83312000D01*
X137668000Y-90678000D02*
X138938000Y-89408000D01*
G04 #@! TA.AperFunction,Conductor*
G36*
X141130584Y-106632511D02*
G01*
X141174902Y-106671377D01*
X141234953Y-106757140D01*
X141395859Y-106918046D01*
X141549381Y-107025542D01*
X141582266Y-107048568D01*
X141640275Y-107075618D01*
X141692450Y-107121375D01*
X141711869Y-107188000D01*
X141692450Y-107254625D01*
X141640275Y-107300382D01*
X141582263Y-107327433D01*
X141395859Y-107457953D01*
X141234953Y-107618859D01*
X141104432Y-107805264D01*
X141008261Y-108011502D01*
X140949364Y-108231310D01*
X140929531Y-108458000D01*
X140949364Y-108684689D01*
X141008261Y-108904497D01*
X141104432Y-109110735D01*
X141234953Y-109297140D01*
X141395859Y-109458046D01*
X141582264Y-109588567D01*
X141582265Y-109588567D01*
X141582266Y-109588568D01*
X141640865Y-109615893D01*
X141693040Y-109661650D01*
X141712460Y-109728274D01*
X141693041Y-109794899D01*
X141640866Y-109840656D01*
X141582522Y-109867863D01*
X141396180Y-109998341D01*
X141235341Y-110159180D01*
X141104865Y-110345519D01*
X141008733Y-110551673D01*
X140956128Y-110747999D01*
X140956128Y-110748000D01*
X143513872Y-110748000D01*
X143513871Y-110747999D01*
X143461266Y-110551673D01*
X143365134Y-110345519D01*
X143234658Y-110159180D01*
X143073819Y-109998341D01*
X142887482Y-109867866D01*
X142829133Y-109840657D01*
X142776958Y-109794899D01*
X142757539Y-109728274D01*
X142776959Y-109661649D01*
X142829134Y-109615893D01*
X142887734Y-109588568D01*
X143074139Y-109458047D01*
X143235047Y-109297139D01*
X143365568Y-109110734D01*
X143461739Y-108904496D01*
X143520635Y-108684692D01*
X143540468Y-108458000D01*
X143520635Y-108231308D01*
X143461739Y-108011504D01*
X143365568Y-107805266D01*
X143342877Y-107772860D01*
X143235046Y-107618859D01*
X143074140Y-107457953D01*
X142887733Y-107327431D01*
X142829725Y-107300382D01*
X142777549Y-107254625D01*
X142758129Y-107188000D01*
X142777549Y-107121375D01*
X142829725Y-107075618D01*
X142887734Y-107048568D01*
X143074139Y-106918047D01*
X143235047Y-106757139D01*
X143269697Y-106707653D01*
X143295098Y-106671377D01*
X143339416Y-106632511D01*
X143396673Y-106618500D01*
X146274770Y-106618500D01*
X146331065Y-106632015D01*
X146375088Y-106669615D01*
X146397243Y-106723102D01*
X146392701Y-106780818D01*
X146362451Y-106830181D01*
X144548358Y-108644272D01*
X144534727Y-108656053D01*
X144515467Y-108670392D01*
X144483633Y-108708329D01*
X144476341Y-108716289D01*
X144472408Y-108720222D01*
X144453176Y-108744545D01*
X144450902Y-108747337D01*
X144401894Y-108805744D01*
X144391418Y-108822187D01*
X144359192Y-108891294D01*
X144357622Y-108894536D01*
X144323393Y-108962692D01*
X144316996Y-108981098D01*
X144301573Y-109055788D01*
X144300793Y-109059305D01*
X144283208Y-109133505D01*
X144281229Y-109152878D01*
X144283448Y-109229131D01*
X144283500Y-109232737D01*
X144283500Y-111143771D01*
X144274061Y-111191224D01*
X144247181Y-111231452D01*
X143235451Y-112243181D01*
X143195223Y-112270061D01*
X143147770Y-112279500D01*
X143064587Y-112279500D01*
X143004471Y-112263953D01*
X142959429Y-112221210D01*
X142940757Y-112161990D01*
X142953136Y-112101142D01*
X142993463Y-112053925D01*
X143073819Y-111997658D01*
X143234658Y-111836819D01*
X143365134Y-111650480D01*
X143461266Y-111444326D01*
X143513872Y-111248000D01*
X140956128Y-111248000D01*
X141008733Y-111444326D01*
X141104865Y-111650480D01*
X141235341Y-111836819D01*
X141396180Y-111997658D01*
X141476537Y-112053925D01*
X141516864Y-112101142D01*
X141529243Y-112161990D01*
X141510571Y-112221210D01*
X141465529Y-112263953D01*
X141405413Y-112279500D01*
X139554230Y-112279500D01*
X139506777Y-112270061D01*
X139466549Y-112243181D01*
X138962819Y-111739451D01*
X138935939Y-111699223D01*
X138926500Y-111651770D01*
X138926500Y-110569073D01*
X138940333Y-110512159D01*
X138978745Y-110467944D01*
X139033166Y-110446291D01*
X139091454Y-110452031D01*
X139096477Y-110453788D01*
X139096478Y-110453789D01*
X139266745Y-110513368D01*
X139446000Y-110533565D01*
X139625255Y-110513368D01*
X139795522Y-110453789D01*
X139948262Y-110357816D01*
X140075816Y-110230262D01*
X140171789Y-110077522D01*
X140231368Y-109907255D01*
X140251565Y-109728000D01*
X140231368Y-109548745D01*
X140171789Y-109378478D01*
X140165505Y-109368478D01*
X140146500Y-109302507D01*
X140146500Y-107021519D01*
X140155939Y-106974066D01*
X140182819Y-106933838D01*
X140461838Y-106654819D01*
X140502066Y-106627939D01*
X140549519Y-106618500D01*
X141073327Y-106618500D01*
X141130584Y-106632511D01*
G37*
G04 #@! TD.AperFunction*
G04 #@! TA.AperFunction,Conductor*
G36*
X138476626Y-74499439D02*
G01*
X138522380Y-74551612D01*
X138529432Y-74566734D01*
X138529434Y-74566738D01*
X138659953Y-74753140D01*
X138823181Y-74916368D01*
X138850061Y-74956596D01*
X138859500Y-75004049D01*
X138859500Y-76758196D01*
X138868017Y-76795518D01*
X138870345Y-76809219D01*
X138874631Y-76847252D01*
X138887272Y-76883380D01*
X138891119Y-76896736D01*
X138899638Y-76934058D01*
X138916250Y-76968553D01*
X138921570Y-76981398D01*
X138934209Y-77017520D01*
X138944770Y-77034327D01*
X138954576Y-77049933D01*
X138961298Y-77062095D01*
X138977908Y-77096586D01*
X139001772Y-77126510D01*
X139009818Y-77137850D01*
X139030184Y-77170262D01*
X141403181Y-79543259D01*
X141430061Y-79583487D01*
X141439500Y-79630940D01*
X141439500Y-82929060D01*
X141430061Y-82976513D01*
X141403181Y-83016741D01*
X138418297Y-86001624D01*
X138308185Y-86111735D01*
X138287817Y-86144151D01*
X138279772Y-86155489D01*
X138255908Y-86185413D01*
X138239300Y-86219899D01*
X138232576Y-86232064D01*
X138212211Y-86264475D01*
X138199565Y-86300613D01*
X138194246Y-86313453D01*
X138177639Y-86347938D01*
X138169118Y-86385268D01*
X138165270Y-86398623D01*
X138152631Y-86434743D01*
X138148345Y-86472780D01*
X138146017Y-86486480D01*
X138137500Y-86523803D01*
X138137500Y-89025060D01*
X138128061Y-89072513D01*
X138101181Y-89112741D01*
X137372741Y-89841181D01*
X137332513Y-89868061D01*
X137285060Y-89877500D01*
X135705049Y-89877500D01*
X135657596Y-89868061D01*
X135617368Y-89841181D01*
X135454140Y-89677953D01*
X135429537Y-89660726D01*
X135390399Y-89615884D01*
X135376666Y-89557970D01*
X135391500Y-89500328D01*
X135431485Y-89456239D01*
X135487406Y-89435861D01*
X135522483Y-89432091D01*
X135657331Y-89381796D01*
X135772546Y-89295546D01*
X135858796Y-89180331D01*
X135909091Y-89045483D01*
X135915500Y-88985873D01*
X135915499Y-87290128D01*
X135909091Y-87230517D01*
X135858796Y-87095669D01*
X135772546Y-86980454D01*
X135657331Y-86894204D01*
X135522483Y-86843909D01*
X135462873Y-86837500D01*
X135462869Y-86837500D01*
X133767130Y-86837500D01*
X133707515Y-86843909D01*
X133572669Y-86894204D01*
X133457454Y-86980454D01*
X133371204Y-87095668D01*
X133320909Y-87230516D01*
X133314500Y-87290130D01*
X133314500Y-88985869D01*
X133320909Y-89045484D01*
X133339558Y-89095483D01*
X133371204Y-89180331D01*
X133457454Y-89295546D01*
X133572669Y-89381796D01*
X133707517Y-89432091D01*
X133742594Y-89435862D01*
X133798513Y-89456239D01*
X133838497Y-89500327D01*
X133853332Y-89557968D01*
X133839600Y-89615881D01*
X133800464Y-89660724D01*
X133775860Y-89677952D01*
X133614953Y-89838859D01*
X133484432Y-90025264D01*
X133388261Y-90231502D01*
X133329364Y-90451310D01*
X133309531Y-90678000D01*
X133329364Y-90904689D01*
X133388261Y-91124497D01*
X133484432Y-91330735D01*
X133614953Y-91517140D01*
X133775859Y-91678046D01*
X133962263Y-91808566D01*
X133962266Y-91808568D01*
X134019683Y-91835342D01*
X134020275Y-91835618D01*
X134072450Y-91881375D01*
X134091869Y-91948000D01*
X134072450Y-92014625D01*
X134020275Y-92060382D01*
X133962263Y-92087433D01*
X133775859Y-92217953D01*
X133614953Y-92378859D01*
X133484432Y-92565264D01*
X133388261Y-92771502D01*
X133329364Y-92991310D01*
X133309531Y-93218000D01*
X133329364Y-93444689D01*
X133388261Y-93664497D01*
X133484432Y-93870735D01*
X133614953Y-94057140D01*
X133775859Y-94218046D01*
X133962263Y-94348566D01*
X133962266Y-94348568D01*
X134020275Y-94375618D01*
X134072450Y-94421375D01*
X134091869Y-94488000D01*
X134072450Y-94554625D01*
X134020275Y-94600382D01*
X133962263Y-94627433D01*
X133775859Y-94757953D01*
X133614953Y-94918859D01*
X133484432Y-95105264D01*
X133388261Y-95311502D01*
X133329364Y-95531310D01*
X133309531Y-95758000D01*
X133329364Y-95984689D01*
X133388261Y-96204497D01*
X133484432Y-96410735D01*
X133614953Y-96597140D01*
X133775859Y-96758046D01*
X133830765Y-96796491D01*
X133962266Y-96888568D01*
X134020273Y-96915617D01*
X134072449Y-96961373D01*
X134091869Y-97027997D01*
X134072451Y-97094622D01*
X134020276Y-97140380D01*
X133962266Y-97167431D01*
X133775859Y-97297953D01*
X133614953Y-97458859D01*
X133484432Y-97645264D01*
X133388261Y-97851502D01*
X133329364Y-98071310D01*
X133309531Y-98298000D01*
X133329364Y-98524689D01*
X133388261Y-98744497D01*
X133484432Y-98950735D01*
X133614953Y-99137140D01*
X133775859Y-99298046D01*
X133858067Y-99355608D01*
X133962266Y-99428568D01*
X134020275Y-99455618D01*
X134072450Y-99501375D01*
X134091869Y-99568000D01*
X134072450Y-99634625D01*
X134020275Y-99680382D01*
X133962263Y-99707433D01*
X133775859Y-99837953D01*
X133614953Y-99998859D01*
X133484432Y-100185264D01*
X133388261Y-100391502D01*
X133329364Y-100611310D01*
X133309531Y-100838000D01*
X133329364Y-101064689D01*
X133388261Y-101284497D01*
X133484432Y-101490735D01*
X133614953Y-101677140D01*
X133775859Y-101838046D01*
X133962263Y-101968566D01*
X133962266Y-101968568D01*
X134020275Y-101995618D01*
X134072450Y-102041375D01*
X134091869Y-102108000D01*
X134072450Y-102174625D01*
X134020275Y-102220382D01*
X133962263Y-102247433D01*
X133775859Y-102377953D01*
X133614953Y-102538859D01*
X133484432Y-102725264D01*
X133388261Y-102931502D01*
X133329364Y-103151310D01*
X133309531Y-103378000D01*
X133329364Y-103604689D01*
X133388261Y-103824497D01*
X133484432Y-104030735D01*
X133614953Y-104217140D01*
X133775859Y-104378046D01*
X133830215Y-104416106D01*
X133962266Y-104508568D01*
X134020275Y-104535618D01*
X134072450Y-104581375D01*
X134091869Y-104648000D01*
X134072450Y-104714625D01*
X134020275Y-104760382D01*
X133962263Y-104787433D01*
X133775859Y-104917953D01*
X133612632Y-105081181D01*
X133572404Y-105108061D01*
X133524951Y-105117500D01*
X133224940Y-105117500D01*
X133177487Y-105108061D01*
X133137259Y-105081181D01*
X132662819Y-104606741D01*
X132635939Y-104566513D01*
X132626500Y-104519060D01*
X132626500Y-101255807D01*
X132617982Y-101218487D01*
X132615653Y-101204776D01*
X132611368Y-101166745D01*
X132598725Y-101130611D01*
X132594876Y-101117250D01*
X132586360Y-101079939D01*
X132569749Y-101045446D01*
X132564427Y-101032597D01*
X132551789Y-100996478D01*
X132531428Y-100964074D01*
X132524704Y-100951909D01*
X132508092Y-100917412D01*
X132484221Y-100887480D01*
X132476180Y-100876147D01*
X132455816Y-100843738D01*
X132328262Y-100716184D01*
X128598819Y-96986741D01*
X128571939Y-96946513D01*
X128562500Y-96899060D01*
X128562500Y-93269915D01*
X128563280Y-93256030D01*
X128567565Y-93218000D01*
X128563280Y-93179970D01*
X128562500Y-93166085D01*
X128562500Y-86615940D01*
X128571939Y-86568487D01*
X128598819Y-86528259D01*
X132502259Y-82624819D01*
X132542487Y-82597939D01*
X132589940Y-82588500D01*
X136089951Y-82588500D01*
X136137404Y-82597939D01*
X136177632Y-82624819D01*
X136340859Y-82788046D01*
X136527264Y-82918567D01*
X136527265Y-82918567D01*
X136527266Y-82918568D01*
X136733504Y-83014739D01*
X136953308Y-83073635D01*
X137180000Y-83093468D01*
X137406692Y-83073635D01*
X137626496Y-83014739D01*
X137832734Y-82918568D01*
X137906344Y-82867026D01*
X138954526Y-82867026D01*
X139027515Y-82918133D01*
X139233673Y-83014266D01*
X139453397Y-83073141D01*
X139680000Y-83092966D01*
X139906602Y-83073141D01*
X140126326Y-83014266D01*
X140332480Y-82918134D01*
X140405472Y-82867025D01*
X139680001Y-82141553D01*
X139680000Y-82141553D01*
X138954526Y-82867025D01*
X138954526Y-82867026D01*
X137906344Y-82867026D01*
X138019139Y-82788047D01*
X138180047Y-82627139D01*
X138310568Y-82440734D01*
X138317893Y-82425023D01*
X138363647Y-82372849D01*
X138430273Y-82353428D01*
X138496899Y-82372847D01*
X138542657Y-82425023D01*
X138549866Y-82440483D01*
X138600972Y-82513471D01*
X138600974Y-82513472D01*
X139326446Y-81788001D01*
X140033553Y-81788001D01*
X140759025Y-82513472D01*
X140810134Y-82440480D01*
X140906266Y-82234326D01*
X140965141Y-82014602D01*
X140984966Y-81788000D01*
X140965141Y-81561397D01*
X140906266Y-81341673D01*
X140810133Y-81135515D01*
X140759025Y-81062526D01*
X140033553Y-81788000D01*
X140033553Y-81788001D01*
X139326446Y-81788001D01*
X139326446Y-81788000D01*
X138600973Y-81062526D01*
X138600973Y-81062527D01*
X138549865Y-81135517D01*
X138542656Y-81150977D01*
X138496899Y-81203151D01*
X138430274Y-81222570D01*
X138363649Y-81203150D01*
X138317893Y-81150975D01*
X138310567Y-81135264D01*
X138180046Y-80948859D01*
X138019141Y-80787954D01*
X138013378Y-80783919D01*
X137974511Y-80739601D01*
X137967016Y-80708973D01*
X138954526Y-80708973D01*
X139680000Y-81434446D01*
X139680001Y-81434446D01*
X140405472Y-80708974D01*
X140405471Y-80708972D01*
X140332484Y-80657866D01*
X140126326Y-80561733D01*
X139906602Y-80502858D01*
X139680000Y-80483033D01*
X139453397Y-80502858D01*
X139233672Y-80561733D01*
X139027516Y-80657865D01*
X138954527Y-80708973D01*
X138954526Y-80708973D01*
X137967016Y-80708973D01*
X137960500Y-80682343D01*
X137960500Y-75004049D01*
X137969939Y-74956596D01*
X137996819Y-74916368D01*
X138160046Y-74753140D01*
X138290565Y-74566738D01*
X138290564Y-74566738D01*
X138290568Y-74566734D01*
X138297619Y-74551612D01*
X138343374Y-74499439D01*
X138410000Y-74480019D01*
X138476626Y-74499439D01*
G37*
G04 #@! TD.AperFunction*
G04 #@! TA.AperFunction,Conductor*
G36*
X155937500Y-51017113D02*
G01*
X155982887Y-51062500D01*
X155999500Y-51124500D01*
X155999500Y-115875500D01*
X155982887Y-115937500D01*
X155937500Y-115982887D01*
X155875500Y-115999500D01*
X121124500Y-115999500D01*
X121062500Y-115982887D01*
X121017113Y-115937500D01*
X121000500Y-115875500D01*
X121000500Y-111125000D01*
X122424651Y-111125000D01*
X122444027Y-111482364D01*
X122501930Y-111835559D01*
X122597674Y-112180401D01*
X122730146Y-112512881D01*
X122897786Y-112829080D01*
X123098636Y-113125313D01*
X123330332Y-113398086D01*
X123590161Y-113644210D01*
X123875080Y-113860799D01*
X123875081Y-113860800D01*
X124181747Y-114045315D01*
X124506565Y-114195591D01*
X124845726Y-114309868D01*
X125195254Y-114386805D01*
X125516151Y-114421704D01*
X125551051Y-114425500D01*
X125551052Y-114425500D01*
X125908948Y-114425500D01*
X125908949Y-114425500D01*
X125940730Y-114422043D01*
X126264746Y-114386805D01*
X126614274Y-114309868D01*
X126953435Y-114195591D01*
X127278253Y-114045315D01*
X127584919Y-113860800D01*
X127869837Y-113644211D01*
X128129668Y-113398086D01*
X128361365Y-113125311D01*
X128562211Y-112829085D01*
X128681403Y-112604266D01*
X128729853Y-112512881D01*
X128862325Y-112180401D01*
X128958069Y-111835559D01*
X128958068Y-111835559D01*
X128958071Y-111835552D01*
X129015972Y-111482371D01*
X129028679Y-111248000D01*
X133336128Y-111248000D01*
X133388733Y-111444326D01*
X133484865Y-111650480D01*
X133615341Y-111836819D01*
X133776180Y-111997658D01*
X133962519Y-112128134D01*
X134168673Y-112224266D01*
X134364999Y-112276871D01*
X134365000Y-112276872D01*
X134365000Y-111248000D01*
X134865000Y-111248000D01*
X134865000Y-112276871D01*
X135061326Y-112224266D01*
X135267480Y-112128134D01*
X135453819Y-111997658D01*
X135614658Y-111836819D01*
X135745134Y-111650480D01*
X135841266Y-111444326D01*
X135893872Y-111248000D01*
X134865000Y-111248000D01*
X134365000Y-111248000D01*
X133336128Y-111248000D01*
X129028679Y-111248000D01*
X129035348Y-111125000D01*
X129015972Y-110767629D01*
X128958071Y-110414448D01*
X128958069Y-110414440D01*
X128862325Y-110069598D01*
X128729853Y-109737118D01*
X128562213Y-109420919D01*
X128562211Y-109420915D01*
X128361365Y-109124689D01*
X128361363Y-109124686D01*
X128129667Y-108851913D01*
X127869838Y-108605789D01*
X127584918Y-108389199D01*
X127278250Y-108204683D01*
X126953439Y-108054411D01*
X126953440Y-108054411D01*
X126953435Y-108054409D01*
X126614274Y-107940132D01*
X126614273Y-107940131D01*
X126614271Y-107940131D01*
X126402189Y-107893448D01*
X126264746Y-107863195D01*
X126086847Y-107843847D01*
X125908949Y-107824500D01*
X125908948Y-107824500D01*
X125551052Y-107824500D01*
X125551051Y-107824500D01*
X125195254Y-107863195D01*
X124845728Y-107940131D01*
X124742752Y-107974828D01*
X124506565Y-108054409D01*
X124506562Y-108054410D01*
X124506560Y-108054411D01*
X124181749Y-108204683D01*
X123875081Y-108389199D01*
X123590161Y-108605789D01*
X123330332Y-108851913D01*
X123098636Y-109124686D01*
X122897786Y-109420919D01*
X122730146Y-109737118D01*
X122597674Y-110069598D01*
X122501930Y-110414440D01*
X122444027Y-110767635D01*
X122424651Y-111125000D01*
X121000500Y-111125000D01*
X121000500Y-103628000D01*
X122494364Y-103628000D01*
X122551569Y-103841492D01*
X122651399Y-104055576D01*
X122786893Y-104249081D01*
X122953918Y-104416106D01*
X123147423Y-104551600D01*
X123361507Y-104651430D01*
X123574999Y-104708635D01*
X123575000Y-104708636D01*
X123575000Y-103628000D01*
X124075000Y-103628000D01*
X124075000Y-104708635D01*
X124288492Y-104651430D01*
X124502576Y-104551600D01*
X124696081Y-104416106D01*
X124863106Y-104249081D01*
X124998600Y-104055576D01*
X125098430Y-103841492D01*
X125155636Y-103628000D01*
X124075000Y-103628000D01*
X123575000Y-103628000D01*
X122494364Y-103628000D01*
X121000500Y-103628000D01*
X121000500Y-100838000D01*
X122469340Y-100838000D01*
X122489936Y-101073407D01*
X122528810Y-101218487D01*
X122551097Y-101301663D01*
X122650965Y-101515830D01*
X122786505Y-101709401D01*
X122953599Y-101876495D01*
X123139597Y-102006732D01*
X123178460Y-102051048D01*
X123192471Y-102108305D01*
X123178461Y-102165561D01*
X123139595Y-102209880D01*
X122953919Y-102339892D01*
X122786890Y-102506921D01*
X122651400Y-102700421D01*
X122551569Y-102914507D01*
X122494364Y-103127999D01*
X122494364Y-103128000D01*
X125155636Y-103128000D01*
X125155635Y-103127999D01*
X125098430Y-102914507D01*
X124998599Y-102700421D01*
X124863109Y-102506921D01*
X124696081Y-102339893D01*
X124510404Y-102209880D01*
X124471539Y-102165562D01*
X124457528Y-102108305D01*
X124471539Y-102051048D01*
X124510402Y-102006732D01*
X124696401Y-101876495D01*
X124863495Y-101709401D01*
X124946136Y-101591376D01*
X124990454Y-101552511D01*
X125047711Y-101538500D01*
X128690481Y-101538500D01*
X128737934Y-101547939D01*
X128778162Y-101574819D01*
X130073181Y-102869838D01*
X130100061Y-102910066D01*
X130109500Y-102957519D01*
X130109500Y-106147079D01*
X130109274Y-106154566D01*
X130105641Y-106214607D01*
X130116483Y-106273771D01*
X130117610Y-106281172D01*
X130124860Y-106340873D01*
X130128450Y-106350339D01*
X130134475Y-106371952D01*
X130136303Y-106381929D01*
X130160991Y-106436783D01*
X130163856Y-106443701D01*
X130185180Y-106499926D01*
X130185182Y-106499930D01*
X130190941Y-106508273D01*
X130201961Y-106527813D01*
X130206120Y-106537054D01*
X130243216Y-106584405D01*
X130247654Y-106590436D01*
X130276696Y-106632511D01*
X130281817Y-106639929D01*
X130326847Y-106679822D01*
X130332283Y-106684940D01*
X132583058Y-108935715D01*
X132588178Y-108941153D01*
X132628071Y-108986183D01*
X132677577Y-109020354D01*
X132683596Y-109024785D01*
X132723170Y-109055788D01*
X132730943Y-109061878D01*
X132740190Y-109066039D01*
X132759726Y-109077058D01*
X132768070Y-109082818D01*
X132824334Y-109104155D01*
X132831195Y-109106997D01*
X132886068Y-109131694D01*
X132896036Y-109133520D01*
X132917652Y-109139546D01*
X132927128Y-109143140D01*
X132986856Y-109150392D01*
X132994201Y-109151509D01*
X133053394Y-109162357D01*
X133113422Y-109158726D01*
X133120910Y-109158500D01*
X133453327Y-109158500D01*
X133510584Y-109172511D01*
X133554902Y-109211377D01*
X133614953Y-109297140D01*
X133775859Y-109458046D01*
X133962264Y-109588567D01*
X133962265Y-109588567D01*
X133962266Y-109588568D01*
X134020865Y-109615893D01*
X134073040Y-109661650D01*
X134092460Y-109728274D01*
X134073041Y-109794899D01*
X134020866Y-109840656D01*
X133962522Y-109867863D01*
X133776180Y-109998341D01*
X133615341Y-110159180D01*
X133484865Y-110345519D01*
X133388733Y-110551673D01*
X133336128Y-110747999D01*
X133336128Y-110748000D01*
X135893872Y-110748000D01*
X135893871Y-110747999D01*
X135841266Y-110551673D01*
X135745134Y-110345519D01*
X135614658Y-110159180D01*
X135453819Y-109998341D01*
X135267482Y-109867866D01*
X135209133Y-109840657D01*
X135156958Y-109794899D01*
X135137539Y-109728274D01*
X135156959Y-109661649D01*
X135209134Y-109615893D01*
X135267734Y-109588568D01*
X135454139Y-109458047D01*
X135615047Y-109297139D01*
X135638592Y-109263512D01*
X135675098Y-109211377D01*
X135719416Y-109172511D01*
X135776673Y-109158500D01*
X136056481Y-109158500D01*
X136103934Y-109167939D01*
X136144162Y-109194819D01*
X136677181Y-109727838D01*
X136704061Y-109768066D01*
X136713500Y-109815519D01*
X136713500Y-112243079D01*
X136713274Y-112250566D01*
X136709641Y-112310607D01*
X136720483Y-112369771D01*
X136721610Y-112377172D01*
X136728860Y-112436873D01*
X136732450Y-112446339D01*
X136738475Y-112467952D01*
X136740303Y-112477929D01*
X136764991Y-112532783D01*
X136767856Y-112539701D01*
X136789180Y-112595926D01*
X136789182Y-112595930D01*
X136794941Y-112604273D01*
X136805961Y-112623813D01*
X136810120Y-112633054D01*
X136847216Y-112680405D01*
X136851651Y-112686432D01*
X136885817Y-112735929D01*
X136930847Y-112775822D01*
X136936283Y-112780940D01*
X138425051Y-114269707D01*
X138430171Y-114275145D01*
X138470071Y-114320183D01*
X138519565Y-114354346D01*
X138519577Y-114354354D01*
X138525603Y-114358788D01*
X138572943Y-114395877D01*
X138582178Y-114400033D01*
X138601726Y-114411058D01*
X138610070Y-114416818D01*
X138666322Y-114438151D01*
X138673228Y-114441012D01*
X138728068Y-114465694D01*
X138738030Y-114467519D01*
X138759650Y-114473546D01*
X138769125Y-114477139D01*
X138769128Y-114477140D01*
X138828856Y-114484392D01*
X138836201Y-114485509D01*
X138895394Y-114496357D01*
X138955421Y-114492726D01*
X138962909Y-114492500D01*
X143993079Y-114492500D01*
X144000566Y-114492726D01*
X144003706Y-114492915D01*
X144060606Y-114496358D01*
X144119782Y-114485513D01*
X144127181Y-114484387D01*
X144186872Y-114477140D01*
X144196335Y-114473550D01*
X144217958Y-114467522D01*
X144227932Y-114465695D01*
X144282808Y-114440996D01*
X144289673Y-114438152D01*
X144345930Y-114416818D01*
X144354270Y-114411060D01*
X144373819Y-114400035D01*
X144383057Y-114395878D01*
X144430413Y-114358775D01*
X144436423Y-114354354D01*
X144485929Y-114320183D01*
X144525823Y-114275150D01*
X144530924Y-114269731D01*
X146273731Y-112526924D01*
X146279150Y-112521823D01*
X146324183Y-112481929D01*
X146358377Y-112432389D01*
X146362770Y-112426419D01*
X146399878Y-112379056D01*
X146404035Y-112369818D01*
X146415061Y-112350268D01*
X146420818Y-112341930D01*
X146442152Y-112285674D01*
X146444994Y-112278811D01*
X146469695Y-112223931D01*
X146471522Y-112213956D01*
X146477549Y-112192339D01*
X146481140Y-112182872D01*
X146488387Y-112123179D01*
X146489514Y-112115777D01*
X146492196Y-112101142D01*
X146500358Y-112056606D01*
X146496726Y-111996566D01*
X146496500Y-111989079D01*
X146496500Y-111125000D01*
X147824651Y-111125000D01*
X147844027Y-111482364D01*
X147901930Y-111835559D01*
X147997674Y-112180401D01*
X148130146Y-112512881D01*
X148297786Y-112829080D01*
X148498636Y-113125313D01*
X148730332Y-113398086D01*
X148990161Y-113644210D01*
X149275080Y-113860799D01*
X149275081Y-113860800D01*
X149581747Y-114045315D01*
X149906565Y-114195591D01*
X150245726Y-114309868D01*
X150595254Y-114386805D01*
X150916151Y-114421704D01*
X150951051Y-114425500D01*
X150951052Y-114425500D01*
X151308948Y-114425500D01*
X151308949Y-114425500D01*
X151340730Y-114422043D01*
X151664746Y-114386805D01*
X152014274Y-114309868D01*
X152353435Y-114195591D01*
X152678253Y-114045315D01*
X152984919Y-113860800D01*
X153269837Y-113644211D01*
X153529668Y-113398086D01*
X153761365Y-113125311D01*
X153962211Y-112829085D01*
X154081403Y-112604266D01*
X154129853Y-112512881D01*
X154262325Y-112180401D01*
X154358069Y-111835559D01*
X154358068Y-111835559D01*
X154358071Y-111835552D01*
X154415972Y-111482371D01*
X154435348Y-111125000D01*
X154415972Y-110767629D01*
X154358071Y-110414448D01*
X154358069Y-110414440D01*
X154262325Y-110069598D01*
X154129853Y-109737118D01*
X153962213Y-109420919D01*
X153962211Y-109420915D01*
X153761365Y-109124689D01*
X153761363Y-109124686D01*
X153529667Y-108851913D01*
X153269838Y-108605789D01*
X152984918Y-108389199D01*
X152678250Y-108204683D01*
X152353439Y-108054411D01*
X152353440Y-108054411D01*
X152353435Y-108054409D01*
X152014274Y-107940132D01*
X152014273Y-107940131D01*
X152014271Y-107940131D01*
X151802189Y-107893448D01*
X151664746Y-107863195D01*
X151486847Y-107843847D01*
X151308949Y-107824500D01*
X151308948Y-107824500D01*
X150951052Y-107824500D01*
X150951051Y-107824500D01*
X150595254Y-107863195D01*
X150245728Y-107940131D01*
X150142752Y-107974828D01*
X149906565Y-108054409D01*
X149906562Y-108054410D01*
X149906560Y-108054411D01*
X149581749Y-108204683D01*
X149275081Y-108389199D01*
X148990161Y-108605789D01*
X148730332Y-108851913D01*
X148498636Y-109124686D01*
X148297786Y-109420919D01*
X148130146Y-109737118D01*
X147997674Y-110069598D01*
X147901930Y-110414440D01*
X147844027Y-110767635D01*
X147824651Y-111125000D01*
X146496500Y-111125000D01*
X146496500Y-110069519D01*
X146505939Y-110022066D01*
X146532819Y-109981838D01*
X147217518Y-109297139D01*
X149321731Y-107192924D01*
X149327150Y-107187823D01*
X149372183Y-107147929D01*
X149406355Y-107098420D01*
X149410775Y-107092413D01*
X149447878Y-107045057D01*
X149452035Y-107035819D01*
X149463060Y-107016270D01*
X149468818Y-107007930D01*
X149490150Y-106951678D01*
X149492999Y-106944800D01*
X149517695Y-106889931D01*
X149519522Y-106879956D01*
X149525549Y-106858339D01*
X149529140Y-106848872D01*
X149536387Y-106789179D01*
X149537514Y-106781777D01*
X149542029Y-106757139D01*
X149548358Y-106722606D01*
X149544726Y-106662566D01*
X149544500Y-106655079D01*
X149544500Y-103628000D01*
X151704364Y-103628000D01*
X151761569Y-103841492D01*
X151861399Y-104055576D01*
X151996893Y-104249081D01*
X152163918Y-104416106D01*
X152357423Y-104551600D01*
X152571507Y-104651430D01*
X152784999Y-104708635D01*
X152785000Y-104708636D01*
X152785000Y-103628000D01*
X153285000Y-103628000D01*
X153285000Y-104708635D01*
X153498492Y-104651430D01*
X153712576Y-104551600D01*
X153906081Y-104416106D01*
X154073106Y-104249081D01*
X154208600Y-104055576D01*
X154308430Y-103841492D01*
X154365636Y-103628000D01*
X153285000Y-103628000D01*
X152785000Y-103628000D01*
X151704364Y-103628000D01*
X149544500Y-103628000D01*
X149544500Y-101941519D01*
X149553939Y-101894066D01*
X149580819Y-101853838D01*
X149859838Y-101574819D01*
X149900066Y-101547939D01*
X149947519Y-101538500D01*
X151812289Y-101538500D01*
X151869546Y-101552511D01*
X151913863Y-101591376D01*
X151996505Y-101709401D01*
X152163599Y-101876495D01*
X152349597Y-102006732D01*
X152388460Y-102051048D01*
X152402471Y-102108305D01*
X152388461Y-102165561D01*
X152349595Y-102209880D01*
X152163919Y-102339892D01*
X151996890Y-102506921D01*
X151861400Y-102700421D01*
X151761569Y-102914507D01*
X151704364Y-103127999D01*
X151704364Y-103128000D01*
X154365636Y-103128000D01*
X154365635Y-103127999D01*
X154308430Y-102914507D01*
X154208599Y-102700421D01*
X154073109Y-102506921D01*
X153906081Y-102339893D01*
X153720404Y-102209880D01*
X153681539Y-102165562D01*
X153667528Y-102108305D01*
X153681539Y-102051048D01*
X153720402Y-102006732D01*
X153906401Y-101876495D01*
X154073495Y-101709401D01*
X154209035Y-101515830D01*
X154308903Y-101301663D01*
X154370063Y-101073408D01*
X154390659Y-100838000D01*
X154370063Y-100602592D01*
X154308903Y-100374337D01*
X154209035Y-100160171D01*
X154073495Y-99966599D01*
X153906401Y-99799505D01*
X153720839Y-99669573D01*
X153681975Y-99625257D01*
X153667964Y-99568000D01*
X153681975Y-99510743D01*
X153720839Y-99466426D01*
X153906401Y-99336495D01*
X154073495Y-99169401D01*
X154209035Y-98975830D01*
X154308903Y-98761663D01*
X154370063Y-98533408D01*
X154390659Y-98298000D01*
X154370063Y-98062592D01*
X154308903Y-97834337D01*
X154209035Y-97620171D01*
X154073495Y-97426599D01*
X153906401Y-97259505D01*
X153720839Y-97129573D01*
X153681974Y-97085255D01*
X153667964Y-97027999D01*
X153681975Y-96970742D01*
X153720837Y-96926428D01*
X153906401Y-96796495D01*
X154073495Y-96629401D01*
X154209035Y-96435830D01*
X154308903Y-96221663D01*
X154370063Y-95993408D01*
X154390659Y-95758000D01*
X154370063Y-95522592D01*
X154308903Y-95294337D01*
X154209035Y-95080171D01*
X154073495Y-94886599D01*
X153906401Y-94719505D01*
X153720839Y-94589573D01*
X153681975Y-94545257D01*
X153667964Y-94488000D01*
X153681975Y-94430743D01*
X153720839Y-94386426D01*
X153906401Y-94256495D01*
X154073495Y-94089401D01*
X154209035Y-93895830D01*
X154308903Y-93681663D01*
X154370063Y-93453408D01*
X154390659Y-93218000D01*
X154370063Y-92982592D01*
X154308903Y-92754337D01*
X154209035Y-92540171D01*
X154073495Y-92346599D01*
X153906401Y-92179505D01*
X153720839Y-92049573D01*
X153681975Y-92005257D01*
X153667964Y-91948000D01*
X153681975Y-91890743D01*
X153720839Y-91846426D01*
X153906401Y-91716495D01*
X154073495Y-91549401D01*
X154209035Y-91355830D01*
X154308903Y-91141663D01*
X154370063Y-90913408D01*
X154390659Y-90678000D01*
X154370063Y-90442592D01*
X154308903Y-90214337D01*
X154209035Y-90000171D01*
X154073495Y-89806599D01*
X153951569Y-89684673D01*
X153920273Y-89631927D01*
X153918084Y-89570634D01*
X153945537Y-89515789D01*
X153995916Y-89480810D01*
X154127331Y-89431796D01*
X154242546Y-89345546D01*
X154328796Y-89230331D01*
X154379091Y-89095483D01*
X154385500Y-89035873D01*
X154385499Y-87240128D01*
X154379091Y-87180517D01*
X154328796Y-87045669D01*
X154242546Y-86930454D01*
X154127331Y-86844204D01*
X153992483Y-86793909D01*
X153932873Y-86787500D01*
X153932869Y-86787500D01*
X152137130Y-86787500D01*
X152077515Y-86793909D01*
X151942669Y-86844204D01*
X151827454Y-86930454D01*
X151741204Y-87045668D01*
X151690909Y-87180515D01*
X151690909Y-87180517D01*
X151685534Y-87230517D01*
X151684500Y-87240131D01*
X151684500Y-87263500D01*
X151667887Y-87325500D01*
X151622500Y-87370887D01*
X151560500Y-87387500D01*
X150939706Y-87387500D01*
X150921736Y-87386191D01*
X150907853Y-87384157D01*
X150897977Y-87382711D01*
X150897976Y-87382711D01*
X150848631Y-87387028D01*
X150837824Y-87387500D01*
X150832291Y-87387500D01*
X150801501Y-87391098D01*
X150797917Y-87391464D01*
X150721961Y-87398109D01*
X150702921Y-87402330D01*
X150631232Y-87428421D01*
X150627831Y-87429603D01*
X150555479Y-87453579D01*
X150537925Y-87462077D01*
X150474228Y-87503970D01*
X150471190Y-87505905D01*
X150406281Y-87545943D01*
X150391164Y-87558256D01*
X150338848Y-87613708D01*
X150336336Y-87616294D01*
X149374358Y-88578272D01*
X149360727Y-88590053D01*
X149341467Y-88604392D01*
X149309633Y-88642329D01*
X149302341Y-88650289D01*
X149298408Y-88654222D01*
X149279176Y-88678545D01*
X149276902Y-88681337D01*
X149227894Y-88739744D01*
X149217418Y-88756187D01*
X149185192Y-88825294D01*
X149183622Y-88828536D01*
X149149393Y-88896692D01*
X149142996Y-88915098D01*
X149127573Y-88989788D01*
X149126793Y-88993305D01*
X149109208Y-89067505D01*
X149107229Y-89086878D01*
X149109448Y-89163131D01*
X149109500Y-89166737D01*
X149109500Y-93192554D01*
X149109290Y-93199764D01*
X149105668Y-93261934D01*
X149107616Y-93272977D01*
X149109500Y-93294510D01*
X149109500Y-98443771D01*
X149100061Y-98491224D01*
X149073181Y-98531452D01*
X147596359Y-100008271D01*
X147582728Y-100020051D01*
X147563469Y-100034389D01*
X147531633Y-100072329D01*
X147524341Y-100080289D01*
X147520408Y-100084222D01*
X147501176Y-100108545D01*
X147498902Y-100111337D01*
X147449894Y-100169744D01*
X147439418Y-100186187D01*
X147407192Y-100255294D01*
X147405622Y-100258536D01*
X147371393Y-100326692D01*
X147364996Y-100345098D01*
X147349573Y-100419788D01*
X147348793Y-100423305D01*
X147331208Y-100497505D01*
X147329229Y-100516878D01*
X147331448Y-100593131D01*
X147331500Y-100596737D01*
X147331500Y-105076927D01*
X147317667Y-105133841D01*
X147279255Y-105178056D01*
X147224834Y-105199709D01*
X147166546Y-105193969D01*
X147161522Y-105192211D01*
X146991255Y-105132632D01*
X146991254Y-105132631D01*
X146991252Y-105132631D01*
X146812000Y-105112434D01*
X146632748Y-105132631D01*
X146632745Y-105132631D01*
X146632745Y-105132632D01*
X146462478Y-105192211D01*
X146462476Y-105192211D01*
X146462476Y-105192212D01*
X146452479Y-105198494D01*
X146386507Y-105217500D01*
X143396673Y-105217500D01*
X143339416Y-105203489D01*
X143295098Y-105164623D01*
X143235046Y-105078859D01*
X143074140Y-104917953D01*
X142887733Y-104787431D01*
X142829725Y-104760382D01*
X142777549Y-104714625D01*
X142758129Y-104648000D01*
X142777549Y-104581375D01*
X142829725Y-104535618D01*
X142887734Y-104508568D01*
X143074139Y-104378047D01*
X143235047Y-104217139D01*
X143365568Y-104030734D01*
X143461739Y-103824496D01*
X143520635Y-103604692D01*
X143540468Y-103378000D01*
X143520635Y-103151308D01*
X143461739Y-102931504D01*
X143365568Y-102725266D01*
X143235047Y-102538861D01*
X143235046Y-102538859D01*
X143074140Y-102377953D01*
X142887736Y-102247433D01*
X142829723Y-102220381D01*
X142777548Y-102174623D01*
X142758129Y-102107997D01*
X142777549Y-102041372D01*
X142829721Y-101995619D01*
X142887734Y-101968568D01*
X143074139Y-101838047D01*
X143235047Y-101677139D01*
X143365568Y-101490734D01*
X143461739Y-101284496D01*
X143520635Y-101064692D01*
X143540468Y-100838000D01*
X143520635Y-100611308D01*
X143461739Y-100391504D01*
X143365568Y-100185266D01*
X143354699Y-100169744D01*
X143235046Y-99998859D01*
X143074140Y-99837953D01*
X142887733Y-99707431D01*
X142829725Y-99680382D01*
X142777549Y-99634625D01*
X142758129Y-99568000D01*
X142777549Y-99501375D01*
X142829725Y-99455618D01*
X142887734Y-99428568D01*
X143074139Y-99298047D01*
X143235047Y-99137139D01*
X143365568Y-98950734D01*
X143461739Y-98744496D01*
X143520635Y-98524692D01*
X143540468Y-98298000D01*
X143520635Y-98071308D01*
X143461739Y-97851504D01*
X143365568Y-97645266D01*
X143355944Y-97631522D01*
X143235046Y-97458859D01*
X143074140Y-97297953D01*
X142887732Y-97167430D01*
X142829724Y-97140380D01*
X142777549Y-97094623D01*
X142758130Y-97027997D01*
X142777550Y-96961373D01*
X142829721Y-96915619D01*
X142887734Y-96888568D01*
X143074139Y-96758047D01*
X143235047Y-96597139D01*
X143365568Y-96410734D01*
X143461739Y-96204496D01*
X143520635Y-95984692D01*
X143540468Y-95758000D01*
X143520635Y-95531308D01*
X143461739Y-95311504D01*
X143365568Y-95105266D01*
X143347996Y-95080171D01*
X143235046Y-94918859D01*
X143074140Y-94757953D01*
X142887733Y-94627431D01*
X142829725Y-94600382D01*
X142777549Y-94554625D01*
X142758129Y-94488000D01*
X142777549Y-94421375D01*
X142829725Y-94375618D01*
X142887734Y-94348568D01*
X143074139Y-94218047D01*
X143235047Y-94057139D01*
X143365568Y-93870734D01*
X143461739Y-93664496D01*
X143520635Y-93444692D01*
X143540468Y-93218000D01*
X143520635Y-92991308D01*
X143461739Y-92771504D01*
X143365568Y-92565266D01*
X143347996Y-92540171D01*
X143235046Y-92378859D01*
X143074140Y-92217953D01*
X142887736Y-92087433D01*
X142829725Y-92060382D01*
X142829132Y-92060105D01*
X142776958Y-92014348D01*
X142757539Y-91947723D01*
X142776959Y-91881098D01*
X142829135Y-91835342D01*
X142887479Y-91808135D01*
X143073819Y-91677658D01*
X143234658Y-91516819D01*
X143365134Y-91330480D01*
X143461266Y-91124326D01*
X143513872Y-90928000D01*
X140956128Y-90928000D01*
X141008733Y-91124326D01*
X141104865Y-91330480D01*
X141235341Y-91516819D01*
X141396180Y-91677658D01*
X141582519Y-91808134D01*
X141640865Y-91835342D01*
X141693040Y-91881099D01*
X141712460Y-91947723D01*
X141693041Y-92014348D01*
X141640866Y-92060105D01*
X141582267Y-92087430D01*
X141395859Y-92217953D01*
X141234953Y-92378859D01*
X141104432Y-92565264D01*
X141008261Y-92771502D01*
X140949364Y-92991310D01*
X140929531Y-93218000D01*
X140949364Y-93444689D01*
X141008261Y-93664497D01*
X141104432Y-93870735D01*
X141234953Y-94057140D01*
X141395859Y-94218046D01*
X141582263Y-94348566D01*
X141582266Y-94348568D01*
X141640275Y-94375618D01*
X141692450Y-94421375D01*
X141711869Y-94488000D01*
X141692450Y-94554625D01*
X141640275Y-94600382D01*
X141582263Y-94627433D01*
X141395859Y-94757953D01*
X141234953Y-94918859D01*
X141104432Y-95105264D01*
X141008261Y-95311502D01*
X140949364Y-95531310D01*
X140929531Y-95758000D01*
X140949364Y-95984689D01*
X141008261Y-96204497D01*
X141104432Y-96410735D01*
X141234953Y-96597140D01*
X141395859Y-96758046D01*
X141450765Y-96796491D01*
X141582266Y-96888568D01*
X141640273Y-96915617D01*
X141692449Y-96961373D01*
X141711869Y-97027997D01*
X141692451Y-97094622D01*
X141640276Y-97140380D01*
X141582266Y-97167431D01*
X141395859Y-97297953D01*
X141234953Y-97458859D01*
X141104432Y-97645264D01*
X141008261Y-97851502D01*
X140949364Y-98071310D01*
X140929531Y-98298000D01*
X140949364Y-98524689D01*
X141008261Y-98744497D01*
X141104432Y-98950735D01*
X141234953Y-99137140D01*
X141395859Y-99298046D01*
X141478067Y-99355608D01*
X141582266Y-99428568D01*
X141640275Y-99455618D01*
X141692450Y-99501375D01*
X141711869Y-99568000D01*
X141692450Y-99634625D01*
X141640275Y-99680382D01*
X141582263Y-99707433D01*
X141395859Y-99837953D01*
X141234953Y-99998859D01*
X141104432Y-100185264D01*
X141008261Y-100391502D01*
X140949364Y-100611310D01*
X140929531Y-100838000D01*
X140949364Y-101064689D01*
X141008261Y-101284497D01*
X141104432Y-101490735D01*
X141234953Y-101677140D01*
X141395859Y-101838046D01*
X141582263Y-101968566D01*
X141582266Y-101968568D01*
X141640275Y-101995618D01*
X141692450Y-102041375D01*
X141711869Y-102108000D01*
X141692450Y-102174625D01*
X141640275Y-102220382D01*
X141582263Y-102247433D01*
X141395859Y-102377953D01*
X141234953Y-102538859D01*
X141104432Y-102725264D01*
X141008261Y-102931502D01*
X140949364Y-103151310D01*
X140929531Y-103378000D01*
X140949364Y-103604689D01*
X141008261Y-103824497D01*
X141104432Y-104030735D01*
X141234953Y-104217140D01*
X141395859Y-104378046D01*
X141450215Y-104416106D01*
X141582266Y-104508568D01*
X141640275Y-104535618D01*
X141692450Y-104581375D01*
X141711869Y-104648000D01*
X141692450Y-104714625D01*
X141640275Y-104760382D01*
X141582263Y-104787433D01*
X141395859Y-104917953D01*
X141234953Y-105078859D01*
X141174902Y-105164623D01*
X141130584Y-105203489D01*
X141073327Y-105217500D01*
X140232921Y-105217500D01*
X140225434Y-105217274D01*
X140165391Y-105213641D01*
X140106227Y-105224483D01*
X140098828Y-105225610D01*
X140039124Y-105232860D01*
X140029651Y-105236453D01*
X140008047Y-105242476D01*
X139998069Y-105244305D01*
X139943225Y-105268987D01*
X139936310Y-105271851D01*
X139880070Y-105293181D01*
X139871723Y-105298943D01*
X139852187Y-105309961D01*
X139842944Y-105314121D01*
X139795608Y-105351205D01*
X139789582Y-105355639D01*
X139740072Y-105389816D01*
X139700184Y-105434838D01*
X139695052Y-105440289D01*
X138968290Y-106167051D01*
X138962838Y-106172183D01*
X138917816Y-106212070D01*
X138883649Y-106261568D01*
X138879213Y-106267597D01*
X138842121Y-106314942D01*
X138837961Y-106324186D01*
X138826941Y-106343725D01*
X138821182Y-106352069D01*
X138799853Y-106408305D01*
X138796989Y-106415219D01*
X138767551Y-106480632D01*
X138730949Y-106527353D01*
X138676827Y-106551713D01*
X138617584Y-106548130D01*
X138566793Y-106517425D01*
X137481728Y-105432360D01*
X137469946Y-105418727D01*
X137455609Y-105399469D01*
X137417666Y-105367631D01*
X137409691Y-105360323D01*
X137405782Y-105356414D01*
X137405777Y-105356409D01*
X137381423Y-105337152D01*
X137378647Y-105334890D01*
X137320251Y-105285890D01*
X137303821Y-105275422D01*
X137234691Y-105243186D01*
X137231447Y-105241615D01*
X137163306Y-105207394D01*
X137144903Y-105200997D01*
X137102358Y-105192212D01*
X137070206Y-105185572D01*
X137066692Y-105184794D01*
X136992490Y-105167208D01*
X136973121Y-105165229D01*
X136896869Y-105167448D01*
X136893263Y-105167500D01*
X135741663Y-105167500D01*
X135684406Y-105153489D01*
X135640088Y-105114623D01*
X135615046Y-105078859D01*
X135454140Y-104917953D01*
X135267733Y-104787431D01*
X135209725Y-104760382D01*
X135157549Y-104714625D01*
X135138129Y-104648000D01*
X135157549Y-104581375D01*
X135209725Y-104535618D01*
X135267734Y-104508568D01*
X135454139Y-104378047D01*
X135615047Y-104217139D01*
X135745568Y-104030734D01*
X135841739Y-103824496D01*
X135900635Y-103604692D01*
X135920468Y-103378000D01*
X135900635Y-103151308D01*
X135841739Y-102931504D01*
X135745568Y-102725266D01*
X135615047Y-102538861D01*
X135615046Y-102538859D01*
X135454140Y-102377953D01*
X135267736Y-102247433D01*
X135209723Y-102220381D01*
X135157548Y-102174623D01*
X135138129Y-102107997D01*
X135157549Y-102041372D01*
X135209721Y-101995619D01*
X135267734Y-101968568D01*
X135454139Y-101838047D01*
X135615047Y-101677139D01*
X135745568Y-101490734D01*
X135841739Y-101284496D01*
X135900635Y-101064692D01*
X135920468Y-100838000D01*
X135900635Y-100611308D01*
X135841739Y-100391504D01*
X135745568Y-100185266D01*
X135734699Y-100169744D01*
X135615046Y-99998859D01*
X135454140Y-99837953D01*
X135267733Y-99707431D01*
X135209725Y-99680382D01*
X135157549Y-99634625D01*
X135138129Y-99568000D01*
X135157549Y-99501375D01*
X135209725Y-99455618D01*
X135267734Y-99428568D01*
X135454139Y-99298047D01*
X135615047Y-99137139D01*
X135745568Y-98950734D01*
X135841739Y-98744496D01*
X135900635Y-98524692D01*
X135920468Y-98298000D01*
X135900635Y-98071308D01*
X135841739Y-97851504D01*
X135745568Y-97645266D01*
X135735944Y-97631522D01*
X135615046Y-97458859D01*
X135454140Y-97297953D01*
X135267732Y-97167430D01*
X135209724Y-97140380D01*
X135157549Y-97094623D01*
X135138130Y-97027997D01*
X135157550Y-96961373D01*
X135209721Y-96915619D01*
X135267734Y-96888568D01*
X135454139Y-96758047D01*
X135615047Y-96597139D01*
X135745568Y-96410734D01*
X135841739Y-96204496D01*
X135900635Y-95984692D01*
X135920468Y-95758000D01*
X135900635Y-95531308D01*
X135841739Y-95311504D01*
X135745568Y-95105266D01*
X135727996Y-95080171D01*
X135615046Y-94918859D01*
X135454140Y-94757953D01*
X135267733Y-94627431D01*
X135209725Y-94600382D01*
X135157549Y-94554625D01*
X135138129Y-94488000D01*
X135157549Y-94421375D01*
X135209725Y-94375618D01*
X135267734Y-94348568D01*
X135454139Y-94218047D01*
X135615047Y-94057139D01*
X135745568Y-93870734D01*
X135841739Y-93664496D01*
X135900635Y-93444692D01*
X135920468Y-93218000D01*
X135900635Y-92991308D01*
X135841739Y-92771504D01*
X135745568Y-92565266D01*
X135727996Y-92540171D01*
X135615046Y-92378859D01*
X135454140Y-92217953D01*
X135267733Y-92087431D01*
X135209725Y-92060382D01*
X135157549Y-92014625D01*
X135138129Y-91948000D01*
X135157549Y-91881375D01*
X135209725Y-91835618D01*
X135210317Y-91835342D01*
X135267734Y-91808568D01*
X135454139Y-91678047D01*
X135454528Y-91677658D01*
X135617368Y-91514819D01*
X135657596Y-91487939D01*
X135705049Y-91478500D01*
X137758195Y-91478500D01*
X137769009Y-91476031D01*
X137795520Y-91469980D01*
X137809197Y-91467655D01*
X137847255Y-91463368D01*
X137883399Y-91450720D01*
X137896721Y-91446882D01*
X137934061Y-91438360D01*
X137968549Y-91421750D01*
X137981391Y-91416431D01*
X138017522Y-91403789D01*
X138049932Y-91383423D01*
X138062103Y-91376697D01*
X138096587Y-91360091D01*
X138126515Y-91336222D01*
X138137834Y-91328190D01*
X138170262Y-91307816D01*
X138297816Y-91180262D01*
X138297816Y-91180261D01*
X139535826Y-89942252D01*
X139567815Y-89910263D01*
X139567816Y-89910262D01*
X139588182Y-89877847D01*
X139596216Y-89866523D01*
X139620091Y-89836587D01*
X139636698Y-89802100D01*
X139643426Y-89789928D01*
X139663789Y-89757522D01*
X139676431Y-89721391D01*
X139681751Y-89708549D01*
X139693249Y-89684673D01*
X139698360Y-89674061D01*
X139706882Y-89636721D01*
X139710720Y-89623399D01*
X139723368Y-89587255D01*
X139727655Y-89549197D01*
X139729980Y-89535520D01*
X139738500Y-89498194D01*
X139738500Y-89317806D01*
X139738500Y-88138000D01*
X140929531Y-88138000D01*
X140949364Y-88364689D01*
X141008261Y-88584497D01*
X141104432Y-88790735D01*
X141234953Y-88977140D01*
X141395859Y-89138046D01*
X141582264Y-89268567D01*
X141582265Y-89268567D01*
X141582266Y-89268568D01*
X141640865Y-89295893D01*
X141693040Y-89341650D01*
X141712460Y-89408274D01*
X141693041Y-89474899D01*
X141640866Y-89520656D01*
X141582522Y-89547863D01*
X141396180Y-89678341D01*
X141235341Y-89839180D01*
X141104865Y-90025519D01*
X141008733Y-90231673D01*
X140956128Y-90427999D01*
X140956128Y-90428000D01*
X143513872Y-90428000D01*
X143513871Y-90427999D01*
X143461266Y-90231673D01*
X143365134Y-90025519D01*
X143234658Y-89839180D01*
X143073819Y-89678341D01*
X142887482Y-89547866D01*
X142829133Y-89520657D01*
X142776958Y-89474899D01*
X142757539Y-89408274D01*
X142776959Y-89341649D01*
X142829134Y-89295893D01*
X142887734Y-89268568D01*
X143074139Y-89138047D01*
X143235047Y-88977139D01*
X143365568Y-88790734D01*
X143461739Y-88584496D01*
X143520635Y-88364692D01*
X143540468Y-88138000D01*
X143520635Y-87911308D01*
X143461739Y-87691504D01*
X143365568Y-87485266D01*
X143349811Y-87462763D01*
X143235046Y-87298859D01*
X143074140Y-87137953D01*
X142887735Y-87007432D01*
X142681497Y-86911261D01*
X142461689Y-86852364D01*
X142235000Y-86832531D01*
X142008310Y-86852364D01*
X141788502Y-86911261D01*
X141582264Y-87007432D01*
X141395859Y-87137953D01*
X141234953Y-87298859D01*
X141104432Y-87485264D01*
X141008261Y-87691502D01*
X140949364Y-87911310D01*
X140929531Y-88138000D01*
X139738500Y-88138000D01*
X139738500Y-86996940D01*
X139747939Y-86949487D01*
X139774819Y-86909259D01*
X142874605Y-83809473D01*
X142876629Y-83803418D01*
X142890186Y-83781842D01*
X142898216Y-83770523D01*
X142922091Y-83740587D01*
X142938698Y-83706100D01*
X142945426Y-83693928D01*
X142965789Y-83661522D01*
X142978431Y-83625391D01*
X142983751Y-83612549D01*
X143000360Y-83578061D01*
X143008882Y-83540721D01*
X143012720Y-83527399D01*
X143025368Y-83491255D01*
X143029655Y-83453197D01*
X143031980Y-83439520D01*
X143040500Y-83402194D01*
X143040500Y-83221806D01*
X143040500Y-80514000D01*
X149330000Y-80514000D01*
X149330000Y-81611824D01*
X149336402Y-81671375D01*
X149386647Y-81806089D01*
X149472811Y-81921188D01*
X149587910Y-82007352D01*
X149722624Y-82057597D01*
X149782176Y-82064000D01*
X150880000Y-82064000D01*
X150880000Y-80514000D01*
X151380000Y-80514000D01*
X151380000Y-82064000D01*
X152477824Y-82064000D01*
X152537375Y-82057597D01*
X152672089Y-82007352D01*
X152787188Y-81921188D01*
X152873352Y-81806089D01*
X152923597Y-81671375D01*
X152930000Y-81611824D01*
X152930000Y-80514000D01*
X151380000Y-80514000D01*
X150880000Y-80514000D01*
X149330000Y-80514000D01*
X143040500Y-80514000D01*
X143040500Y-80014000D01*
X149330000Y-80014000D01*
X150880000Y-80014000D01*
X150880000Y-78464000D01*
X151380000Y-78464000D01*
X151380000Y-80014000D01*
X152930000Y-80014000D01*
X152930000Y-78916176D01*
X152923597Y-78856624D01*
X152873352Y-78721910D01*
X152787188Y-78606811D01*
X152672089Y-78520647D01*
X152537375Y-78470402D01*
X152477824Y-78464000D01*
X151380000Y-78464000D01*
X150880000Y-78464000D01*
X149782176Y-78464000D01*
X149722624Y-78470402D01*
X149587910Y-78520647D01*
X149472811Y-78606811D01*
X149386647Y-78721910D01*
X149336402Y-78856624D01*
X149330000Y-78916176D01*
X149330000Y-80014000D01*
X143040500Y-80014000D01*
X143040500Y-79203046D01*
X143040500Y-79157806D01*
X143031981Y-79120481D01*
X143029653Y-79106776D01*
X143025368Y-79068745D01*
X143012725Y-79032611D01*
X143008876Y-79019250D01*
X143000360Y-78981939D01*
X142983753Y-78947455D01*
X142978432Y-78934608D01*
X142965790Y-78898480D01*
X142945423Y-78866066D01*
X142938697Y-78853895D01*
X142922092Y-78819414D01*
X142898225Y-78789486D01*
X142890177Y-78778143D01*
X142869816Y-78745738D01*
X142824858Y-78700780D01*
X142742262Y-78618184D01*
X140496819Y-76372740D01*
X140469939Y-76332513D01*
X140460500Y-76285060D01*
X140460500Y-75183999D01*
X149324450Y-75183999D01*
X149344616Y-75453100D01*
X149344617Y-75453103D01*
X149404666Y-75716195D01*
X149503257Y-75967398D01*
X149638185Y-76201102D01*
X149806439Y-76412085D01*
X150004259Y-76595635D01*
X150227226Y-76747651D01*
X150470359Y-76864738D01*
X150728228Y-76944280D01*
X150995071Y-76984500D01*
X151264929Y-76984500D01*
X151531772Y-76944280D01*
X151789641Y-76864738D01*
X152032775Y-76747651D01*
X152255741Y-76595635D01*
X152453561Y-76412085D01*
X152621815Y-76201102D01*
X152756743Y-75967398D01*
X152855334Y-75716195D01*
X152915383Y-75453103D01*
X152935549Y-75184000D01*
X152915383Y-74914897D01*
X152855334Y-74651805D01*
X152756743Y-74400602D01*
X152621815Y-74166898D01*
X152453561Y-73955915D01*
X152453560Y-73955914D01*
X152255743Y-73772366D01*
X152198205Y-73733137D01*
X152032775Y-73620349D01*
X151789641Y-73503262D01*
X151710097Y-73478726D01*
X151531771Y-73423719D01*
X151264929Y-73383500D01*
X150995071Y-73383500D01*
X150728228Y-73423719D01*
X150470359Y-73503262D01*
X150227228Y-73620347D01*
X150004257Y-73772366D01*
X149806439Y-73955915D01*
X149638184Y-74166899D01*
X149503257Y-74400601D01*
X149404666Y-74651804D01*
X149344616Y-74914899D01*
X149324450Y-75183999D01*
X140460500Y-75183999D01*
X140460500Y-75004049D01*
X140469939Y-74956596D01*
X140496819Y-74916368D01*
X140660046Y-74753140D01*
X140790567Y-74566735D01*
X140790568Y-74566734D01*
X140886739Y-74360496D01*
X140945635Y-74140692D01*
X140965468Y-73914000D01*
X140945635Y-73687308D01*
X140886739Y-73467504D01*
X140790568Y-73261266D01*
X140660047Y-73074861D01*
X140660046Y-73074859D01*
X140499140Y-72913953D01*
X140312735Y-72783432D01*
X140106497Y-72687261D01*
X139886689Y-72628364D01*
X139660000Y-72608531D01*
X139433310Y-72628364D01*
X139213502Y-72687261D01*
X139007264Y-72783432D01*
X138820859Y-72913953D01*
X138659953Y-73074859D01*
X138529432Y-73261264D01*
X138522382Y-73276385D01*
X138476625Y-73328561D01*
X138410000Y-73347980D01*
X138343375Y-73328561D01*
X138297618Y-73276385D01*
X138290567Y-73261264D01*
X138160046Y-73074859D01*
X137999140Y-72913953D01*
X137812735Y-72783432D01*
X137606497Y-72687261D01*
X137386689Y-72628364D01*
X137160000Y-72608531D01*
X136933310Y-72628364D01*
X136713502Y-72687261D01*
X136507264Y-72783432D01*
X136320859Y-72913953D01*
X136159953Y-73074859D01*
X136029432Y-73261264D01*
X135933261Y-73467502D01*
X135874364Y-73687310D01*
X135854531Y-73913999D01*
X135874364Y-74140689D01*
X135933261Y-74360497D01*
X136029432Y-74566735D01*
X136159953Y-74753140D01*
X136323181Y-74916368D01*
X136350061Y-74956596D01*
X136359500Y-75004049D01*
X136359500Y-80717951D01*
X136350061Y-80765404D01*
X136323181Y-80805632D01*
X136177632Y-80951181D01*
X136137404Y-80978061D01*
X136089951Y-80987500D01*
X132116804Y-80987500D01*
X132079490Y-80996016D01*
X132065784Y-80998345D01*
X132027746Y-81002631D01*
X131991610Y-81015276D01*
X131978253Y-81019124D01*
X131967255Y-81021634D01*
X131940937Y-81027641D01*
X131906458Y-81044245D01*
X131893618Y-81049563D01*
X131857479Y-81062209D01*
X131825064Y-81082577D01*
X131812897Y-81089301D01*
X131778414Y-81105907D01*
X131748487Y-81129773D01*
X131737152Y-81137815D01*
X131704740Y-81158181D01*
X131655306Y-81207615D01*
X127201152Y-85661767D01*
X127201150Y-85661771D01*
X127132185Y-85730735D01*
X127111817Y-85763151D01*
X127103772Y-85774489D01*
X127079908Y-85804413D01*
X127063300Y-85838899D01*
X127056576Y-85851064D01*
X127036211Y-85883475D01*
X127023565Y-85919613D01*
X127018246Y-85932453D01*
X127001639Y-85966938D01*
X126993118Y-86004268D01*
X126989270Y-86017623D01*
X126976631Y-86053743D01*
X126972345Y-86091780D01*
X126970017Y-86105480D01*
X126961500Y-86142803D01*
X126961500Y-87213500D01*
X126944887Y-87275500D01*
X126899500Y-87320887D01*
X126837500Y-87337500D01*
X125297351Y-87337500D01*
X125239223Y-87323031D01*
X125194660Y-87283002D01*
X125174061Y-87226753D01*
X125169091Y-87180517D01*
X125118796Y-87045669D01*
X125032546Y-86930454D01*
X124917331Y-86844204D01*
X124782483Y-86793909D01*
X124722873Y-86787500D01*
X124722869Y-86787500D01*
X122927130Y-86787500D01*
X122867515Y-86793909D01*
X122732669Y-86844204D01*
X122617454Y-86930454D01*
X122531204Y-87045668D01*
X122480909Y-87180515D01*
X122480909Y-87180517D01*
X122475534Y-87230516D01*
X122474500Y-87240130D01*
X122474500Y-89035869D01*
X122480909Y-89095484D01*
X122487346Y-89112741D01*
X122531204Y-89230331D01*
X122617454Y-89345546D01*
X122732669Y-89431796D01*
X122844907Y-89473658D01*
X122864082Y-89480810D01*
X122914462Y-89515789D01*
X122941915Y-89570634D01*
X122939726Y-89631926D01*
X122908431Y-89684673D01*
X122786503Y-89806601D01*
X122650965Y-90000170D01*
X122551097Y-90214336D01*
X122489936Y-90442592D01*
X122469340Y-90677999D01*
X122489936Y-90913407D01*
X122534709Y-91080501D01*
X122551097Y-91141663D01*
X122650965Y-91355830D01*
X122786505Y-91549401D01*
X122953599Y-91716495D01*
X123139160Y-91846426D01*
X123178024Y-91890743D01*
X123192035Y-91948000D01*
X123178024Y-92005257D01*
X123139159Y-92049575D01*
X122953595Y-92179508D01*
X122786505Y-92346598D01*
X122650965Y-92540170D01*
X122551097Y-92754336D01*
X122489936Y-92982592D01*
X122469340Y-93218000D01*
X122489936Y-93453407D01*
X122534709Y-93620501D01*
X122551097Y-93681663D01*
X122650965Y-93895830D01*
X122786505Y-94089401D01*
X122953599Y-94256495D01*
X123139160Y-94386426D01*
X123178024Y-94430743D01*
X123192035Y-94488000D01*
X123178024Y-94545257D01*
X123139159Y-94589575D01*
X122953595Y-94719508D01*
X122786505Y-94886598D01*
X122650965Y-95080170D01*
X122551097Y-95294336D01*
X122489936Y-95522592D01*
X122469340Y-95758000D01*
X122489936Y-95993407D01*
X122534709Y-96160502D01*
X122551097Y-96221663D01*
X122650965Y-96435830D01*
X122786505Y-96629401D01*
X122953599Y-96796495D01*
X123139160Y-96926426D01*
X123178024Y-96970743D01*
X123192035Y-97028000D01*
X123178024Y-97085257D01*
X123139159Y-97129575D01*
X122953595Y-97259508D01*
X122786505Y-97426598D01*
X122650965Y-97620170D01*
X122551097Y-97834336D01*
X122489936Y-98062592D01*
X122469340Y-98298000D01*
X122489936Y-98533407D01*
X122534709Y-98700502D01*
X122551097Y-98761663D01*
X122650965Y-98975830D01*
X122786505Y-99169401D01*
X122953599Y-99336495D01*
X123139160Y-99466426D01*
X123178024Y-99510743D01*
X123192035Y-99568000D01*
X123178024Y-99625257D01*
X123139159Y-99669575D01*
X122953595Y-99799508D01*
X122786505Y-99966598D01*
X122650965Y-100160170D01*
X122551097Y-100374336D01*
X122489936Y-100602592D01*
X122469340Y-100838000D01*
X121000500Y-100838000D01*
X121000500Y-81702702D01*
X124898848Y-81702702D01*
X125081479Y-81827217D01*
X125324542Y-81944270D01*
X125582339Y-82023791D01*
X125849109Y-82064000D01*
X126118891Y-82064000D01*
X126385660Y-82023791D01*
X126643460Y-81944270D01*
X126886523Y-81827217D01*
X127069150Y-81702702D01*
X125984000Y-80617553D01*
X124898848Y-81702702D01*
X121000500Y-81702702D01*
X121000500Y-80264000D01*
X124178952Y-80264000D01*
X124199113Y-80533026D01*
X124259146Y-80796049D01*
X124357708Y-81047178D01*
X124492598Y-81280816D01*
X124546295Y-81348150D01*
X125630447Y-80264000D01*
X126337553Y-80264000D01*
X127421703Y-81348151D01*
X127421704Y-81348150D01*
X127475400Y-81280818D01*
X127610291Y-81047178D01*
X127708853Y-80796049D01*
X127768886Y-80533026D01*
X127789047Y-80264000D01*
X127768886Y-79994973D01*
X127708853Y-79731950D01*
X127610291Y-79480821D01*
X127475398Y-79247178D01*
X127421704Y-79179847D01*
X126337553Y-80264000D01*
X125630447Y-80264000D01*
X124546295Y-79179848D01*
X124492598Y-79247182D01*
X124357708Y-79480821D01*
X124259146Y-79731950D01*
X124199113Y-79994973D01*
X124178952Y-80264000D01*
X121000500Y-80264000D01*
X121000500Y-78825296D01*
X124898848Y-78825296D01*
X125984000Y-79910447D01*
X125984001Y-79910447D01*
X127069150Y-78825296D01*
X126886519Y-78700780D01*
X126643460Y-78583729D01*
X126385660Y-78504208D01*
X126118891Y-78464000D01*
X125849109Y-78464000D01*
X125582339Y-78504208D01*
X125324542Y-78583729D01*
X125081476Y-78700783D01*
X124898848Y-78825296D01*
X121000500Y-78825296D01*
X121000500Y-76531869D01*
X124183500Y-76531869D01*
X124189909Y-76591484D01*
X124215056Y-76658907D01*
X124240204Y-76726331D01*
X124326454Y-76841546D01*
X124441669Y-76927796D01*
X124576517Y-76978091D01*
X124636127Y-76984500D01*
X127331872Y-76984499D01*
X127391483Y-76978091D01*
X127526331Y-76927796D01*
X127641546Y-76841546D01*
X127727796Y-76726331D01*
X127778091Y-76591483D01*
X127784500Y-76531873D01*
X127784499Y-73836128D01*
X127778091Y-73776517D01*
X127727796Y-73641669D01*
X127641546Y-73526454D01*
X127526331Y-73440204D01*
X127391483Y-73389909D01*
X127331873Y-73383500D01*
X127331869Y-73383500D01*
X124636130Y-73383500D01*
X124576515Y-73389909D01*
X124441669Y-73440204D01*
X124326454Y-73526454D01*
X124240204Y-73641668D01*
X124189909Y-73776516D01*
X124183500Y-73836130D01*
X124183500Y-76531869D01*
X121000500Y-76531869D01*
X121000500Y-62982500D01*
X128184340Y-62982500D01*
X128204936Y-63217907D01*
X128249709Y-63385001D01*
X128266097Y-63446163D01*
X128365965Y-63660330D01*
X128501505Y-63853901D01*
X128501508Y-63853904D01*
X128676270Y-64028666D01*
X128673692Y-64031243D01*
X128703754Y-64068164D01*
X128712574Y-64135242D01*
X128684871Y-64196965D01*
X128628892Y-64234960D01*
X128620666Y-64237685D01*
X128471342Y-64329788D01*
X128347288Y-64453842D01*
X128255186Y-64603165D01*
X128200000Y-64769702D01*
X128189500Y-64872490D01*
X128189500Y-66172508D01*
X128200000Y-66275296D01*
X128255186Y-66441834D01*
X128347288Y-66591157D01*
X128471342Y-66715211D01*
X128471344Y-66715212D01*
X128620666Y-66807314D01*
X128732016Y-66844212D01*
X128787202Y-66862499D01*
X128797702Y-66863571D01*
X128889991Y-66873000D01*
X130190008Y-66872999D01*
X130292797Y-66862499D01*
X130459334Y-66807314D01*
X130608656Y-66715212D01*
X130732712Y-66591156D01*
X130824814Y-66441834D01*
X130827538Y-66433611D01*
X130865526Y-66377635D01*
X130927244Y-66349927D01*
X130994320Y-66358739D01*
X131031258Y-66388805D01*
X131033834Y-66386230D01*
X131041505Y-66393901D01*
X131208599Y-66560995D01*
X131402170Y-66696535D01*
X131616337Y-66796403D01*
X131844592Y-66857563D01*
X132080000Y-66878159D01*
X132315408Y-66857563D01*
X132543663Y-66796403D01*
X132757830Y-66696535D01*
X132951401Y-66560995D01*
X133118495Y-66393901D01*
X133248426Y-66208339D01*
X133292743Y-66169475D01*
X133350000Y-66155464D01*
X133407257Y-66169475D01*
X133451573Y-66208339D01*
X133581505Y-66393901D01*
X133748599Y-66560995D01*
X133942170Y-66696535D01*
X134156337Y-66796403D01*
X134384592Y-66857563D01*
X134620000Y-66878159D01*
X134855408Y-66857563D01*
X135083663Y-66796403D01*
X135297830Y-66696535D01*
X135491401Y-66560995D01*
X135658495Y-66393901D01*
X135788426Y-66208339D01*
X135832743Y-66169475D01*
X135890000Y-66155464D01*
X135947257Y-66169475D01*
X135991573Y-66208339D01*
X136121505Y-66393901D01*
X136288599Y-66560995D01*
X136482170Y-66696535D01*
X136696337Y-66796403D01*
X136924592Y-66857563D01*
X137160000Y-66878159D01*
X137395408Y-66857563D01*
X137623663Y-66796403D01*
X137837830Y-66696535D01*
X138031401Y-66560995D01*
X138198495Y-66393901D01*
X138328426Y-66208339D01*
X138372743Y-66169475D01*
X138430000Y-66155464D01*
X138487257Y-66169475D01*
X138531573Y-66208339D01*
X138661505Y-66393901D01*
X138828599Y-66560995D01*
X139022170Y-66696535D01*
X139236337Y-66796403D01*
X139464592Y-66857563D01*
X139700000Y-66878159D01*
X139935408Y-66857563D01*
X140163663Y-66796403D01*
X140377830Y-66696535D01*
X140571401Y-66560995D01*
X140738495Y-66393901D01*
X140868426Y-66208339D01*
X140912743Y-66169475D01*
X140970000Y-66155464D01*
X141027257Y-66169475D01*
X141071573Y-66208339D01*
X141201505Y-66393901D01*
X141368599Y-66560995D01*
X141562170Y-66696535D01*
X141776337Y-66796403D01*
X142004592Y-66857563D01*
X142240000Y-66878159D01*
X142475408Y-66857563D01*
X142703663Y-66796403D01*
X142917830Y-66696535D01*
X143111401Y-66560995D01*
X143278495Y-66393901D01*
X143408426Y-66208339D01*
X143452743Y-66169475D01*
X143510000Y-66155464D01*
X143567257Y-66169475D01*
X143611573Y-66208339D01*
X143741505Y-66393901D01*
X143908599Y-66560995D01*
X144102170Y-66696535D01*
X144316337Y-66796403D01*
X144544592Y-66857563D01*
X144780000Y-66878159D01*
X145015408Y-66857563D01*
X145243663Y-66796403D01*
X145457830Y-66696535D01*
X145651401Y-66560995D01*
X145818495Y-66393901D01*
X145948426Y-66208339D01*
X145992743Y-66169475D01*
X146050000Y-66155464D01*
X146107257Y-66169475D01*
X146151573Y-66208339D01*
X146281505Y-66393901D01*
X146448599Y-66560995D01*
X146642170Y-66696535D01*
X146856337Y-66796403D01*
X147084592Y-66857563D01*
X147320000Y-66878159D01*
X147555408Y-66857563D01*
X147783663Y-66796403D01*
X147997830Y-66696535D01*
X148191401Y-66560995D01*
X148358495Y-66393901D01*
X148494035Y-66200330D01*
X148593903Y-65986163D01*
X148655063Y-65757908D01*
X148675659Y-65522500D01*
X148655063Y-65287092D01*
X148593903Y-65058837D01*
X148494035Y-64844671D01*
X148358495Y-64651099D01*
X148191401Y-64484005D01*
X148005839Y-64354073D01*
X147966975Y-64309757D01*
X147952964Y-64252500D01*
X147966975Y-64195243D01*
X148005839Y-64150926D01*
X148191401Y-64020995D01*
X148358495Y-63853901D01*
X148494035Y-63660330D01*
X148593903Y-63446163D01*
X148655063Y-63217908D01*
X148675659Y-62982500D01*
X148655063Y-62747092D01*
X148593903Y-62518837D01*
X148494035Y-62304671D01*
X148358495Y-62111099D01*
X148191401Y-61944005D01*
X147997830Y-61808465D01*
X147783663Y-61708597D01*
X147722502Y-61692209D01*
X147555407Y-61647436D01*
X147320000Y-61626840D01*
X147084592Y-61647436D01*
X146856336Y-61708597D01*
X146642170Y-61808465D01*
X146448598Y-61944005D01*
X146281505Y-62111098D01*
X146151575Y-62296659D01*
X146107257Y-62335525D01*
X146050000Y-62349536D01*
X145992743Y-62335525D01*
X145948425Y-62296659D01*
X145818494Y-62111098D01*
X145651404Y-61944008D01*
X145651401Y-61944005D01*
X145457830Y-61808465D01*
X145243663Y-61708597D01*
X145182502Y-61692209D01*
X145015407Y-61647436D01*
X144780000Y-61626840D01*
X144544592Y-61647436D01*
X144316336Y-61708597D01*
X144102170Y-61808465D01*
X143908598Y-61944005D01*
X143741505Y-62111098D01*
X143611575Y-62296659D01*
X143567257Y-62335525D01*
X143510000Y-62349536D01*
X143452743Y-62335525D01*
X143408425Y-62296659D01*
X143278494Y-62111098D01*
X143111404Y-61944008D01*
X143111401Y-61944005D01*
X142917830Y-61808465D01*
X142703663Y-61708597D01*
X142642502Y-61692209D01*
X142475407Y-61647436D01*
X142240000Y-61626840D01*
X142004592Y-61647436D01*
X141776336Y-61708597D01*
X141562170Y-61808465D01*
X141368598Y-61944005D01*
X141201505Y-62111098D01*
X141071575Y-62296659D01*
X141027257Y-62335525D01*
X140970000Y-62349536D01*
X140912743Y-62335525D01*
X140868425Y-62296659D01*
X140738494Y-62111098D01*
X140571404Y-61944008D01*
X140571401Y-61944005D01*
X140377830Y-61808465D01*
X140163663Y-61708597D01*
X140102502Y-61692209D01*
X139935407Y-61647436D01*
X139700000Y-61626840D01*
X139464592Y-61647436D01*
X139236336Y-61708597D01*
X139022170Y-61808465D01*
X138828598Y-61944005D01*
X138661505Y-62111098D01*
X138531575Y-62296659D01*
X138487257Y-62335525D01*
X138430000Y-62349536D01*
X138372743Y-62335525D01*
X138328425Y-62296659D01*
X138198494Y-62111098D01*
X138031404Y-61944008D01*
X138031401Y-61944005D01*
X137837830Y-61808465D01*
X137623663Y-61708597D01*
X137562502Y-61692209D01*
X137395407Y-61647436D01*
X137160000Y-61626840D01*
X136924592Y-61647436D01*
X136696336Y-61708597D01*
X136482170Y-61808465D01*
X136288598Y-61944005D01*
X136121505Y-62111098D01*
X135991575Y-62296659D01*
X135947257Y-62335525D01*
X135890000Y-62349536D01*
X135832743Y-62335525D01*
X135788425Y-62296659D01*
X135658494Y-62111098D01*
X135491404Y-61944008D01*
X135491401Y-61944005D01*
X135297830Y-61808465D01*
X135083663Y-61708597D01*
X135022502Y-61692209D01*
X134855407Y-61647436D01*
X134620000Y-61626840D01*
X134384592Y-61647436D01*
X134156336Y-61708597D01*
X133942170Y-61808465D01*
X133748598Y-61944005D01*
X133581505Y-62111098D01*
X133451575Y-62296659D01*
X133407257Y-62335525D01*
X133350000Y-62349536D01*
X133292743Y-62335525D01*
X133248425Y-62296659D01*
X133118494Y-62111098D01*
X132951404Y-61944008D01*
X132951401Y-61944005D01*
X132757830Y-61808465D01*
X132543663Y-61708597D01*
X132482502Y-61692209D01*
X132315407Y-61647436D01*
X132080000Y-61626840D01*
X131844592Y-61647436D01*
X131616336Y-61708597D01*
X131402170Y-61808465D01*
X131208598Y-61944005D01*
X131041505Y-62111098D01*
X130911575Y-62296659D01*
X130867257Y-62335525D01*
X130810000Y-62349536D01*
X130752743Y-62335525D01*
X130708425Y-62296659D01*
X130578494Y-62111098D01*
X130411404Y-61944008D01*
X130411401Y-61944005D01*
X130217830Y-61808465D01*
X130003663Y-61708597D01*
X129942502Y-61692209D01*
X129775407Y-61647436D01*
X129540000Y-61626840D01*
X129304592Y-61647436D01*
X129076336Y-61708597D01*
X128862170Y-61808465D01*
X128668598Y-61944005D01*
X128501505Y-62111098D01*
X128365965Y-62304670D01*
X128266097Y-62518836D01*
X128204936Y-62747092D01*
X128184340Y-62982500D01*
X121000500Y-62982500D01*
X121000500Y-54999999D01*
X122424651Y-54999999D01*
X122444027Y-55357364D01*
X122501930Y-55710559D01*
X122597674Y-56055401D01*
X122730146Y-56387881D01*
X122897786Y-56704080D01*
X123098636Y-57000313D01*
X123330332Y-57273086D01*
X123590161Y-57519210D01*
X123875081Y-57735800D01*
X124181747Y-57920315D01*
X124506565Y-58070591D01*
X124845726Y-58184868D01*
X125195254Y-58261805D01*
X125516151Y-58296704D01*
X125551051Y-58300500D01*
X125551052Y-58300500D01*
X125908948Y-58300500D01*
X125908949Y-58300500D01*
X125940730Y-58297043D01*
X126264746Y-58261805D01*
X126614274Y-58184868D01*
X126953435Y-58070591D01*
X127278253Y-57920315D01*
X127584919Y-57735800D01*
X127869837Y-57519211D01*
X128129668Y-57273086D01*
X128361365Y-57000311D01*
X128562211Y-56704085D01*
X128654597Y-56529826D01*
X128729853Y-56387881D01*
X128862325Y-56055401D01*
X128958069Y-55710559D01*
X128958068Y-55710559D01*
X128958071Y-55710552D01*
X129015972Y-55357371D01*
X129035348Y-55000000D01*
X129035348Y-54999999D01*
X147824651Y-54999999D01*
X147844027Y-55357364D01*
X147901930Y-55710559D01*
X147997674Y-56055401D01*
X148130146Y-56387881D01*
X148297786Y-56704080D01*
X148498636Y-57000313D01*
X148730332Y-57273086D01*
X148990161Y-57519210D01*
X149275081Y-57735800D01*
X149581747Y-57920315D01*
X149906565Y-58070591D01*
X150245726Y-58184868D01*
X150595254Y-58261805D01*
X150916151Y-58296704D01*
X150951051Y-58300500D01*
X150951052Y-58300500D01*
X151308948Y-58300500D01*
X151308949Y-58300500D01*
X151340730Y-58297043D01*
X151664746Y-58261805D01*
X152014274Y-58184868D01*
X152353435Y-58070591D01*
X152678253Y-57920315D01*
X152984919Y-57735800D01*
X153269837Y-57519211D01*
X153529668Y-57273086D01*
X153761365Y-57000311D01*
X153962211Y-56704085D01*
X154054597Y-56529826D01*
X154129853Y-56387881D01*
X154262325Y-56055401D01*
X154358069Y-55710559D01*
X154358068Y-55710559D01*
X154358071Y-55710552D01*
X154415972Y-55357371D01*
X154435348Y-55000000D01*
X154415972Y-54642629D01*
X154358071Y-54289448D01*
X154358069Y-54289440D01*
X154262325Y-53944598D01*
X154129853Y-53612118D01*
X153962213Y-53295919D01*
X153962211Y-53295915D01*
X153761365Y-52999689D01*
X153761363Y-52999686D01*
X153529667Y-52726913D01*
X153269838Y-52480789D01*
X152984918Y-52264199D01*
X152678250Y-52079683D01*
X152353439Y-51929411D01*
X152353440Y-51929411D01*
X152353435Y-51929409D01*
X152014274Y-51815132D01*
X152014273Y-51815131D01*
X152014271Y-51815131D01*
X151802189Y-51768448D01*
X151664746Y-51738195D01*
X151486847Y-51718847D01*
X151308949Y-51699500D01*
X151308948Y-51699500D01*
X150951052Y-51699500D01*
X150951051Y-51699500D01*
X150595254Y-51738195D01*
X150245728Y-51815131D01*
X150073283Y-51873234D01*
X149906565Y-51929409D01*
X149906562Y-51929410D01*
X149906560Y-51929411D01*
X149581749Y-52079683D01*
X149275081Y-52264199D01*
X148990161Y-52480789D01*
X148730332Y-52726913D01*
X148498636Y-52999686D01*
X148297786Y-53295919D01*
X148130146Y-53612118D01*
X147997674Y-53944598D01*
X147901930Y-54289440D01*
X147844027Y-54642635D01*
X147824651Y-54999999D01*
X129035348Y-54999999D01*
X129015972Y-54642629D01*
X128958071Y-54289448D01*
X128958069Y-54289440D01*
X128862325Y-53944598D01*
X128729853Y-53612118D01*
X128562213Y-53295919D01*
X128562211Y-53295915D01*
X128361365Y-52999689D01*
X128361363Y-52999686D01*
X128129667Y-52726913D01*
X127869838Y-52480789D01*
X127584918Y-52264199D01*
X127278250Y-52079683D01*
X126953439Y-51929411D01*
X126953440Y-51929411D01*
X126953435Y-51929409D01*
X126614274Y-51815132D01*
X126614273Y-51815131D01*
X126614271Y-51815131D01*
X126402189Y-51768448D01*
X126264746Y-51738195D01*
X126086847Y-51718847D01*
X125908949Y-51699500D01*
X125908948Y-51699500D01*
X125551052Y-51699500D01*
X125551051Y-51699500D01*
X125195254Y-51738195D01*
X124845728Y-51815131D01*
X124673283Y-51873234D01*
X124506565Y-51929409D01*
X124506562Y-51929410D01*
X124506560Y-51929411D01*
X124181749Y-52079683D01*
X123875081Y-52264199D01*
X123590161Y-52480789D01*
X123330332Y-52726913D01*
X123098636Y-52999686D01*
X122897786Y-53295919D01*
X122730146Y-53612118D01*
X122597674Y-53944598D01*
X122501930Y-54289440D01*
X122444027Y-54642635D01*
X122424651Y-54999999D01*
X121000500Y-54999999D01*
X121000500Y-51124500D01*
X121017113Y-51062500D01*
X121062500Y-51017113D01*
X121124500Y-51000500D01*
X155875500Y-51000500D01*
X155937500Y-51017113D01*
G37*
G04 #@! TD.AperFunction*
M02*
