M48
INCH,TZ
T1C0.0138
T2C0.0315
T3C0.0394
T4C0.0512
T5C0.1260
%
G90
G05
T1
X48300Y-24100
X48400Y-26300
X48400Y-27500
X48800Y-41800
X49200Y-33300
X50200Y-41600
X51200Y-27800
X51300Y-23100
X51700Y-34600
X54400Y-27400
X54600Y-23000
X54900Y-43200
X57200Y-23200
X57600Y-34000
X57800Y-27900
X57800Y-41700
X57900Y-45000
X59300Y-33200
X59300Y-42100
X60300Y-41900
X60500Y-25000
X60700Y-27400
T2
X52998Y-34700
X52998Y-35700
X52998Y-36700
X52998Y-37700
X52998Y-38700
X52998Y-39700
X52998Y-40700
X52998Y-41700
X52998Y-42700
X52998Y-43700
X54000Y-29100
X54008Y-32200
X54984Y-29100
X54992Y-32200
X55998Y-34700
X55998Y-35700
X55998Y-36700
X55998Y-37700
X55998Y-38700
X55998Y-39700
X55998Y-40700
X55998Y-41700
X55998Y-42700
X55998Y-43700
T3
X48750Y-34700
X48750Y-35700
X48750Y-36700
X48750Y-37700
X48750Y-38700
X48750Y-39700
X48750Y-40700
X51000Y-24796
X51000Y-25796
X52000Y-24796
X52000Y-25796
X53000Y-24796
X53000Y-25796
X54000Y-24796
X54000Y-25796
X55000Y-24796
X55000Y-25796
X56000Y-24796
X56000Y-25796
X57000Y-24796
X57000Y-25796
X58000Y-24796
X58000Y-25796
X60250Y-34700
X60250Y-35700
X60250Y-36700
X60250Y-37700
X60250Y-38700
X60250Y-39700
X60250Y-40700
T4
X49600Y-29600
X49600Y-31600
X59500Y-29600
X59500Y-31600
T5
X49500Y-21654
X49500Y-43750
X59500Y-21654
X59500Y-43750
T0
M30
