G04 #@! TF.GenerationSoftware,KiCad,Pcbnew,7.0.1*
G04 #@! TF.CreationDate,2023-05-03T21:59:59+05:00*
G04 #@! TF.ProjectId,Breakout_TPIC6B595N_v1.0,42726561-6b6f-4757-945f-545049433642,rev?*
G04 #@! TF.SameCoordinates,Original*
G04 #@! TF.FileFunction,Soldermask,Bot*
G04 #@! TF.FilePolarity,Negative*
%FSLAX46Y46*%
G04 Gerber Fmt 4.6, Leading zero omitted, Abs format (unit mm)*
G04 Created by KiCad (PCBNEW 7.0.1) date 2023-05-03 21:59:59*
%MOMM*%
%LPD*%
G01*
G04 APERTURE LIST*
G04 Aperture macros list*
%AMRoundRect*
0 Rectangle with rounded corners*
0 $1 Rounding radius*
0 $2 $3 $4 $5 $6 $7 $8 $9 X,Y pos of 4 corners*
0 Add a 4 corners polygon primitive as box body*
4,1,4,$2,$3,$4,$5,$6,$7,$8,$9,$2,$3,0*
0 Add four circle primitives for the rounded corners*
1,1,$1+$1,$2,$3*
1,1,$1+$1,$4,$5*
1,1,$1+$1,$6,$7*
1,1,$1+$1,$8,$9*
0 Add four rect primitives between the rounded corners*
20,1,$1+$1,$2,$3,$4,$5,0*
20,1,$1+$1,$4,$5,$6,$7,0*
20,1,$1+$1,$6,$7,$8,$9,0*
20,1,$1+$1,$8,$9,$2,$3,0*%
G04 Aperture macros list end*
%ADD10C,5.600000*%
%ADD11C,1.600000*%
%ADD12R,1.700000X1.700000*%
%ADD13O,1.700000X1.700000*%
%ADD14RoundRect,0.250000X0.600000X-0.600000X0.600000X0.600000X-0.600000X0.600000X-0.600000X-0.600000X0*%
%ADD15C,1.700000*%
%ADD16R,1.600000X1.600000*%
%ADD17O,1.600000X1.600000*%
%ADD18R,2.600000X2.600000*%
%ADD19C,2.600000*%
G04 APERTURE END LIST*
D10*
X125730000Y-55000000D03*
D11*
X137180000Y-81788000D03*
X139680000Y-81788000D03*
D10*
X151130000Y-111125000D03*
D12*
X153035000Y-88138000D03*
D13*
X153035000Y-90678000D03*
X153035000Y-93218000D03*
X153035000Y-95758000D03*
X153035000Y-98298000D03*
X153035000Y-100838000D03*
X153035000Y-103378000D03*
D10*
X125730000Y-111125000D03*
D11*
X137160000Y-73914000D03*
X139660000Y-73914000D03*
D14*
X129540000Y-65522500D03*
D15*
X129540000Y-62982500D03*
X132080000Y-65522500D03*
X132080000Y-62982500D03*
X134620000Y-65522500D03*
X134620000Y-62982500D03*
X137160000Y-65522500D03*
X137160000Y-62982500D03*
X139700000Y-65522500D03*
X139700000Y-62982500D03*
X142240000Y-65522500D03*
X142240000Y-62982500D03*
X144780000Y-65522500D03*
X144780000Y-62982500D03*
X147320000Y-65522500D03*
X147320000Y-62982500D03*
D16*
X134615000Y-88138000D03*
D17*
X134615000Y-90678000D03*
X134615000Y-93218000D03*
X134615000Y-95758000D03*
X134615000Y-98298000D03*
X134615000Y-100838000D03*
X134615000Y-103378000D03*
X134615000Y-105918000D03*
X134615000Y-108458000D03*
X134615000Y-110998000D03*
X142235000Y-110998000D03*
X142235000Y-108458000D03*
X142235000Y-105918000D03*
X142235000Y-103378000D03*
X142235000Y-100838000D03*
X142235000Y-98298000D03*
X142235000Y-95758000D03*
X142235000Y-93218000D03*
X142235000Y-90678000D03*
X142235000Y-88138000D03*
D18*
X125984000Y-75184000D03*
D19*
X125984000Y-80264000D03*
D10*
X151130000Y-55000000D03*
D18*
X151130000Y-80264000D03*
D19*
X151130000Y-75184000D03*
D12*
X123825000Y-88138000D03*
D13*
X123825000Y-90678000D03*
X123825000Y-93218000D03*
X123825000Y-95758000D03*
X123825000Y-98298000D03*
X123825000Y-100838000D03*
X123825000Y-103378000D03*
M02*
